STARTFONT 2.1
COMMENT
COMMENT Converted from OpenType font "Q:\font stuff\winfont\namco regular.ttf" by "otf2bdf 3.0".
COMMENT
FONT -FreeType-namco regular-Medium-R-Normal--91-910-72-72-P-252-ISO10646-1
SIZE 91 72 72
FONTBOUNDINGBOX 268 93 0 0
STARTPROPERTIES 19
FOUNDRY "FreeType"
FAMILY_NAME "namco regular"
WEIGHT_NAME "Medium"
SLANT "R"
SETWIDTH_NAME "Normal"
ADD_STYLE_NAME ""
PIXEL_SIZE 80
POINT_SIZE 910
RESOLUTION_X 72
RESOLUTION_Y 72
SPACING "P"
AVERAGE_WIDTH 252
CHARSET_REGISTRY "ISO10646"
CHARSET_ENCODING "1"
FONT_ASCENT 78
FONT_DESCENT 2
COPYRIGHT "akihiro love namco (C) 1998"
_OTF_FONTFILE "Q:\font stuff\winfont\namco regular.ttf"
_OTF_PSNAME "namco regular"
ENDPROPERTIES
CHARS 214
STARTCHAR 0020
ENCODING 32
SWIDTH 505 0
DWIDTH 46 0
BBX 0 0 0 0
BITMAP
ENDCHAR
STARTCHAR 0021
ENCODING 33
SWIDTH 395 0
DWIDTH 36 0
BBX 28 91 0 -13
BITMAP
FFFFFFF0
FFFFFFF0
FFFFFFF0
FFFFFFF0
FFFFFFF0
FFFFFFF0
FFFFFFF0
FFFFFFF0
FFFFFFF0
FFFFFFF0
FFFFFFF0
FFFFFFF0
FFFFFFF0
FFFFFFF0
FFFFFFF0
FFFFFFF0
FFFFFFF0
FFFFFFF0
FFFFFFF0
FFFFFFF0
FFFFFFF0
FFFFFFF0
FFFFFFF0
FFFFFFF0
FFFFFFF0
FFFFFFF0
FFFFFFF0
FFFFFFF0
FFFFFFF0
FFFFFFF0
FFFFFFF0
FFFFFFF0
FFFFFFF0
FFFFFFF0
FFFFFFF0
FFFFFFF0
FFFFFFF0
FFFFFFF0
FFFFFFF0
FFFFFFF0
FFFFFFF0
FFFFFFF0
FFFFFFF0
FFFFFFF0
FFFFFFF0
FFFFFFF0
FFFFFFF0
FFFFFFF0
FFFFFFF0
FFFFFFF0
FFFFFFF0
FFFFFFF0
FFFFFFF0
FFFFFFF0
FFFFFFF0
FFFFFFF0
FFFFFFF0
FFFFFFF0
FFFFFFF0
FFFFFFF0
FFFFFFF0
FFFFFFF0
FFFFFFF0
FFFFFFF0
FFFFFFF0
FFFFFFF0
FFFFFFF0
FFFFFFF0
FFFFFFF0
FFFFFFF0
00000000
00000000
00000000
00000000
00000000
00000000
00000000
FFFFFFF0
FFFFFFF0
FFFFFFF0
FFFFFFF0
FFFFFFF0
FFFFFFF0
FFFFFFF0
FFFFFFF0
FFFFFFF0
FFFFFFF0
FFFFFFF0
FFFFFFF0
FFFFFFF0
FFFFFFF0
ENDCHAR
STARTCHAR 0022
ENCODING 34
SWIDTH 505 0
DWIDTH 46 0
BBX 0 0 0 0
BITMAP
ENDCHAR
STARTCHAR 0023
ENCODING 35
SWIDTH 505 0
DWIDTH 46 0
BBX 0 0 0 0
BITMAP
ENDCHAR
STARTCHAR 0024
ENCODING 36
SWIDTH 505 0
DWIDTH 46 0
BBX 0 0 0 0
BITMAP
ENDCHAR
STARTCHAR 0025
ENCODING 37
SWIDTH 505 0
DWIDTH 46 0
BBX 0 0 0 0
BITMAP
ENDCHAR
STARTCHAR 0026
ENCODING 38
SWIDTH 505 0
DWIDTH 46 0
BBX 0 0 0 0
BITMAP
ENDCHAR
STARTCHAR 0027
ENCODING 39
SWIDTH 505 0
DWIDTH 46 0
BBX 0 0 0 0
BITMAP
ENDCHAR
STARTCHAR 0028
ENCODING 40
SWIDTH 1802 0
DWIDTH 164 0
BBX 161 87 0 -12
BITMAP
00000000000000000001E000000000000000000000
0000000000000000001FE000000000000000000000
000000000000000001FFF000000000000000000000
0000000000000000FFFFF000000000000000000000
0000000000000007FFFC7800000000000000000000
000000000000003FFFF03800000000000000000000
0000000000001FFFFBE07800000000000000000000
000000000001FFFFE1E07C00000000000000000000
00000000000FFFC780E07C00000000000000000000
0000000003FFFF0780E07C00000000000000000000
000000007FFFDE0380607C00000000000000000000
00000003FFFE070380607C00000000000000000000
0000001FFFF0030180207C00000000000000000000
00000FFFFC00038180207E00000000000000000000
0000FFFF7800038080207E00000000000000000000
0007FFF8380003C080207E00000000000000000000
007FFFF018000FC080007E00000000000000000000
00FFE3E018007FE042007F00000000000000000000
01FF81F0180F87E002007F00000000000000000000
03FF00F0180003F002007F00000000000000000000
03FF0070180003F001007F80000000000000000000
03FF0038180003F801007F80000000000000000000
03FF80181C0003F801007F80000000000000000000
03FF80080C000FFC01807F80000000000000000000
01FF80040C003CFC0181FF80000000000000000000
01F7C0000C03F0FE01C7FF00000000000000000000
01C1C0000E0380FE07FFFC00000000000000000000
0180C0000600007F1FFFF000000000000000000000
03A0E0400600007FFFFF0000000000000000000000
0660E0600700007FFFE00000000000000000000000
0820E030030001FFFC000000000000000000000000
13C0E03803001FFF80000000000000000000000000
15E3E03C0300FFFC00000000000000000000000000
24FFE03C07EFFFE000000000000000000000000000
28FFE01E1FFFFC0000000000000000000000000000
48FFF01FFFFF800000000000000000000000000000
507FF03FFFFF00000000000000000000000401F800
507FFFFFFEFFE00038000F83FF003FE000FE01F800
907FFFFFF03FF007FC007F83FF807FE000C3033C00
A03C0003C06038041C00C0C38180E1F00081060C00
A0180001C06018080E00C04380C0C0F00041861C00
A0100000E0C01C080E00C06180E1C1F00040CC1E00
A010000070C00E080F00C071C07381F80060DC3E00
9030000070C00F080F00C071C03303F80060783E00
9010078078800F080F80C078E01E07F80070387E00
90300F807D820F880F80C078E01E07F80030307F00
50100F007F8207C80FC0C07CF00C0FFC003810FF00
503000007F8207E80FC0C07C78000FFC003800FF00
48100000FF0707E80FE0C07E78001FFC003C01FF00
28100001FF0707F80FE0C07E3C003FFE001C00FF00
28300003FF0707F80FF0C07F3E003FFF801C00FF00
14100007FF0007F80FF0C07F1E007FFFE01C00FF00
12100007FF0003F803F8C07F0F007FF0E00C00FF00
1A100003FE0003F80078C0008F007FE0300C007E00
09100001FE0003F8000CC000C7807FE03008007E00
04B00000FE0001F8000EC00043807FC03008007C00
02700200FE0001F8000FC00063807FC03808007C00
01100700FE0001F8000FC000E1807FF03810003800
00F00600FC0001F8000FC000F1807FFFF810003800
00300600FC0001F8000FC00078807FFFFC10003000
00100700FC0001F8000FC000F8807FFFFC10001000
00100600FC0001F8000FC0007C807FFFFC20002000
00100600FC0000F8000FC000FD807FFFFC20001000
00300700F80000F8000FC000FF807F9FFE60001000
00300600F80000F8000FC0007F807F1FFE40301000
00100700F80000F8000FC0007F807E1FFE40300800
00300600F80000F8000FC000FF807E0FFEC0700800
00300700F80000F8000FC000FF807E0FFFC0700800
00100600F0000078000FC0007F807E07FF80780800
00100600F0000078000FC000FF807E07FF80F80400
00100600F0000078000FC000FF807E07FF81FC0400
00100600F000007C000FC000FFE0FE07FFC1FC0C00
00080701F80000FE001FE001FFFFFE0000FFFFFE00
00065FC3FFFFFFFFFFFFFFFFFFFFFE0000FFFFFE00
0007FFFFFFFFFFFFFFFFFFFFFE7FFE0000FFFFFE00
0003FFFFFFFFFFFFFFFFFFFFFE7FFE00007FFFFE00
0001FFFFFFFFFFFFFFFFFFFFFE3FFE00007FFFFF00
0000FFFFFFFFFFFFFFFFFFFFFE3FFE00007FFFFF00
00007FFFFFFFFFFFFFFFFFFFFE1FFE00003FFFFF00
00003FFFFFFFFFFFFFFFF3FFFE1FFE00003FFDFF80
00003FFFFFFFFFFFFFFFF3FFFE0FFE00003FFDFF80
00001FFFFFFFFFFFFFFFF1FFFE0FFF00001FF8FF80
00000FFFFFFFFFFFFFFFF0FFFE07FF00001FF8FF80
000007FFFFFFFFFFFFFFF0FFFE07FF00001FF87F80
000003FFFFFFFFFFE3FFF07FFE03FE00000FF07F80
000001FFFFE7FFFFC1FFF03FFE03FE00000FE02000
000000FC3FE3FFFFC0FFC000000000000000000000
ENDCHAR
STARTCHAR 0029
ENCODING 41
SWIDTH 505 0
DWIDTH 46 0
BBX 0 0 0 0
BITMAP
ENDCHAR
STARTCHAR 002A
ENCODING 42
SWIDTH 945 0
DWIDTH 86 0
BBX 83 87 2 -11
BITMAP
0000000000000040000000
0000000000000180000000
0000000000000600000000
00000000003FFC30000000
0000000001E07070020000
000000000700C0FC060000
000000000C01008E180000
0000000030000183B00000
00000000C0000300C18000
000000038000C001830000
000000060003C006060000
0000000C0007C00C040000
00000018001FC0100E0000
00000030003F8060190000
00000020007F00C0118000
00000040007E0100008000
0C0000C000FE0600004000
FC00008000FC0800002000
FE00018000781030003000
FF000100003860C0001000
7F80030007108300001000
7FC0020007E00C00000800
3FE00200FFC03000000800
1FFE0400DFC0C000000800
1FFF84010783F800000400
3FFF8401038F0600000400
3FFF88C100C00000000200
3FFFC8E180200000000200
7FFFC8F0E0000000000600
7FFFD8F030000000200600
3FFFD8F81C000000F07E00
3FFFC8FE07000003F08600
1FFFC8FF0000000FE10600
1FFFD8FFC000003FC10600
1FFFF8FFF00001FF813E00
0FFFF87FFE001FFF025E00
0FFF887FFFFFFFFF024E00
0FFF087FFFFFFFFE028600
07F8043FFFFFFFFC024700
03E01C3FFFFFFFF8024380
00407C1FFFFFFFF81E2180
0060C60FFFFFFFF03F98C0
0023060FFFFFFFE03FF0C0
001C0307FFFFFFC03FF0E0
00000107FFFFFF807FE1E0
00000183FFFFFF807FFBC0
00000083FFFFFC007FFF80
00000041FFFFF800FFFE00
00000060FFFFE000FFFE00
000000203FFFC001FFFF00
000000100FFF0003FFFF00
0000001801E0000FFFFF00
0000000C0000001FFFFF00
000000070200003FFFFE00
00000001FD8000FFFFF800
00000000E04001FFFFE000
000000003E23FDFFFFC000
00000000391C03FFFFC000
0000000019EFE3FFFFC000
0000000010FE3FFFFFE000
0000000010FE1FFFFFC000
00000000787E187FFFC000
00000001FCFF0FFFFF8000
00000003FFFF8FFFFF8000
00000003FFFFBFFFFC0000
00000001FFFFFFFFE00000
00000001FFFFFFFC000000
00000001CFFFFFFC000000
0000000DEFFCFFFC000000
0000007FFFFCFFFC000000
000001FFFFFEFFFC000000
000007C7FFFFFFFC000000
00000F07FFFFFFFE000000
00000E1FFFFFFFFE000000
00001C3FFF1FFFFE000000
0000387FFE0FFFFE000000
00003CFFF83FFFFF000000
00003BFFF07FFFFF000000
000031FFF1FFFFFF000000
00001FFFF3FFFFFF000000
00001FFFEFFFFFFF000000
00001FFFC7FFFFFF000000
00000001C7FFFFFE000000
00000001FFFFFFF8000000
000000007FFFFFE0000000
000000007FFFFF00000000
0000000007FFF000000000
ENDCHAR
STARTCHAR 002B
ENCODING 43
SWIDTH 2065 0
DWIDTH 188 0
BBX 184 86 2 -10
BITMAP
0000000000000000000000040000000000000000000000
0000000000000000000000180000000000000000000000
000000000000007E000000300000000000000000000000
00000000000003FE000000700000040000000000000000
0000000000003FFC000001E0000003E000000000000000
000000000001FFFC000003C0000000F800000000000000
00000000001FFFF0100007800000003F18000000000000
00000000007FFFC010001F002000001FFFDC0000000000
0000000000FFFF0010407F00C0000003FFFF0000000000
0000000001FFFE0030C0FE03800000001FFFE000000000
0000000007FFFC0070C1FC1F0000200000FFF000000000
00000001FFFFF00071C3FF7E00004000001FFC00000000
00000000FFFFFC08F1C3FFFC000180000007FE00000000
000000001FFFFF18F387FFF8023E00000003FF00000000
0000000000FFFFF9E78FFFFFFFFC00000000FF00000000
0000000001FFFF81E7DFFFFFFFF8000000003F80000000
0000000003FFFE03EFFFFFFFFFF0000000001FC0000000
0000000007FFB807FFFFFFFFFFE0000000000FE0000000
0000000007FF1007FFFFFFFFFFFC01C0000007E0000000
0000000007FF0007FFFFFFFFFFFFFF80000007E0000000
0000000007FE0007FFFFFFFFFFFFFE00000007E0000000
0000000007FE0007FFFFFFFFFFFFFE00000007E0000000
000000000FFE0007FFFFFFFFFFFFFF800C0007E0000000
000000000FFE0007FFFF7FFEFFFFFFFFF00007E0000000
000000000FFC0007FFFE7FFCFFFFFFFFC00007E0000000
000000001FFC0007FFF83CFCFFFFFFFF80E00FE0000000
000000000FFC0007FF802CE0FFFFFFFFFF000FE0000000
000000000FFE0007FE006C61FFFFFFFFF8000FE0000000
000000000FFE000FFE01C863FFFFFFFFC0001FE0000000
000000000FFC000FFFF1C041FFFFFFF800003FE0000000
000000001FFE001FFFF18047FFFFFE0000003FC0000000
000000001FFF001FFFF184C1FFFFE0000000FFC0000000
000000001FFF803FFFF3CCFFFFFF00000000FF80000000
000000001FFFE07FFFF3EDFFFFFE00000001FF80000000
000000000FFFF0FFFFF3FDFFC0FC00000001FF00000000
0000000007FFFDFFFFFBFFCFC0FFE0000007FE00000000
0000000007FFFFFFFFFFBFC04C7FFC00000FFE00000000
0000000007FFFFFFFFFFBFC0CE3E7B8000FFFC00000000
0000000003FFFFFFFFFFB347C63CB87FFFFFF800000000
0000000003FFFFFE63971147C03D980FFFFFF800000000
0000000003FFFFFC007F1060407B88FFFFFFF000000000
0000000001FFFFF000EE8063C9F9C80FFFFFE000000000
0000000001FFFFF807EE4863C8F1C80FFFFFC000000000
0000000000FFFFFFC3EE446048F0C8FFFFFF8000000000
00000000007FFFFFC3CF24C1CCF81CFFFFFE0000000000
00000000003FFFFFC3C674EFEC7C3C7FFFFC0000000000
00000000000FFFFFE3C0FCFFFE7C7E7FFFF80000000000
000000000003FFFFE3F9FFFFFFFFFF7FFFE00000000000
000000000001FFFFF3FFFFFFFFFFFFFFFF000000000000
0000000000007FFFF7FFFFFFFFFFFFFF80000000000000
0000000000007FFFFFFFFFFFFFFFFFF800000000000000
0000000000007FFFFFFFFFFFC07F3FE000000000000000
000000000000FF3FFFFFFFF0007F1FC000000000000000
000000000001FFFFF000000000FF1FE000000000000000
000000000007FFFFE000000003FFBFF000000000000000
0000000001FFFFFFF80000007FFFFFFC00000000000000
0000000001FFFFFFFE000000FFFFFFFE00000000000000
003FFFE003FFFFFFFF807FC0FFFFFF3FFFF8000FFFF800
004127180E6FFFFFE1606041F83FCC30000400F0000400
0041FC0708267FCF81F04021F03FCC7000030380000400
0040680088022DC701D08023801986F020008600000400
00406800E800008300F08027800107F86000DC00008400
0040500078000083007080270000072E60317C0007CC00
004008003803F8030070803C000007E1E03FFE0000BC00
00401C003803FC030070803C007807C1F867FF00007400
00401FC038037C030070803C03F806C07E87DC0078B400
00401FE01803FC030070803C03F806C07FE3F007F81C00
00401FE01C03FC0300708032003806000FFFE000F83C00
00401FF01C0380070070803C0038060007FFF000F86400
00407FF81C00000700708030003806001DFFF800F80400
00409FF01C00000F00708030003806003F803C00F80400
00407FE01800000F80F88030003806002C003E00F80400
0041D7C01600001F80B4803007C006003E003F01E00400
00409F802600003FC0FE8030000006001F803F8F000C00
0041FF803E00007FFBBF00300000060007803FC4000C00
0041F5807E06003FFE0F00300000060064003FEC01CC00
0040E2007C06003FFE1C80300000070018003FF800FC00
00404000FC07369F580C80300000070000003FFE006C00
00400000F807BF6FF00F80300000050000003FFF80FC00
00400001E807E407F011803007F8970000003FFDF86400
00400003C7876003787880300038778000003FFEF85C00
0040000FFFF7F001FE7FF070003BFFF807FFFFFFFC3C00
FFFFFFFFFFFFFFFFFFFFFFFBFFFFFFFFFFFFFFFFFFFFFF
1FFFFFFFFFFFFFFFFFFFFFFFFFFFFFFFFFFFFFFFFFFFF8
03FFFFFFFFFFFFFFFFFFFFFFFFFFFFFFFFFFFFFFFFFF00
00FFFFFFFFFFFFFFFFFFFFFFFFFFFFFFFFFFFFFFFFFC00
ENDCHAR
STARTCHAR 002C
ENCODING 44
SWIDTH 505 0
DWIDTH 46 0
BBX 0 0 0 0
BITMAP
ENDCHAR
STARTCHAR 002D
ENCODING 45
SWIDTH 2945 0
DWIDTH 268 0
BBX 268 77 -2 -2
BITMAP
00000001FFFFFFFFFFFFFFFFFFFFFFFFFFFFFFFFFFFFFFFFFFFFFFFFFFFFFFFFFC00
00000003FFFFFFFFFFFFFFFFFFFFFFFFFFFFFFFFFFFFFFFFFFFFFFFFFFFFFFFFFE00
0000000FFFFFFFFFFFFFFFFFFFFFFFFFFFFFFFFFFFFFFFFFFFFFFFFFFFFFFFFFFF00
0000001FFFFFFFFFFFFFFFFFFFFFFFFFFFFFFFFFFFFFFFFFFFFFFFFFFFFFFFFFFF80
0000007FE00000007F00003E000FFFFFFFFFFFF0000018000000000000000001FFC0
000000FFF0000000FF80001F003F800003F07FF000003C000000000000000003FFE0
000003FFF8000001FFE0000F80FFC00003FF7FF000007E000000000000000007FFF0
000003FFFC000003FFF00007C0FFC00003FFFFF00000FF00003FF00003FF000FFFF0
000001FFFE000007FFF8000FF0FFC00007FFFFF00001FF80003FF00003FF001FFFE0
000000FFFF00000FFFF0001FF8FFC00007FFFFF00003FFC0003FF00003FF003FFFC0
0000007FFF80001FFFE0003FF87FE00007FFFFF00007FFC0003FF00003FF007FFF80
0000003FFFC0001FFFC0007FF07FE00007FFFFF0000FFFE0003FF00003FF00FFFE00
0000001FFFC0003FFF8000FFF07FE0000FFFFFF0001FFFF0003FF00003FF01FFFC00
0000000FFFE0007FFF0001FFE03FF0000FFFFFF0003FFFF8003FF00003FF03FFF800
00000007FFF000FFFE0003FFC03FF0000FFF7FF0007FFFFC003FF00003FF07FFF000
00000003FFF801FFFC0003FF803FF0000FFF7FF000FFFFFE003FF00003FF0FFFE000
00000001FFFC03FFF80007FF001FF8001FFF7FF000FFFFFF003FF00003FF1FFF8000
00000000FFFE07FFF0000FFE001FF8001FFE7FF001FFFFFF803FF00003FF3FFF0000
00000000FFFF0FFFE0001FFE001FF8001FFE7FF003FFFFFFC03FF00003FF7FFE0000
000000007FFF8FFFC0003FFC000FF8001FFC7FF007FFEFFFC03FF00003FFFFFC0000
000000003FFFDFFF80007FF8000FFC003FFC7FF00FFFC7FFE03FF00003FFFFF80000
000000001FFFFFFF0000FFF00007FC003FFC7FF01FFFC3FFF03FF00003FFFFF00000
000000000FFFFFFE0001FFE00007FC003FF87FF03FFF81FFF83FF00003FFFFF80000
0000000007FFFFFC0003FFC00007FE003FF87FF07FFF00FFFC3FF00003FFFFFC0000
0000000003FFFFF80007FF8000FFFE007FF87FF0FFFE007FFE3FF00003FF7FFE0000
0000000001FFFFF0000FFFFFFFFFFE007FF07FF1FFFC003FFF3FF00003FF3FFE0000
0000000000FFFFE0001FFFFFFFFFFF007FF07FF3FFF8001FFFBFF00003FF1FFF0000
00000000007FFFC0003FFFFFFFFFFF007FF07FF7FFF00007FFFFF00003FF0FFF8000
00000000003FFFC0007FFFFFFFFFFF00FFE07FFFFFE00003FFFFF00003FF07FFC000
00000000007FFFC000FFFFFFFFFFFF80FFE07FFFFFC00001FFFFF00003FF03FFE000
0000000000FFFFE000FFFFFFFFFFFF80FFC07FFFFFC00001FFFFF00003FF03FFF000
0000000001FFFFF0007FFFFFFFFFFF80FFC07FFFFFE00003FFFFF00003FF01FFF800
0000000003FFFFF8007FFFFFFFFFFF81FFC07FFFFFF00007FFFFF00003FF00FFFC00
0000000007FFFFFC003FFE000000FFC1FF807FFFFFF8000FFFFFF00003FF007FFC00
000000000FFFFFFE001FFF0000007FC1FF807FFFFFFC001FFFFFF80007FF003FFE00
000000001FFFFFFF000FFF8000007FC1FF807FFFFFFE003FFFFFFC000FFF001FFF00
000000003FFF9FFF8007FF8000007FE3FF007FF7FFFF007FFFFFFF001FFF001FFF80
000000007FFF0FFFC003FFC000003FE3FF007FF3FFFFC0FFFFFFFF803FFF000FFFC0
00000000FFFE07FFE001FFE000003FE3FF007FF1FFFFE1FFFFFFFFC07FFF0007FFE0
00000001FFFC03FFF000FFF000003FF3FE007FF07FFFF3FFFF1FFFE0FFFF0003FFF0
00000003FFF801FFF8007FF800001FF7FE007FF03FFFFFFFFC0FFFF1FFFE0001FFF0
00000007FFF000FFFC003FF800001FF7FC007FF01FFFFFFFF807FFF9FFFC0003FFF0
0000000FFFE0007FFE001FFC00001FF7FC007FF00FFFFFFFF003FFFFFFF80007FFE0
0000001FFFC0003FFF000FFE00000FFFFC007FF007FFFFFFE001FFFFFFF0000FFFC0
0000003FFF80001FFF8007FF00000FFFF8007FF003FFFFFFC000FFFFFFE0001FFF80
0000007FFF00001FFFC003FF80000FFFF8007FF001FFFFFF80007FFFFFC0003FFF00
000001FFFE00000FFFE001FFC00007FFF8007FF0007FFFFF00003FFFFF80007FFE00
000003FFFC000007FFF001FFC00007FFF0007FF0003FFFFE00001FFFFF0000FFF800
000007FFF8000003FFF800FFE00007FFF0007FF0001FFFFC00000FFFFF0003FFF000
00000FFFF0000001FFFC007FF00003FFF0007FF0000FFFF8000007FFFE0007FFE000
00001FFFE0000000FFF8003FF80003FFE0007FF00007FFE0000003FFFC000FFFC000
00003FFFC00000007FF0001FFC0003FFE0007FF00003FFC0000001FFF8001FFF8000
00007FFF800000003FE0000FF80001FFC0007FF00001FF80000000FFF0003FFF0000
0000FFFF000000001F800007F00001FFC0007FF000007F000000007FE0007FFE0000
0001FFFE000000000F000003E00000000000000000003E000000003FC000FFFC0000
0003FFFFFFFFFFFFFFFFFFFFFFFFC00000000000001FFFFFFFFFFFFFFFFFFFF80000
0007FFFFFFFFFFFFFFFFFFFFFFFFF00000000000003FFFFFFFFFFFFFFFFFFFF00000
000FFFFFFFFFFFFFFFFFFFFFFFFFF8000000000000FFFFFFFFFFFFFFFFFFFFE00000
001FFFFFFFFFFFFFFFFFFFFFFFFFFC000000000003FFFFFFFFFFFFFFFFFFFFC00000
003FFFFFFFFFFFFFFFFFFFFFFFFFFE000000000007FFFFFFFFFFFFFFFFFFFF800000
007FFFFFFFFFFFFFFFFFFFFFFFFFFF00000000001FFFFFFFFFFFFFFFFFFFFF000000
00FFFF0000000000000000000003FFFFFFFFFFFFFFFF000000000000000000000000
01FFFE0000000000000000000001FFFFFFFFFFFFFFFC000000000000000000000000
03FFFC0000000000000000000000FFFFFFFFFFFFFFF8000000000000000000000000
07FFF800000000000000000000007FFFFFFFFFFFFFF0000000000000000000000000
0FFFF000000000000000000000003FFFFFFFFFFFFFC0000000000000000000000000
1FFFE000000000000000000000000000000000000000000000000000000000000000
3FFFC000000000000000000000000000000000000000000000000000000000000000
7FFF8000000000000000000000000000000000000000000000000000000000000000
FFFF0000000000000000000000000000000000000000000000000000000000000000
7FFE0000000000000000000000000000000000000000000000000000000000000000
3FFC0000000000000000000000000000000000000000000000000000000000000000
1FF80000000000000000000000000000000000000000000000000000000000000000
0FF00000000000000000000000000000000000000000000000000000000000000000
07E00000000000000000000000000000000000000000000000000000000000000000
03C00000000000000000000000000000000000000000000000000000000000000000
01800000000000000000000000000000000000000000000000000000000000000000
ENDCHAR
STARTCHAR 002E
ENCODING 46
SWIDTH 505 0
DWIDTH 46 0
BBX 0 0 0 0
BITMAP
ENDCHAR
STARTCHAR 002F
ENCODING 47
SWIDTH 505 0
DWIDTH 46 0
BBX 0 0 0 0
BITMAP
ENDCHAR
STARTCHAR 0030
ENCODING 48
SWIDTH 1318 0
DWIDTH 120 0
BBX 111 91 -3 -13
BITMAP
0000003FFFFFFFFFFFFFFF000000
00000FFFFFFFFFFFFFFFFFF00000
00007FFFFFFFFFFFFFFFFFFE0000
0000FFFFFFFFFFFFFFFFFFFF0000
0003FFFFFFFFFFFFFFFFFFFFC000
0007FFFFFFFFFFFFFFFFFFFFF000
001FFFFFFFFFFFFFFFFFFFFFF800
003FFFFFFFFFFFFFFFFFFFFFFC00
00FFFFFFFFFFFFFFFFFFFFFFFE00
01FFFFFFFFFFFFFFFFFFFFFFFF00
03FFFFFFFFFFFFFFFFFFFFFFFF80
03FFFFFFFFFFFFFFFFFFFFFFFF80
07FFFFFFFFFFFFFFFFFFFFFFFFC0
0FFFFFFFFFFFFFFFFFFFFFFFFFE0
0FFFFFFFFFFFFFFFFFFFFFFFFFE0
1FFFFFFFFFFFFFFFFFFFFFFFFFF0
1FFFFFFFFFFFFFFFFFFFFFFFFFF0
3FFFFFFFFFFFFFFFFFFFFFFFFFF8
3FFFFFFFFFFFFFFFFFFFFFFFFFF8
7FFFFFFFFFFFFFFFFFFFFFFFFFFC
7FFFFFFFFFFFFFFFFFFFFFFFFFFC
7FFFFFFFFFFFFFFFFFFFFFFFFFFE
7FFFFFFFFFFFFFFFFFFFFFFFFFFE
FFFFFFFFFFFFFFFFFFFFFFFFFFFE
FFFFFFFFFFFFFFFFFFFFFFFFFFFE
FFFFFFFFFFFFFFFFFFFFFFFFFFFE
FFFFFFFFFFFFFFFFFFFFFFFFFFFE
FFFFFFFFFFFFFFFFFFFFFFFFFFFE
FFFFFFF00000000000001FFFFFFE
FFFFFFF00000000000001FFFFFFE
FFFFFFF00000000000001FFFFFFE
FFFFFFF00000000000001FFFFFFE
FFFFFFF00000000000001FFFFFFE
FFFFFFF00000000000001FFFFFFE
FFFFFFF00000000000001FFFFFFE
FFFFFFF0007FFFFFFC001FFFFFFE
FFFFFFF0007FFFFFFC001FFFFFFE
FFFFFFF0007FFFFFFC001FFFFFFE
FFFFFFF0007FFFFFFC001FFFFFFE
FFFFFFF0007FFFFFFC001FFFFFFE
FFFFFFF0007FFFFFFC001FFFFFFE
FFFFFFF0007FFFFFFC001FFFFFFE
FFFFFFF0007FFFFFFC001FFFFFFE
FFFFFFF0007FFFFFFC001FFFFFFE
FFFFFFF0007FFFFFFC001FFFFFFE
FFFFFFF0007FFFFFFC001FFFFFFE
FFFFFFF0007FFFFFFC001FFFFFFE
FFFFFFF0007FFFFFFC001FFFFFFE
FFFFFFF0007FFFFFFC001FFFFFFE
FFFFFFF0007FFFFFFC001FFFFFFE
FFFFFFF0007FFFFFFC001FFFFFFE
FFFFFFF0007FFFFFFC001FFFFFFE
FFFFFFF0007FFFFFFC001FFFFFFE
FFFFFFF0007FFFFFFC001FFFFFFE
FFFFFFF0007FFFFFFC001FFFFFFE
FFFFFFF0007FFFFFFC001FFFFFFE
FFFFFFF00000000000001FFFFFFE
FFFFFFF00000000000001FFFFFFE
FFFFFFF00000000000001FFFFFFE
FFFFFFF00000000000001FFFFFFE
FFFFFFF00000000000001FFFFFFE
FFFFFFF00000000000001FFFFFFE
FFFFFFF00000000000001FFFFFFE
FFFFFFFFFFFFFFFFFFFFFFFFFFFE
FFFFFFFFFFFFFFFFFFFFFFFFFFFE
FFFFFFFFFFFFFFFFFFFFFFFFFFFE
FFFFFFFFFFFFFFFFFFFFFFFFFFFE
7FFFFFFFFFFFFFFFFFFFFFFFFFFE
7FFFFFFFFFFFFFFFFFFFFFFFFFFE
7FFFFFFFFFFFFFFFFFFFFFFFFFFC
7FFFFFFFFFFFFFFFFFFFFFFFFFFC
3FFFFFFFFFFFFFFFFFFFFFFFFFFC
3FFFFFFFFFFFFFFFFFFFFFFFFFF8
3FFFFFFFFFFFFFFFFFFFFFFFFFF8
1FFFFFFFFFFFFFFFFFFFFFFFFFF8
0FFFFFFFFFFFFFFFFFFFFFFFFFF0
0FFFFFFFFFFFFFFFFFFFFFFFFFF0
07FFFFFFFFFFFFFFFFFFFFFFFFE0
03FFFFFFFFFFFFFFFFFFFFFFFFC0
03FFFFFFFFFFFFFFFFFFFFFFFF80
01FFFFFFFFFFFFFFFFFFFFFFFF80
00FFFFFFFFFFFFFFFFFFFFFFFF00
007FFFFFFFFFFFFFFFFFFFFFFE00
003FFFFFFFFFFFFFFFFFFFFFFC00
001FFFFFFFFFFFFFFFFFFFFFF000
000FFFFFFFFFFFFFFFFFFFFFC000
0007FFFFFFFFFFFFFFFFFFFF8000
0001FFFFFFFFFFFFFFFFFFFE0000
00007FFFFFFFFFFFFFFFFFFC0000
00000FFFFFFFFFFFFFFFFFE00000
000000FFFFFFFFFFFFFFFE000000
ENDCHAR
STARTCHAR 0031
ENCODING 49
SWIDTH 714 0
DWIDTH 65 0
BBX 56 91 -3 -12
BITMAP
FFFFFFFF000000
FFFFFFFFF80000
FFFFFFFFFE0000
FFFFFFFFFF8000
FFFFFFFFFFE000
FFFFFFFFFFF000
FFFFFFFFFFF800
FFFFFFFFFFFC00
FFFFFFFFFFFE00
FFFFFFFFFFFF00
FFFFFFFFFFFFC0
FFFFFFFFFFFFC0
FFFFFFFFFFFFE0
FFFFFFFFFFFFE0
FFFFFFFFFFFFF0
FFFFFFFFFFFFF0
FFFFFFFFFFFFF8
FFFFFFFFFFFFFC
FFFFFFFFFFFFFC
FFFFFFFFFFFFFC
FFFFFFFFFFFFFE
FFFFFFFFFFFFFE
FFFFFFFFFFFFFE
FFFFFFFFFFFFFE
FFFFFFFFFFFFFF
FFFFFFFFFFFFFF
FFFFFFFFFFFFFF
FFFFFFFFFFFFFF
0000000FFFFFFF
0000000FFFFFFF
0000000FFFFFFF
0000000FFFFFFF
0000000FFFFFFF
0000000FFFFFFF
0000000FFFFFFF
0000000FFFFFFF
0000000FFFFFFF
0000000FFFFFFF
0000000FFFFFFF
0000000FFFFFFF
0000000FFFFFFF
0000000FFFFFFF
0000000FFFFFFF
0000000FFFFFFF
0000000FFFFFFF
0000000FFFFFFF
0000000FFFFFFF
0000000FFFFFFF
0000000FFFFFFF
0000000FFFFFFF
0000000FFFFFFF
0000000FFFFFFF
0000000FFFFFFF
0000000FFFFFFF
0000000FFFFFFF
0000000FFFFFFF
0000000FFFFFFF
0000000FFFFFFF
0000000FFFFFFF
0000000FFFFFFF
0000000FFFFFFF
0000000FFFFFFF
0000000FFFFFFF
0000000FFFFFFF
0000000FFFFFFF
0000000FFFFFFF
0000000FFFFFFF
0000000FFFFFFF
0000000FFFFFFF
0000000FFFFFFF
0000000FFFFFFF
0000000FFFFFFF
0000000FFFFFFF
0000000FFFFFFF
0000000FFFFFFF
0000000FFFFFFF
0000000FFFFFFF
0000000FFFFFFF
0000000FFFFFFF
0000000FFFFFFF
0000000FFFFFFF
0000000FFFFFFF
0000000FFFFFFF
0000000FFFFFFF
0000000FFFFFFF
0000000FFFFFFF
0000000FFFFFFF
0000000FFFFFFF
0000000FFFFFFF
0000000FFFFFFF
0000000FFFFFFF
ENDCHAR
STARTCHAR 0032
ENCODING 50
SWIDTH 1318 0
DWIDTH 120 0
BBX 111 91 -3 -13
BITMAP
FFFFFFFFFFFFFFFFFFFFFF000000
FFFFFFFFFFFFFFFFFFFFFFF80000
FFFFFFFFFFFFFFFFFFFFFFFF0000
FFFFFFFFFFFFFFFFFFFFFFFFC000
FFFFFFFFFFFFFFFFFFFFFFFFF000
FFFFFFFFFFFFFFFFFFFFFFFFF800
FFFFFFFFFFFFFFFFFFFFFFFFFE00
FFFFFFFFFFFFFFFFFFFFFFFFFF00
FFFFFFFFFFFFFFFFFFFFFFFFFF80
FFFFFFFFFFFFFFFFFFFFFFFFFFC0
FFFFFFFFFFFFFFFFFFFFFFFFFFE0
FFFFFFFFFFFFFFFFFFFFFFFFFFF0
FFFFFFFFFFFFFFFFFFFFFFFFFFF0
FFFFFFFFFFFFFFFFFFFFFFFFFFF8
FFFFFFFFFFFFFFFFFFFFFFFFFFF8
FFFFFFFFFFFFFFFFFFFFFFFFFFFC
FFFFFFFFFFFFFFFFFFFFFFFFFFFC
FFFFFFFFFFFFFFFFFFFFFFFFFFFE
FFFFFFFFFFFFFFFFFFFFFFFFFFFE
FFFFFFFFFFFFFFFFFFFFFFFFFFFE
FFFFFFFFFFFFFFFFFFFFFFFFFFFE
000000000000000000000FFFFFFE
000000000000000000000FFFFFFE
000000000000000000000FFFFFFE
000000000000000000000FFFFFFE
000000000000000000000FFFFFFE
000000000000000000000FFFFFFE
000000000000000000000FFFFFFE
000000000000000000000FFFFFFE
000000000000000000000FFFFFFE
000000000000000000000FFFFFFE
000000000000000000000FFFFFFE
000000000000000000000FFFFFFE
000000000000000000000FFFFFFE
000000000000000000000FFFFFFE
000003FFFFFFFFFFFFFFFFFFFFFE
00003FFFFFFFFFFFFFFFFFFFFFFE
0000FFFFFFFFFFFFFFFFFFFFFFFE
0003FFFFFFFFFFFFFFFFFFFFFFFE
0007FFFFFFFFFFFFFFFFFFFFFFFE
001FFFFFFFFFFFFFFFFFFFFFFFFC
007FFFFFFFFFFFFFFFFFFFFFFFFC
00FFFFFFFFFFFFFFFFFFFFFFFFF8
03FFFFFFFFFFFFFFFFFFFFFFFFF8
07FFFFFFFFFFFFFFFFFFFFFFFFF0
0FFFFFFFFFFFFFFFFFFFFFFFFFE0
1FFFFFFFFFFFFFFFFFFFFFFFFFC0
1FFFFFFFFFFFFFFFFFFFFFFFFF80
3FFFFFFFFFFFFFFFFFFFFFFFFF00
3FFFFFFFFFFFFFFFFFFFFFFFFC00
7FFFFFFFFFFFFFFFFFFFFFFFF800
7FFFFFFFFFFFFFFFFFFFFFFFE000
7FFFFFFFFFFFFFFFFFFFFFFFC000
FFFFFFFFFFFFFFFFFFFFFFFF0000
FFFFFFFFFFFFFFFFFFFFFFF80000
FFFFFFFFFFFFFFFFFFFFFFC00000
FFFFFFF000000000000000000000
FFFFFFF000000000000000000000
FFFFFFF000000000000000000000
FFFFFFF000000000000000000000
FFFFFFF000000000000000000000
FFFFFFF000000000000000000000
FFFFFFF000000000000000000000
FFFFFFF000000000000000000000
FFFFFFF000000000000000000000
FFFFFFF000000000000000000000
FFFFFFF000000000000000000000
FFFFFFF000000000000000000000
FFFFFFF000000000000000000000
FFFFFFF000000000000000000000
FFFFFFFFFFFFFFFFFFFFFFFFFFFE
FFFFFFFFFFFFFFFFFFFFFFFFFFFE
FFFFFFFFFFFFFFFFFFFFFFFFFFFE
FFFFFFFFFFFFFFFFFFFFFFFFFFFE
FFFFFFFFFFFFFFFFFFFFFFFFFFFE
FFFFFFFFFFFFFFFFFFFFFFFFFFFE
FFFFFFFFFFFFFFFFFFFFFFFFFFFE
FFFFFFFFFFFFFFFFFFFFFFFFFFFE
FFFFFFFFFFFFFFFFFFFFFFFFFFFE
FFFFFFFFFFFFFFFFFFFFFFFFFFFE
FFFFFFFFFFFFFFFFFFFFFFFFFFFE
FFFFFFFFFFFFFFFFFFFFFFFFFFFE
FFFFFFFFFFFFFFFFFFFFFFFFFFFE
FFFFFFFFFFFFFFFFFFFFFFFFFFFE
FFFFFFFFFFFFFFFFFFFFFFFFFFFE
FFFFFFFFFFFFFFFFFFFFFFFFFFFE
FFFFFFFFFFFFFFFFFFFFFFFFFFFE
FFFFFFFFFFFFFFFFFFFFFFFFFFFE
FFFFFFFFFFFFFFFFFFFFFFFFFFFE
FFFFFFFFFFFFFFFFFFFFFFFFFFFE
FFFFFFFFFFFFFFFFFFFFFFFFFFFE
ENDCHAR
STARTCHAR 0033
ENCODING 51
SWIDTH 1318 0
DWIDTH 120 0
BBX 111 91 -3 -13
BITMAP
FFFFFFFFFFFFFFFFFFFFFF800000
FFFFFFFFFFFFFFFFFFFFFFF80000
FFFFFFFFFFFFFFFFFFFFFFFF0000
FFFFFFFFFFFFFFFFFFFFFFFFC000
FFFFFFFFFFFFFFFFFFFFFFFFF000
FFFFFFFFFFFFFFFFFFFFFFFFF800
FFFFFFFFFFFFFFFFFFFFFFFFFE00
FFFFFFFFFFFFFFFFFFFFFFFFFF00
FFFFFFFFFFFFFFFFFFFFFFFFFF80
FFFFFFFFFFFFFFFFFFFFFFFFFFC0
FFFFFFFFFFFFFFFFFFFFFFFFFFE0
FFFFFFFFFFFFFFFFFFFFFFFFFFE0
FFFFFFFFFFFFFFFFFFFFFFFFFFF0
FFFFFFFFFFFFFFFFFFFFFFFFFFF8
FFFFFFFFFFFFFFFFFFFFFFFFFFF8
FFFFFFFFFFFFFFFFFFFFFFFFFFFC
FFFFFFFFFFFFFFFFFFFFFFFFFFFC
FFFFFFFFFFFFFFFFFFFFFFFFFFFE
FFFFFFFFFFFFFFFFFFFFFFFFFFFE
FFFFFFFFFFFFFFFFFFFFFFFFFFFE
FFFFFFFFFFFFFFFFFFFFFFFFFFFE
000000000000000000000FFFFFFE
000000000000000000000FFFFFFE
000000000000000000000FFFFFFE
000000000000000000000FFFFFFE
000000000000000000000FFFFFFE
000000000000000000000FFFFFFE
000000000000000000000FFFFFFE
000000000000000000000FFFFFFE
000000000000000000000FFFFFFE
000000000000000000000FFFFFFE
000000000000000000000FFFFFFE
000000000000000000000FFFFFFE
000000000000000000000FFFFFFE
000000000000000000000FFFFFFE
0000000FFFFFFFFFFFFFFFFFFFFE
0000000FFFFFFFFFFFFFFFFFFFFE
0000000FFFFFFFFFFFFFFFFFFFFE
0000000FFFFFFFFFFFFFFFFFFFFE
0000000FFFFFFFFFFFFFFFFFFFFE
0000000FFFFFFFFFFFFFFFFFFFFC
0000000FFFFFFFFFFFFFFFFFFFFC
0000000FFFFFFFFFFFFFFFFFFFF8
0000000FFFFFFFFFFFFFFFFFFFF8
0000000FFFFFFFFFFFFFFFFFFFF0
0000000FFFFFFFFFFFFFFFFFFFE0
0000000FFFFFFFFFFFFFFFFFFFF0
0000000FFFFFFFFFFFFFFFFFFFF8
0000000FFFFFFFFFFFFFFFFFFFF8
0000000FFFFFFFFFFFFFFFFFFFFC
0000000FFFFFFFFFFFFFFFFFFFFC
0000000FFFFFFFFFFFFFFFFFFFFE
0000000FFFFFFFFFFFFFFFFFFFFE
0000000FFFFFFFFFFFFFFFFFFFFE
0000000FFFFFFFFFFFFFFFFFFFFE
0000000FFFFFFFFFFFFFFFFFFFFE
000000000000000000000FFFFFFE
000000000000000000000FFFFFFE
000000000000000000000FFFFFFE
000000000000000000000FFFFFFE
000000000000000000000FFFFFFE
000000000000000000000FFFFFFE
000000000000000000000FFFFFFE
000000000000000000000FFFFFFE
000000000000000000000FFFFFFE
000000000000000000000FFFFFFE
000000000000000000000FFFFFFE
000000000000000000000FFFFFFE
000000000000000000000FFFFFFE
000000000000000000000FFFFFFE
FFFFFFFFFFFFFFFFFFFFFFFFFFFE
FFFFFFFFFFFFFFFFFFFFFFFFFFFE
FFFFFFFFFFFFFFFFFFFFFFFFFFFE
FFFFFFFFFFFFFFFFFFFFFFFFFFFE
FFFFFFFFFFFFFFFFFFFFFFFFFFFE
FFFFFFFFFFFFFFFFFFFFFFFFFFFC
FFFFFFFFFFFFFFFFFFFFFFFFFFFC
FFFFFFFFFFFFFFFFFFFFFFFFFFF8
FFFFFFFFFFFFFFFFFFFFFFFFFFF0
FFFFFFFFFFFFFFFFFFFFFFFFFFF0
FFFFFFFFFFFFFFFFFFFFFFFFFFE0
FFFFFFFFFFFFFFFFFFFFFFFFFFC0
FFFFFFFFFFFFFFFFFFFFFFFFFF80
FFFFFFFFFFFFFFFFFFFFFFFFFE00
FFFFFFFFFFFFFFFFFFFFFFFFFC00
FFFFFFFFFFFFFFFFFFFFFFFFF000
FFFFFFFFFFFFFFFFFFFFFFFFE000
FFFFFFFFFFFFFFFFFFFFFFFF8000
FFFFFFFFFFFFFFFFFFFFFFFE0000
FFFFFFFFFFFFFFFFFFFFFFF80000
FFFFFFFFFFFFFFFFFFFFFF000000
ENDCHAR
STARTCHAR 0034
ENCODING 52
SWIDTH 1318 0
DWIDTH 120 0
BBX 111 91 -3 -13
BITMAP
FFFFFFF00000000000001FFFFFFE
FFFFFFF00000000000001FFFFFFE
FFFFFFF00000000000001FFFFFFE
FFFFFFF00000000000001FFFFFFE
FFFFFFF00000000000001FFFFFFE
FFFFFFF00000000000001FFFFFFE
FFFFFFF00000000000001FFFFFFE
FFFFFFF00000000000001FFFFFFE
FFFFFFF00000000000001FFFFFFE
FFFFFFF00000000000001FFFFFFE
FFFFFFF00000000000001FFFFFFE
FFFFFFF00000000000001FFFFFFE
FFFFFFF00000000000001FFFFFFE
FFFFFFF00000000000001FFFFFFE
FFFFFFF00000000000001FFFFFFE
FFFFFFF00000000000001FFFFFFE
FFFFFFF00000000000001FFFFFFE
FFFFFFF00000000000001FFFFFFE
FFFFFFF00000000000001FFFFFFE
FFFFFFF00000000000001FFFFFFE
FFFFFFF00000000000001FFFFFFE
FFFFFFF00000000000001FFFFFFE
FFFFFFF00000000000001FFFFFFE
FFFFFFF00000000000001FFFFFFE
FFFFFFF00000000000001FFFFFFE
FFFFFFF00000000000001FFFFFFE
FFFFFFF00000000000001FFFFFFE
FFFFFFF00000000000001FFFFFFE
FFFFFFF00000000000001FFFFFFE
FFFFFFF00000000000001FFFFFFE
FFFFFFF00000000000001FFFFFFE
FFFFFFF00000000000001FFFFFFE
FFFFFFF00000000000001FFFFFFE
FFFFFFF00000000000001FFFFFFE
FFFFFFF00000000000001FFFFFFE
FFFFFFFFFFFFFFFFFFFFFFFFFFFE
FFFFFFFFFFFFFFFFFFFFFFFFFFFE
FFFFFFFFFFFFFFFFFFFFFFFFFFFE
FFFFFFFFFFFFFFFFFFFFFFFFFFFE
FFFFFFFFFFFFFFFFFFFFFFFFFFFE
7FFFFFFFFFFFFFFFFFFFFFFFFFFE
7FFFFFFFFFFFFFFFFFFFFFFFFFFE
7FFFFFFFFFFFFFFFFFFFFFFFFFFE
7FFFFFFFFFFFFFFFFFFFFFFFFFFE
3FFFFFFFFFFFFFFFFFFFFFFFFFFE
3FFFFFFFFFFFFFFFFFFFFFFFFFFE
1FFFFFFFFFFFFFFFFFFFFFFFFFFE
0FFFFFFFFFFFFFFFFFFFFFFFFFFE
0FFFFFFFFFFFFFFFFFFFFFFFFFFE
07FFFFFFFFFFFFFFFFFFFFFFFFFE
03FFFFFFFFFFFFFFFFFFFFFFFFFE
03FFFFFFFFFFFFFFFFFFFFFFFFFE
01FFFFFFFFFFFFFFFFFFFFFFFFFE
01FFFFFFFFFFFFFFFFFFFFFFFFFE
00FFFFFFFFFFFFFFFFFFFFFFFFFE
007FFFFFFFFFFFFFFFFFFFFFFFFE
001FFFFFFFFFFFFFFFFFFFFFFFFE
000FFFFFFFFFFFFFFFFFFFFFFFFE
0007FFFFFFFFFFFFFFFFFFFFFFFE
0001FFFFFFFFFFFFFFFFFFFFFFFE
00007FFFFFFFFFFFFFFFFFFFFFFE
00001FFFFFFFFFFFFFFFFFFFFFFE
000001FFFFFFFFFFFFFFFFFFFFFE
000000000000000000001FFFFFFE
000000000000000000001FFFFFFE
000000000000000000001FFFFFFE
000000000000000000001FFFFFFE
000000000000000000001FFFFFFE
000000000000000000001FFFFFFE
000000000000000000001FFFFFFE
000000000000000000001FFFFFFE
000000000000000000001FFFFFFE
000000000000000000001FFFFFFE
000000000000000000001FFFFFFE
000000000000000000001FFFFFFE
000000000000000000001FFFFFFE
000000000000000000001FFFFFFE
000000000000000000001FFFFFFE
000000000000000000001FFFFFFE
000000000000000000001FFFFFFE
000000000000000000001FFFFFFE
000000000000000000001FFFFFFE
000000000000000000001FFFFFFE
000000000000000000001FFFFFFE
000000000000000000001FFFFFFE
000000000000000000001FFFFFFE
000000000000000000001FFFFFFE
000000000000000000001FFFFFFE
000000000000000000001FFFFFFE
000000000000000000001FFFFFFE
000000000000000000001FFFFFFE
ENDCHAR
STARTCHAR 0035
ENCODING 53
SWIDTH 1318 0
DWIDTH 120 0
BBX 112 91 -3 -13
BITMAP
FFFFFFFFFFFFFFFFFFFFFFFFFFFF
FFFFFFFFFFFFFFFFFFFFFFFFFFFF
FFFFFFFFFFFFFFFFFFFFFFFFFFFF
FFFFFFFFFFFFFFFFFFFFFFFFFFFF
FFFFFFFFFFFFFFFFFFFFFFFFFFFF
FFFFFFFFFFFFFFFFFFFFFFFFFFFF
FFFFFFFFFFFFFFFFFFFFFFFFFFFF
FFFFFFFFFFFFFFFFFFFFFFFFFFFF
FFFFFFFFFFFFFFFFFFFFFFFFFFFF
FFFFFFFFFFFFFFFFFFFFFFFFFFFF
FFFFFFFFFFFFFFFFFFFFFFFFFFFF
FFFFFFFFFFFFFFFFFFFFFFFFFFFF
FFFFFFFFFFFFFFFFFFFFFFFFFFFF
FFFFFFFFFFFFFFFFFFFFFFFFFFFF
FFFFFFFFFFFFFFFFFFFFFFFFFFFF
FFFFFFFFFFFFFFFFFFFFFFFFFFFF
FFFFFFFFFFFFFFFFFFFFFFFFFFFF
FFFFFFFFFFFFFFFFFFFFFFFFFFFF
FFFFFFFFFFFFFFFFFFFFFFFFFFFF
FFFFFFFFFFFFFFFFFFFFFFFFFFFF
FFFFFFFFFFFFFFFFFFFFFFFFFFFF
FFFFFFF000000000000000000000
FFFFFFF000000000000000000000
FFFFFFF000000000000000000000
FFFFFFF000000000000000000000
FFFFFFF000000000000000000000
FFFFFFF000000000000000000000
FFFFFFF000000000000000000000
FFFFFFF000000000000000000000
FFFFFFF000000000000000000000
FFFFFFF000000000000000000000
FFFFFFF000000000000000000000
FFFFFFF000000000000000000000
FFFFFFF000000000000000000000
FFFFFFF000000000000000000000
FFFFFFFFFFFFFFFFFFFFFF800000
FFFFFFFFFFFFFFFFFFFFFFFC0000
FFFFFFFFFFFFFFFFFFFFFFFF0000
FFFFFFFFFFFFFFFFFFFFFFFFC000
7FFFFFFFFFFFFFFFFFFFFFFFF000
7FFFFFFFFFFFFFFFFFFFFFFFFC00
3FFFFFFFFFFFFFFFFFFFFFFFFE00
3FFFFFFFFFFFFFFFFFFFFFFFFF00
1FFFFFFFFFFFFFFFFFFFFFFFFFC0
0FFFFFFFFFFFFFFFFFFFFFFFFFE0
0FFFFFFFFFFFFFFFFFFFFFFFFFE0
07FFFFFFFFFFFFFFFFFFFFFFFFF0
03FFFFFFFFFFFFFFFFFFFFFFFFF8
01FFFFFFFFFFFFFFFFFFFFFFFFF8
00FFFFFFFFFFFFFFFFFFFFFFFFFC
003FFFFFFFFFFFFFFFFFFFFFFFFC
000FFFFFFFFFFFFFFFFFFFFFFFFE
0007FFFFFFFFFFFFFFFFFFFFFFFE
0000FFFFFFFFFFFFFFFFFFFFFFFE
00001FFFFFFFFFFFFFFFFFFFFFFE
000001FFFFFFFFFFFFFFFFFFFFFF
000000000000000000000FFFFFFF
000000000000000000000FFFFFFF
000000000000000000000FFFFFFF
000000000000000000000FFFFFFF
000000000000000000000FFFFFFF
000000000000000000000FFFFFFF
000000000000000000000FFFFFFF
000000000000000000000FFFFFFF
000000000000000000000FFFFFFF
000000000000000000000FFFFFFF
000000000000000000000FFFFFFF
000000000000000000000FFFFFFF
000000000000000000000FFFFFFF
000000000000000000000FFFFFFF
FFFFFFFFFFFFFFFFFFFFFFFFFFFF
FFFFFFFFFFFFFFFFFFFFFFFFFFFE
FFFFFFFFFFFFFFFFFFFFFFFFFFFE
FFFFFFFFFFFFFFFFFFFFFFFFFFFE
FFFFFFFFFFFFFFFFFFFFFFFFFFFE
FFFFFFFFFFFFFFFFFFFFFFFFFFFC
FFFFFFFFFFFFFFFFFFFFFFFFFFFC
FFFFFFFFFFFFFFFFFFFFFFFFFFF8
FFFFFFFFFFFFFFFFFFFFFFFFFFF8
FFFFFFFFFFFFFFFFFFFFFFFFFFF0
FFFFFFFFFFFFFFFFFFFFFFFFFFE0
FFFFFFFFFFFFFFFFFFFFFFFFFFC0
FFFFFFFFFFFFFFFFFFFFFFFFFF80
FFFFFFFFFFFFFFFFFFFFFFFFFF00
FFFFFFFFFFFFFFFFFFFFFFFFFC00
FFFFFFFFFFFFFFFFFFFFFFFFF800
FFFFFFFFFFFFFFFFFFFFFFFFE000
FFFFFFFFFFFFFFFFFFFFFFFFC000
FFFFFFFFFFFFFFFFFFFFFFFE0000
FFFFFFFFFFFFFFFFFFFFFFF80000
FFFFFFFFFFFFFFFFFFFFFF000000
ENDCHAR
STARTCHAR 0036
ENCODING 54
SWIDTH 1318 0
DWIDTH 120 0
BBX 111 91 -3 -13
BITMAP
FFFFFFF000000000000000000000
FFFFFFF000000000000000000000
FFFFFFF000000000000000000000
FFFFFFF000000000000000000000
FFFFFFF000000000000000000000
FFFFFFF000000000000000000000
FFFFFFF000000000000000000000
FFFFFFF000000000000000000000
FFFFFFF000000000000000000000
FFFFFFF000000000000000000000
FFFFFFF000000000000000000000
FFFFFFF000000000000000000000
FFFFFFF000000000000000000000
FFFFFFF000000000000000000000
FFFFFFF000000000000000000000
FFFFFFF000000000000000000000
FFFFFFF000000000000000000000
FFFFFFF000000000000000000000
FFFFFFF000000000000000000000
FFFFFFF000000000000000000000
FFFFFFF000000000000000000000
FFFFFFFFFFFFFFFFFFFFFF000000
FFFFFFFFFFFFFFFFFFFFFFE00000
FFFFFFFFFFFFFFFFFFFFFFFC0000
FFFFFFFFFFFFFFFFFFFFFFFF0000
FFFFFFFFFFFFFFFFFFFFFFFFC000
FFFFFFFFFFFFFFFFFFFFFFFFE000
FFFFFFFFFFFFFFFFFFFFFFFFF800
FFFFFFFFFFFFFFFFFFFFFFFFFC00
FFFFFFFFFFFFFFFFFFFFFFFFFE00
FFFFFFFFFFFFFFFFFFFFFFFFFF00
FFFFFFFFFFFFFFFFFFFFFFFFFF00
FFFFFFFFFFFFFFFFFFFFFFFFFF80
FFFFFFFFFFFFFFFFFFFFFFFFFFC0
FFFFFFFFFFFFFFFFFFFFFFFFFFC0
FFFFFFFFFFFFFFFFFFFFFFFFFFE0
FFFFFFFFFFFFFFFFFFFFFFFFFFF0
FFFFFFFFFFFFFFFFFFFFFFFFFFF0
FFFFFFFFFFFFFFFFFFFFFFFFFFF8
FFFFFFFFFFFFFFFFFFFFFFFFFFF8
FFFFFFFFFFFFFFFFFFFFFFFFFFFC
FFFFFFFFFFFFFFFFFFFFFFFFFFFC
FFFFFFFFFFFFFFFFFFFFFFFFFFFC
FFFFFFFFFFFFFFFFFFFFFFFFFFFE
FFFFFFFFFFFFFFFFFFFFFFFFFFFE
FFFFFFFFFFFFFFFFFFFFFFFFFFFE
FFFFFFFFFFFFFFFFFFFFFFFFFFFE
FFFFFFFFFFFFFFFFFFFFFFFFFFFE
FFFFFFFFFFFFFFFFFFFFFFFFFFFE
FFFFFFF00000000000001FFFFFFE
FFFFFFF00000000000001FFFFFFE
FFFFFFF00000000000001FFFFFFE
FFFFFFF00000000000001FFFFFFE
FFFFFFF00000000000001FFFFFFE
FFFFFFF00000000000001FFFFFFE
FFFFFFF00000000000001FFFFFFE
FFFFFFF00000000000001FFFFFFE
FFFFFFF00000000000001FFFFFFE
FFFFFFF00000000000001FFFFFFE
FFFFFFF00000000000001FFFFFFE
FFFFFFF00000000000001FFFFFFE
FFFFFFF00000000000001FFFFFFE
FFFFFFF00000000000001FFFFFFE
FFFFFFFFFFFFFFFFFFFFFFFFFFFE
FFFFFFFFFFFFFFFFFFFFFFFFFFFE
FFFFFFFFFFFFFFFFFFFFFFFFFFFE
FFFFFFFFFFFFFFFFFFFFFFFFFFFE
7FFFFFFFFFFFFFFFFFFFFFFFFFFE
7FFFFFFFFFFFFFFFFFFFFFFFFFFE
7FFFFFFFFFFFFFFFFFFFFFFFFFFE
7FFFFFFFFFFFFFFFFFFFFFFFFFFC
3FFFFFFFFFFFFFFFFFFFFFFFFFFC
3FFFFFFFFFFFFFFFFFFFFFFFFFFC
3FFFFFFFFFFFFFFFFFFFFFFFFFF8
1FFFFFFFFFFFFFFFFFFFFFFFFFF8
0FFFFFFFFFFFFFFFFFFFFFFFFFF0
0FFFFFFFFFFFFFFFFFFFFFFFFFF0
07FFFFFFFFFFFFFFFFFFFFFFFFE0
03FFFFFFFFFFFFFFFFFFFFFFFFC0
03FFFFFFFFFFFFFFFFFFFFFFFFC0
01FFFFFFFFFFFFFFFFFFFFFFFF80
00FFFFFFFFFFFFFFFFFFFFFFFF00
00FFFFFFFFFFFFFFFFFFFFFFFE00
007FFFFFFFFFFFFFFFFFFFFFFC00
001FFFFFFFFFFFFFFFFFFFFFF000
000FFFFFFFFFFFFFFFFFFFFFC000
0007FFFFFFFFFFFFFFFFFFFF8000
0001FFFFFFFFFFFFFFFFFFFE0000
00007FFFFFFFFFFFFFFFFFFC0000
00000FFFFFFFFFFFFFFFFFE00000
000000FFFFFFFFFFFFFFFE000000
ENDCHAR
STARTCHAR 0037
ENCODING 55
SWIDTH 1318 0
DWIDTH 120 0
BBX 112 91 -3 -13
BITMAP
FFFFFFFFFFFFFFFFFFFFFF000000
FFFFFFFFFFFFFFFFFFFFFFF00000
FFFFFFFFFFFFFFFFFFFFFFFE0000
FFFFFFFFFFFFFFFFFFFFFFFF0000
FFFFFFFFFFFFFFFFFFFFFFFFC000
FFFFFFFFFFFFFFFFFFFFFFFFE000
FFFFFFFFFFFFFFFFFFFFFFFFF800
FFFFFFFFFFFFFFFFFFFFFFFFFC00
FFFFFFFFFFFFFFFFFFFFFFFFFE00
FFFFFFFFFFFFFFFFFFFFFFFFFF00
FFFFFFFFFFFFFFFFFFFFFFFFFF80
FFFFFFFFFFFFFFFFFFFFFFFFFF80
FFFFFFFFFFFFFFFFFFFFFFFFFFC0
FFFFFFFFFFFFFFFFFFFFFFFFFFE0
FFFFFFFFFFFFFFFFFFFFFFFFFFE0
FFFFFFFFFFFFFFFFFFFFFFFFFFF0
FFFFFFFFFFFFFFFFFFFFFFFFFFF0
FFFFFFFFFFFFFFFFFFFFFFFFFFF8
FFFFFFFFFFFFFFFFFFFFFFFFFFFC
FFFFFFFFFFFFFFFFFFFFFFFFFFFC
FFFFFFFFFFFFFFFFFFFFFFFFFFFC
FFFFFFFFFFFFFFFFFFFFFFFFFFFE
FFFFFFFFFFFFFFFFFFFFFFFFFFFE
FFFFFFFFFFFFFFFFFFFFFFFFFFFE
FFFFFFFFFFFFFFFFFFFFFFFFFFFE
FFFFFFFFFFFFFFFFFFFFFFFFFFFE
FFFFFFFFFFFFFFFFFFFFFFFFFFFE
FFFFFFFFFFFFFFFFFFFFFFFFFFFF
FFFFFFF00000000000000FFFFFFF
FFFFFFF00000000000000FFFFFFF
FFFFFFF00000000000000FFFFFFF
FFFFFFF00000000000000FFFFFFF
FFFFFFF00000000000000FFFFFFF
FFFFFFF00000000000000FFFFFFF
FFFFFFF00000000000000FFFFFFF
FFFFFFF00000000000000FFFFFFF
FFFFFFF00000000000000FFFFFFF
FFFFFFF00000000000000FFFFFFF
FFFFFFF00000000000000FFFFFFF
FFFFFFF00000000000000FFFFFFF
FFFFFFF00000000000000FFFFFFF
FFFFFFF00000000000000FFFFFFF
FFFFFFF00000000000000FFFFFFF
FFFFFFF00000000000000FFFFFFF
FFFFFFF00000000000000FFFFFFF
FFFFFFF00000000000000FFFFFFF
FFFFFFF00000000000000FFFFFFF
FFFFFFF00000000000000FFFFFFF
FFFFFFF00000000000000FFFFFFF
000000000000000000000FFFFFFF
000000000000000000000FFFFFFF
000000000000000000000FFFFFFF
000000000000000000000FFFFFFF
000000000000000000000FFFFFFF
000000000000000000000FFFFFFF
000000000000000000000FFFFFFF
000000000000000000000FFFFFFF
000000000000000000000FFFFFFF
000000000000000000000FFFFFFF
000000000000000000000FFFFFFF
000000000000000000000FFFFFFF
000000000000000000000FFFFFFF
000000000000000000000FFFFFFF
000000000000000000000FFFFFFF
000000000000000000000FFFFFFF
000000000000000000000FFFFFFF
000000000000000000000FFFFFFF
000000000000000000000FFFFFFF
000000000000000000000FFFFFFF
000000000000000000000FFFFFFF
000000000000000000000FFFFFFF
000000000000000000000FFFFFFF
000000000000000000000FFFFFFF
000000000000000000000FFFFFFF
000000000000000000000FFFFFFF
000000000000000000000FFFFFFF
000000000000000000000FFFFFFF
000000000000000000000FFFFFFF
000000000000000000000FFFFFFF
000000000000000000000FFFFFFF
000000000000000000000FFFFFFF
000000000000000000000FFFFFFF
000000000000000000000FFFFFFF
000000000000000000000FFFFFFF
000000000000000000000FFFFFFF
000000000000000000000FFFFFFF
000000000000000000000FFFFFFF
000000000000000000000FFFFFFF
000000000000000000000FFFFFFF
000000000000000000000FFFFFFF
000000000000000000000FFFFFFF
ENDCHAR
STARTCHAR 0038
ENCODING 56
SWIDTH 1318 0
DWIDTH 120 0
BBX 111 91 -3 -13
BITMAP
000001FFFFFFFFFFFFFFFF800000
00003FFFFFFFFFFFFFFFFFF80000
0000FFFFFFFFFFFFFFFFFFFF0000
0003FFFFFFFFFFFFFFFFFFFFC000
000FFFFFFFFFFFFFFFFFFFFFF000
001FFFFFFFFFFFFFFFFFFFFFF800
007FFFFFFFFFFFFFFFFFFFFFFE00
00FFFFFFFFFFFFFFFFFFFFFFFF00
03FFFFFFFFFFFFFFFFFFFFFFFF80
07FFFFFFFFFFFFFFFFFFFFFFFFC0
0FFFFFFFFFFFFFFFFFFFFFFFFFE0
1FFFFFFFFFFFFFFFFFFFFFFFFFF0
1FFFFFFFFFFFFFFFFFFFFFFFFFF0
3FFFFFFFFFFFFFFFFFFFFFFFFFF8
3FFFFFFFFFFFFFFFFFFFFFFFFFF8
7FFFFFFFFFFFFFFFFFFFFFFFFFFC
7FFFFFFFFFFFFFFFFFFFFFFFFFFC
7FFFFFFFFFFFFFFFFFFFFFFFFFFE
FFFFFFFFFFFFFFFFFFFFFFFFFFFE
FFFFFFFFFFFFFFFFFFFFFFFFFFFE
FFFFFFFFFFFFFFFFFFFFFFFFFFFE
FFFFFFF00000000000001FFFFFFE
FFFFFFF00000000000001FFFFFFE
FFFFFFF00000000000001FFFFFFE
FFFFFFF00000000000001FFFFFFE
FFFFFFF00000000000001FFFFFFE
FFFFFFF00000000000001FFFFFFE
FFFFFFF00000000000001FFFFFFE
FFFFFFF00000000000001FFFFFFE
FFFFFFF00000000000001FFFFFFE
FFFFFFF00000000000001FFFFFFE
FFFFFFF00000000000001FFFFFFE
FFFFFFF00000000000001FFFFFFE
FFFFFFF00000000000001FFFFFFE
FFFFFFF00000000000001FFFFFFE
FFFFFFFFFFFFFFFFFFFFFFFFFFFE
FFFFFFFFFFFFFFFFFFFFFFFFFFFE
FFFFFFFFFFFFFFFFFFFFFFFFFFFE
FFFFFFFFFFFFFFFFFFFFFFFFFFFE
7FFFFFFFFFFFFFFFFFFFFFFFFFFE
7FFFFFFFFFFFFFFFFFFFFFFFFFFC
3FFFFFFFFFFFFFFFFFFFFFFFFFFC
3FFFFFFFFFFFFFFFFFFFFFFFFFF8
1FFFFFFFFFFFFFFFFFFFFFFFFFF8
0FFFFFFFFFFFFFFFFFFFFFFFFFF0
0FFFFFFFFFFFFFFFFFFFFFFFFFE0
1FFFFFFFFFFFFFFFFFFFFFFFFFF0
1FFFFFFFFFFFFFFFFFFFFFFFFFF0
3FFFFFFFFFFFFFFFFFFFFFFFFFF8
7FFFFFFFFFFFFFFFFFFFFFFFFFFC
7FFFFFFFFFFFFFFFFFFFFFFFFFFC
7FFFFFFFFFFFFFFFFFFFFFFFFFFE
FFFFFFFFFFFFFFFFFFFFFFFFFFFE
FFFFFFFFFFFFFFFFFFFFFFFFFFFE
FFFFFFFFFFFFFFFFFFFFFFFFFFFE
FFFFFFFFFFFFFFFFFFFFFFFFFFFE
FFFFFFF00000000000001FFFFFFE
FFFFFFF00000000000001FFFFFFE
FFFFFFF00000000000001FFFFFFE
FFFFFFF00000000000001FFFFFFE
FFFFFFF00000000000001FFFFFFE
FFFFFFF00000000000001FFFFFFE
FFFFFFF00000000000001FFFFFFE
FFFFFFF00000000000001FFFFFFE
FFFFFFF00000000000001FFFFFFE
FFFFFFF00000000000001FFFFFFE
FFFFFFF00000000000001FFFFFFE
FFFFFFF00000000000001FFFFFFE
FFFFFFF00000000000001FFFFFFE
FFFFFFFFFFFFFFFFFFFFFFFFFFFE
FFFFFFFFFFFFFFFFFFFFFFFFFFFE
FFFFFFFFFFFFFFFFFFFFFFFFFFFE
FFFFFFFFFFFFFFFFFFFFFFFFFFFE
7FFFFFFFFFFFFFFFFFFFFFFFFFFE
7FFFFFFFFFFFFFFFFFFFFFFFFFFC
7FFFFFFFFFFFFFFFFFFFFFFFFFFC
3FFFFFFFFFFFFFFFFFFFFFFFFFFC
3FFFFFFFFFFFFFFFFFFFFFFFFFF8
1FFFFFFFFFFFFFFFFFFFFFFFFFF8
0FFFFFFFFFFFFFFFFFFFFFFFFFF0
0FFFFFFFFFFFFFFFFFFFFFFFFFE0
07FFFFFFFFFFFFFFFFFFFFFFFFC0
03FFFFFFFFFFFFFFFFFFFFFFFF80
01FFFFFFFFFFFFFFFFFFFFFFFE00
007FFFFFFFFFFFFFFFFFFFFFFC00
003FFFFFFFFFFFFFFFFFFFFFF000
000FFFFFFFFFFFFFFFFFFFFFE000
0007FFFFFFFFFFFFFFFFFFFF8000
0000FFFFFFFFFFFFFFFFFFFE0000
00001FFFFFFFFFFFFFFFFFF80000
000001FFFFFFFFFFFFFFFF000000
ENDCHAR
STARTCHAR 0039
ENCODING 57
SWIDTH 1318 0
DWIDTH 120 0
BBX 111 91 -3 -14
BITMAP
000001FFFFFFFFFFFFFFFF800000
00001FFFFFFFFFFFFFFFFFF80000
0000FFFFFFFFFFFFFFFFFFFF0000
0003FFFFFFFFFFFFFFFFFFFFC000
000FFFFFFFFFFFFFFFFFFFFFF000
001FFFFFFFFFFFFFFFFFFFFFFC00
007FFFFFFFFFFFFFFFFFFFFFFE00
00FFFFFFFFFFFFFFFFFFFFFFFF00
03FFFFFFFFFFFFFFFFFFFFFFFF80
07FFFFFFFFFFFFFFFFFFFFFFFFC0
0FFFFFFFFFFFFFFFFFFFFFFFFFE0
1FFFFFFFFFFFFFFFFFFFFFFFFFE0
1FFFFFFFFFFFFFFFFFFFFFFFFFF0
3FFFFFFFFFFFFFFFFFFFFFFFFFF8
3FFFFFFFFFFFFFFFFFFFFFFFFFF8
7FFFFFFFFFFFFFFFFFFFFFFFFFFC
7FFFFFFFFFFFFFFFFFFFFFFFFFFC
7FFFFFFFFFFFFFFFFFFFFFFFFFFC
FFFFFFFFFFFFFFFFFFFFFFFFFFFE
FFFFFFFFFFFFFFFFFFFFFFFFFFFE
FFFFFFFFFFFFFFFFFFFFFFFFFFFE
FFFFFFF00000000000001FFFFFFE
FFFFFFF00000000000001FFFFFFE
FFFFFFF00000000000001FFFFFFE
FFFFFFF00000000000001FFFFFFE
FFFFFFF00000000000000FFFFFFE
FFFFFFF00000000000000FFFFFFE
FFFFFFF00000000000000FFFFFFE
FFFFFFF00000000000000FFFFFFE
FFFFFFF00000000000000FFFFFFE
FFFFFFF00000000000000FFFFFFE
FFFFFFF00000000000000FFFFFFE
FFFFFFF00000000000000FFFFFFE
FFFFFFF00000000000000FFFFFFE
FFFFFFF00000000000001FFFFFFE
FFFFFFFFFFFFFFFFFFFFFFFFFFFE
FFFFFFFFFFFFFFFFFFFFFFFFFFFE
FFFFFFFFFFFFFFFFFFFFFFFFFFFE
7FFFFFFFFFFFFFFFFFFFFFFFFFFE
7FFFFFFFFFFFFFFFFFFFFFFFFFFE
7FFFFFFFFFFFFFFFFFFFFFFFFFFE
3FFFFFFFFFFFFFFFFFFFFFFFFFFE
3FFFFFFFFFFFFFFFFFFFFFFFFFFE
1FFFFFFFFFFFFFFFFFFFFFFFFFFE
0FFFFFFFFFFFFFFFFFFFFFFFFFFE
0FFFFFFFFFFFFFFFFFFFFFFFFFFE
07FFFFFFFFFFFFFFFFFFFFFFFFFE
03FFFFFFFFFFFFFFFFFFFFFFFFFE
00FFFFFFFFFFFFFFFFFFFFFFFFFE
007FFFFFFFFFFFFFFFFFFFFFFFFE
003FFFFFFFFFFFFFFFFFFFFFFFFE
001FFFFFFFFFFFFFFFFFFFFFFFFE
0007FFFFFFFFFFFFFFFFFFFFFFFE
0001FFFFFFFFFFFFFFFFFFFFFFFE
00003FFFFFFFFFFFFFFFFFFFFFFE
000003FFFFFFFFFFFFFFFFFFFFFE
000000000000000000001FFFFFFE
000000000000000000001FFFFFFE
000000000000000000001FFFFFFE
000000000000000000001FFFFFFE
000000000000000000001FFFFFFE
000000000000000000001FFFFFFE
000000000000000000001FFFFFFE
000000000000000000001FFFFFFE
000000000000000000001FFFFFFE
000000000000000000001FFFFFFE
000000000000000000001FFFFFFE
000000000000000000001FFFFFFE
000000000000000000001FFFFFFE
000000000000000000001FFFFFFE
FFFFFFFFFFFFFFFFFFFFFFFFFFFE
FFFFFFFFFFFFFFFFFFFFFFFFFFFE
FFFFFFFFFFFFFFFFFFFFFFFFFFFE
FFFFFFFFFFFFFFFFFFFFFFFFFFFE
FFFFFFFFFFFFFFFFFFFFFFFFFFFC
FFFFFFFFFFFFFFFFFFFFFFFFFFFC
FFFFFFFFFFFFFFFFFFFFFFFFFFFC
FFFFFFFFFFFFFFFFFFFFFFFFFFF8
FFFFFFFFFFFFFFFFFFFFFFFFFFF0
FFFFFFFFFFFFFFFFFFFFFFFFFFF0
FFFFFFFFFFFFFFFFFFFFFFFFFFE0
FFFFFFFFFFFFFFFFFFFFFFFFFFC0
FFFFFFFFFFFFFFFFFFFFFFFFFF80
FFFFFFFFFFFFFFFFFFFFFFFFFE00
FFFFFFFFFFFFFFFFFFFFFFFFFC00
FFFFFFFFFFFFFFFFFFFFFFFFF000
FFFFFFFFFFFFFFFFFFFFFFFFE000
FFFFFFFFFFFFFFFFFFFFFFFF8000
FFFFFFFFFFFFFFFFFFFFFFFE0000
FFFFFFFFFFFFFFFFFFFFFFF00000
FFFFFFFFFFFFFFFFFFFFFF000000
ENDCHAR
STARTCHAR 003A
ENCODING 58
SWIDTH 505 0
DWIDTH 46 0
BBX 0 0 0 0
BITMAP
ENDCHAR
STARTCHAR 003B
ENCODING 59
SWIDTH 505 0
DWIDTH 46 0
BBX 0 0 0 0
BITMAP
ENDCHAR
STARTCHAR 003C
ENCODING 60
SWIDTH 1780 0
DWIDTH 162 0
BBX 161 91 0 -13
BITMAP
0000000000000000000000000000F8000000000000
00000000000000000000000000FF07E00000000000
0000000000000000000000000F07FC1C0000000000
00000000000000000000000071FFFFE38000000000
00000000000000000000000387FFFFFC7000000000
00000000000000000000000C3FFFFFFF9C00000000
000000000000000000000031FFFFFFFFE600000000
000000000000000000000047FFFFFFFFF980000000
00000000000000000000019FFFFFFFFFFEC0000000
00000000000000000000023FFFFFFFFFFF20000000
000000000000000000000DFFFFFFFFFFFFD8000000
0000000000000000000013FFFFFFFFFFFFE4000000
0000000000000000000037FFFFFFFFFFFFF2000000
000000000000000000006FFFFFFFFFFFFFFD000000
00000000000000000000DFFFFFFFFFFF3FFE800000
00000000000000000000BFFFFFFFFFFFDFFE400000
00000000000000000001FFFFFFFFFFFFEBFF200000
000000000000000000017FFFFFFFFFFFF6FF900000
00000000000000000001FFFFFFFFFFFFFDFF900000
000000000000000000017FFFFFFFFFFFFEFFC80000
000000000000000000017FFFFFFFFFFFFF7FE40000
000000000000000000013FFFFFFFFE3FFF9FE40000
0000000000000000000083FFFFFFFF8FFFCFF20000
0000000000000000000060FFFFFFFFE7FFE7FA0000
000000000000000000001E3FFFFFFFF9FFF3FD0000
00000000000000000000013FFFFFFFFE7FF1FD0000
0000000000000000000000DFFFFFFFFFBFF9FE8000
00000000000000000000004FFFFFFFFFCFFCFF8000
00000000000000000000004FFFFFFFFFE3FCDF4000
00000000000000000000007FFFFFFFFFF3FE5FC000
00000000000000000000009FFFFFFFFFF9FE6FA000
00000000000000000000009FFFFFFFFFFCFF37E000
000000000000000000000137FFFFFFFFFE7F37D000
00000000000000000000033FFFFFFF07FF3F9FFC00
00000000000000000000047FFFFFFE79FFBFB80200
0000000000000000000008DFFFFFFDFEFFD7F00180
00000000000000000002113FFFFFFCFFBFEBE00080
00000000000000000003227FFFFFFFFFFFFFC00080
00FFFFFFFFFFFFFFFFFFF4FC04007E00C003C00080
00803E003001E001C00765F07C003E00C002C04080
01003E003001E001C0036FC38C001C00C00380C080
01003E001001C000C00327CC0C001C00800780C080
01003C001007C0008003379E0C001C00800780C100
01003C08103FC08180039F7C08001800F83F80C100
02003C08203FC0818203879008103800F83780C100
02003808207FC0818203DF2008103800F033808100
02003810207F8081820787C018103800F033818100
02003810207F81018206CF4018103800F03BFF0200
02003810207F81010206274018307001707BF70200
0400381060FF81030206134018307001307BF60400
0400381FE03F81FF04040C4018207000B05BDC0800
0408383FE00701FF040403C010006001E07BFC0800
0808383FE00703FF040400001001E081E07BF80800
0808303FC00F03FE040420003001E081E07BF01800
0808303FC00F03FE040C20083000E081E07BF01800
0818303FC0FF03FE0408200820006081E0FBE02800
1010302040FF02060C08100820404081E0FBE03000
1000302040FF0206080810082060C001C0EBC07000
10003060C0FF0206080830102060C001C1EB80D000
20003060C1FF04060818301020408001C1EB80D000
20003040C1FE04060818301060408001C1FB01E000
20003040C1FE04060818303040408001C1FE03A000
2070204081FE0404181830304041818181FE03A000
2070204081FE040C101870204081018181FC07F000
40782041801E040C101070204001038181EC000C00
40F02001801E000C003070604001038181EC000400
40F02003801E000C003070604002038103F8000800
81E02003801E001C006050E08002078103F8000800
81E03007001F003F01E0D0C0800E078103F8000800
FFFFFFFFFFFFFFFFFF3FFFFFFFFFFFFFFFF8FFF000
0000000000000000031F77E3FFFFFFFDD7CF060000
0000000000000000018F31FC7FFFFFFAD050040000
00000000000000000087BCFF0FE3FFFBD060000000
000000000000000000D7DF3FFF8FFFFBA060000000
00000000000000000049EFC7FC3FFFF7A0C0000000
00000000000000000026F7F801FFFFFF20C0000000
0000000000000000003773FFFFFFFFED4080000000
0000000000000000001BBC7FFFFFFFDFC100000000
00000000000000000009EF1FFFFFFFDA8100000000
0000000000000000000CF3C7FFFFFFBD0000000000
000000000000000000027CF1FFFFFF7E0000000000
000000000000000000013E0FF87FFE5A0000000000
000000000000000000009FC003FFFCB40000000000
000000000000000000006FFFFFFFF1680000000000
0000000000000000000013FFFFFFC6D00000000000
000000000000000000000CFFFFFF99900000000000
00000000000000000000033FFFFC61200000000000
000000000000000000000183FFE083C00000000000
0000000000000000000000E07F0706000000000000
00000000000000000000001F80F808000000000000
000000000000000000000001FF0010000000000000
ENDCHAR
STARTCHAR 003D
ENCODING 61
SWIDTH 1516 0
DWIDTH 138 0
BBX 136 68 0 10
BITMAP
0000000000000000000000018000000000
000000000000000000000003C001800000
000000000000000000000007E003C00000
000000000000000000000007F80FE00000
000040000000000000002007FC1FE00000
0000F800000000000000F00FFC3FF00000
0003F800000000000000F80FFCFFF00000
0003FE00000000000001FC0FFFFFF80000
0007FF8000C000000001FE1FFFFFE00000
0007FFC003F000000001FE3FFFFF800000
000FFFE007FC00000000FF3FFFFC000000
000FFFE00FFF00000000FFFFF9E0000000
001FFFC00FFF040000007FFFF800000000
001FFF801FFF0F0000003FFFF800000000
003FFFE01FFF0F8000001FFFF000000000
003FFFF03FFF1F8000000FFFF000000000
003FFFFC3FFF1FC0000001FFF8001C0000
007FFFFC7FFF3FC0000001FFFFFFE00000
00FFFFFEFFFE3F80000001FFFFE0000000
00FFFEFFFFFE7F80000007FFFF00000000
00FFFC7FFFFC7F00003FFFFFFF00000000
01FFF83FFFF8FF0001FFFFFF7F80000000
01FFF81FFFF0FE0000E607FE3F800001FF
03FFF013FFF1FC00000007FC3FC003FFF0
03FFF003FFE1FC00000007FC3FFFFF0000
03FFF007FFC1F80000000FFFFFF8000000
07FFF007FF83F80000003FFFFFF8000000
07FFF807FF0FFC000003FFFC0FFE000000
0FFFFE0FFE1FFF00001FFFF00FFF000000
0FFFFF0F7FFFFFC003FFFFC00FFF800000
0FFFBF8A78FFFF803FFFAFC03FFFC00000
1FFE9FC8303FF0001FF82FC07EFFF00000
1FF50FE0200FC0000F004FC1FE3FF80000
1FF50C00001FC00000009F83FE1FFC0000
1FAA0C00001F80000000BF0FFC1FFE0000
3F540E00001FFF000000FE1FE007FF0000
31947E00007FFFC00001F263C003FF8000
4227FF8003FFFFF00001E000F000FFE000
642BFFC00FFFFFF00001E000FC000FF000
4843FFC01FFFFFF00001C077FF0003FC00
8021FF807FFFE000000383FFFFC000FC00
00007C007FFF800000030000FC00001C00
00001C001BFF800000000000FC00000000
00001C0000FFC00000000000FC00000000
00001C0001DFE00000000001FC00800000
00001C00019FE000000007FFFFFF700000
00001800019BF00000003FFFFF00000000
0000187003B3F80000003F00FF00000000
003018F00331FC0000000000FE00000000
003C19F80320FE0000000000FE00000000
003FDBF802407F0000000000FE00000000
003FFFF806403F0000000000FE00000000
001FFFF004801F8000000000FE00000000
001FFFC004801FC000000000FF00000000
001FFF0009000FE000000380FF00000000
000FFC00080007F0000000FFFF00000000
0003F800080003F80000007FFF00000000
0001FFF8100003F80000003FFF00000000
0000FFF81000012C0000001FFF00000000
0007FF00100000A60000001FFF00000000
003FE000200000510000000FFF00000000
00FF00000000003880000007FF80000000
03FC00000000000880000003FF80000000
07F000000000000460000001FF80000000
07C000000000000200000000FF80000000
000000000000000000000000FF80000000
0000000000000000000000007E00000000
0000000000000000000000002000000000
ENDCHAR
STARTCHAR 003E
ENCODING 62
SWIDTH 505 0
DWIDTH 46 0
BBX 0 0 0 0
BITMAP
ENDCHAR
STARTCHAR 003F
ENCODING 63
SWIDTH 1318 0
DWIDTH 120 0
BBX 112 91 -5 -13
BITMAP
000000FFFFFFFFFFFFFFFF800000
00001FFFFFFFFFFFFFFFFFF80000
0000FFFFFFFFFFFFFFFFFFFF0000
0003FFFFFFFFFFFFFFFFFFFFC000
0007FFFFFFFFFFFFFFFFFFFFF000
001FFFFFFFFFFFFFFFFFFFFFFC00
007FFFFFFFFFFFFFFFFFFFFFFE00
00FFFFFFFFFFFFFFFFFFFFFFFF00
03FFFFFFFFFFFFFFFFFFFFFFFF80
07FFFFFFFFFFFFFFFFFFFFFFFFC0
0FFFFFFFFFFFFFFFFFFFFFFFFFE0
1FFFFFFFFFFFFFFFFFFFFFFFFFF0
1FFFFFFFFFFFFFFFFFFFFFFFFFF0
3FFFFFFFFFFFFFFFFFFFFFFFFFF8
7FFFFFFFFFFFFFFFFFFFFFFFFFFC
7FFFFFFFFFFFFFFFFFFFFFFFFFFC
7FFFFFFFFFFFFFFFFFFFFFFFFFFE
FFFFFFFFFFFFFFFFFFFFFFFFFFFE
FFFFFFFFFFFFFFFFFFFFFFFFFFFE
FFFFFFFFFFFFFFFFFFFFFFFFFFFE
FFFFFFFFFFFFFFFFFFFFFFFFFFFF
FFFFFFF00000000000000FFFFFFF
FFFFFFF00000000000000FFFFFFF
FFFFFFF00000000000000FFFFFFF
FFFFFFF00000000000000FFFFFFF
FFFFFFF00000000000000FFFFFFF
FFFFFFF00000000000000FFFFFFF
FFFFFFF00000000000000FFFFFFF
FFFFFFF00000000000000FFFFFFF
FFFFFFF00000000000000FFFFFFF
FFFFFFF00000000000000FFFFFFF
FFFFFFF00000000000000FFFFFFF
FFFFFFF00000000000000FFFFFFF
FFFFFFF00000000000000FFFFFFF
FFFFFFF00000000000000FFFFFFF
00000000000000007FFFFFFFFFFF
000000000000000FFFFFFFFFFFFE
000000000000007FFFFFFFFFFFFE
00000000000001FFFFFFFFFFFFFE
00000000000003FFFFFFFFFFFFFE
0000000000000FFFFFFFFFFFFFFC
0000000000001FFFFFFFFFFFFFFC
0000000000007FFFFFFFFFFFFFFC
000000000000FFFFFFFFFFFFFFF8
000000000001FFFFFFFFFFFFFFF0
000000000003FFFFFFFFFFFFFFF0
000000000007FFFFFFFFFFFFFFE0
00000000000FFFFFFFFFFFFFFF80
00000000000FFFFFFFFFFFFFFF00
00000000001FFFFFFFFFFFFFFC00
00000000001FFFFFFFFFFFFFF800
00000000001FFFFFFFFFFFFFE000
00000000003FFFFFFFFFFFFFC000
00000000003FFFFFFFFFFFFF0000
00000000003FFFFFFFFFFFFC0000
00000000003FFFFFFFFFFFC00000
00000000003FFFFFFC0000000000
00000000003FFFFFFC0000000000
00000000003FFFFFFC0000000000
00000000003FFFFFFC0000000000
00000000003FFFFFFC0000000000
00000000003FFFFFFC0000000000
00000000003FFFFFFC0000000000
00000000003FFFFFFC0000000000
00000000003FFFFFFC0000000000
00000000003FFFFFFC0000000000
00000000003FFFFFFC0000000000
00000000003FFFFFFC0000000000
00000000003FFFFFFC0000000000
00000000003FFFFFFC0000000000
0000000000000000000000000000
0000000000000000000000000000
0000000000000000000000000000
0000000000000000000000000000
0000000000000000000000000000
0000000000000000000000000000
0000000000000000000000000000
00000000003FFFFFFC0000000000
00000000003FFFFFFC0000000000
00000000003FFFFFFC0000000000
00000000003FFFFFFC0000000000
00000000003FFFFFFC0000000000
00000000003FFFFFFC0000000000
00000000003FFFFFFC0000000000
00000000003FFFFFFC0000000000
00000000003FFFFFFC0000000000
00000000003FFFFFFC0000000000
00000000003FFFFFFC0000000000
00000000003FFFFFFC0000000000
00000000003FFFFFFC0000000000
00000000003FFFFFFC0000000000
ENDCHAR
STARTCHAR 0040
ENCODING 64
SWIDTH 472 0
DWIDTH 43 0
BBX 34 35 1 43
BITMAP
000FF80000
007FFF0000
00FFFF8000
03FFFFC000
07F807F000
0FE003F800
1F8001F800
3F00007C00
3F7FF07E00
7E7FFC3E00
7C7FFE1F00
7C7FFF1F00
FC7E7F0F80
F87E3F0F80
F87E3F0F80
F87E3F07C0
F87FFE07C0
F87FFC07C0
F87FFE07C0
F87EFE0F80
F87E3F0F80
F87E3F0F80
7C7E3F1F00
7C7E3F1F00
3E7E3F3F00
3F7E3F7E00
1F80007C00
1FC000FC00
0FE003F800
07F807F000
03FE1FE000
00FFFF8000
007FFF0000
000FF80000
0003E00000
ENDCHAR
STARTCHAR 0061
ENCODING 65
SWIDTH 1318 0
DWIDTH 120 0
BBX 112 91 -5 -13
BITMAP
FFFFFFFFFFFFFFFFFFFFFF000000
FFFFFFFFFFFFFFFFFFFFFFF00000
FFFFFFFFFFFFFFFFFFFFFFFE0000
FFFFFFFFFFFFFFFFFFFFFFFF8000
FFFFFFFFFFFFFFFFFFFFFFFFE000
FFFFFFFFFFFFFFFFFFFFFFFFF000
FFFFFFFFFFFFFFFFFFFFFFFFF800
FFFFFFFFFFFFFFFFFFFFFFFFFE00
FFFFFFFFFFFFFFFFFFFFFFFFFF00
FFFFFFFFFFFFFFFFFFFFFFFFFF80
FFFFFFFFFFFFFFFFFFFFFFFFFFC0
FFFFFFFFFFFFFFFFFFFFFFFFFFC0
FFFFFFFFFFFFFFFFFFFFFFFFFFE0
FFFFFFFFFFFFFFFFFFFFFFFFFFE0
FFFFFFFFFFFFFFFFFFFFFFFFFFF0
FFFFFFFFFFFFFFFFFFFFFFFFFFF0
FFFFFFFFFFFFFFFFFFFFFFFFFFF8
FFFFFFFFFFFFFFFFFFFFFFFFFFFC
FFFFFFFFFFFFFFFFFFFFFFFFFFFC
FFFFFFFFFFFFFFFFFFFFFFFFFFFE
FFFFFFFFFFFFFFFFFFFFFFFFFFFE
000000000000000000000FFFFFFE
000000000000000000000FFFFFFE
000000000000000000000FFFFFFE
000000000000000000000FFFFFFE
000000000000000000000FFFFFFE
000000000000000000000FFFFFFF
000000000000000000000FFFFFFF
000000000000000000000FFFFFFF
000000000000000000000FFFFFFF
000000000000000000000FFFFFFF
000000000000000000000FFFFFFF
000000000000000000000FFFFFFF
000000000000000000000FFFFFFF
000000000000000000000FFFFFFF
000000FFFFFFFFFFFFFFFFFFFFFF
00000FFFFFFFFFFFFFFFFFFFFFFF
00003FFFFFFFFFFFFFFFFFFFFFFF
0000FFFFFFFFFFFFFFFFFFFFFFFF
0003FFFFFFFFFFFFFFFFFFFFFFFF
0007FFFFFFFFFFFFFFFFFFFFFFFF
001FFFFFFFFFFFFFFFFFFFFFFFFF
003FFFFFFFFFFFFFFFFFFFFFFFFF
00FFFFFFFFFFFFFFFFFFFFFFFFFF
01FFFFFFFFFFFFFFFFFFFFFFFFFF
01FFFFFFFFFFFFFFFFFFFFFFFFFF
03FFFFFFFFFFFFFFFFFFFFFFFFFF
07FFFFFFFFFFFFFFFFFFFFFFFFFF
0FFFFFFFFFFFFFFFFFFFFFFFFFFF
0FFFFFFFFFFFFFFFFFFFFFFFFFFF
1FFFFFFFFFFFFFFFFFFFFFFFFFFF
1FFFFFFFFFFFFFFFFFFFFFFFFFFF
3FFFFFFFFFFFFFFFFFFFFFFFFFFF
3FFFFFFFFFFFFFFFFFFFFFFFFFFF
3FFFFFFFFFFFFFFFFFFFFFFFFFFF
3FFFFFFFFFFFFFFFFFFFFFFFFFFF
7FFFFFF00000000000000FFFFFFF
7FFFFFF00000000000000FFFFFFF
7FFFFFF00000000000000FFFFFFF
7FFFFFF00000000000000FFFFFFF
7FFFFFF00000000000000FFFFFFF
FFFFFFF00000000000000FFFFFFF
FFFFFFF00000000000000FFFFFFF
FFFFFFF00000000000000FFFFFFF
FFFFFFF00000000000000FFFFFFF
FFFFFFF00000000000000FFFFFFF
FFFFFFF00000000000000FFFFFFF
7FFFFFF00000000000000FFFFFFF
7FFFFFF00000000000000FFFFFFF
7FFFFFFFFFFFFFFFFFFFFFFFFFFF
3FFFFFFFFFFFFFFFFFFFFFFFFFFF
3FFFFFFFFFFFFFFFFFFFFFFFFFFF
3FFFFFFFFFFFFFFFFFFFFFFFFFFF
1FFFFFFFFFFFFFFFFFFFFFFFFFFF
1FFFFFFFFFFFFFFFFFFFFFFFFFFF
0FFFFFFFFFFFFFFFFFFFFFFFFFFF
0FFFFFFFFFFFFFFFFFFFFFFFFFFF
07FFFFFFFFFFFFFFFFFFFFFFFFFF
03FFFFFFFFFFFFFFFFFFFFFFFFFF
03FFFFFFFFFFFFFFFFFFFFFFFFFF
01FFFFFFFFFFFFFFFFFFFFFFFFFF
01FFFFFFFFFFFFFFFFFFFFFFFFFF
00FFFFFFFFFFFFFFFFFFFFFFFFFF
003FFFFFFFFFFFFFFFFFFFFFFFFF
001FFFFFFFFFFFFFFFFFFFFFFFFF
000FFFFFFFFFFFFFFFFFFFFFFFFF
0003FFFFFFFFFFFFFFFFFFFFFFFF
0000FFFFFFFFFFFFFFFFFFFFFFFF
00003FFFFFFFFFFFFFFFFFFFFFFF
00000FFFFFFFFFFFFFFFFFFFFFFF
0000007FFFFFFFFFFFFFFFFFFFFF
ENDCHAR
STARTCHAR 0042
ENCODING 66
SWIDTH 1318 0
DWIDTH 120 0
BBX 111 91 -5 -13
BITMAP
FFFFFFF000000000000000000000
FFFFFFF000000000000000000000
FFFFFFF000000000000000000000
FFFFFFF000000000000000000000
FFFFFFF000000000000000000000
FFFFFFF000000000000000000000
FFFFFFF000000000000000000000
FFFFFFF000000000000000000000
FFFFFFF000000000000000000000
FFFFFFF000000000000000000000
FFFFFFF000000000000000000000
FFFFFFF000000000000000000000
FFFFFFF000000000000000000000
FFFFFFF000000000000000000000
FFFFFFF000000000000000000000
FFFFFFF000000000000000000000
FFFFFFF000000000000000000000
FFFFFFF000000000000000000000
FFFFFFF000000000000000000000
FFFFFFF000000000000000000000
FFFFFFF000000000000000000000
FFFFFFFFFFFFFFFFFFFFF0000000
FFFFFFFFFFFFFFFFFFFFFFC00000
FFFFFFFFFFFFFFFFFFFFFFF80000
FFFFFFFFFFFFFFFFFFFFFFFE0000
FFFFFFFFFFFFFFFFFFFFFFFF8000
FFFFFFFFFFFFFFFFFFFFFFFFE000
FFFFFFFFFFFFFFFFFFFFFFFFF000
FFFFFFFFFFFFFFFFFFFFFFFFF800
FFFFFFFFFFFFFFFFFFFFFFFFFC00
FFFFFFFFFFFFFFFFFFFFFFFFFE00
FFFFFFFFFFFFFFFFFFFFFFFFFF00
FFFFFFFFFFFFFFFFFFFFFFFFFF00
FFFFFFFFFFFFFFFFFFFFFFFFFF80
FFFFFFFFFFFFFFFFFFFFFFFFFFC0
FFFFFFFFFFFFFFFFFFFFFFFFFFC0
FFFFFFFFFFFFFFFFFFFFFFFFFFE0
FFFFFFFFFFFFFFFFFFFFFFFFFFF0
FFFFFFFFFFFFFFFFFFFFFFFFFFF0
FFFFFFFFFFFFFFFFFFFFFFFFFFF8
FFFFFFFFFFFFFFFFFFFFFFFFFFF8
FFFFFFFFFFFFFFFFFFFFFFFFFFFC
FFFFFFFFFFFFFFFFFFFFFFFFFFFC
FFFFFFFFFFFFFFFFFFFFFFFFFFFC
FFFFFFFFFFFFFFFFFFFFFFFFFFFC
FFFFFFFFFFFFFFFFFFFFFFFFFFFC
FFFFFFFFFFFFFFFFFFFFFFFFFFFE
FFFFFFFFFFFFFFFFFFFFFFFFFFFE
FFFFFFFFFFFFFFFFFFFFFFFFFFFE
FFFFFFF00000000000001FFFFFFE
FFFFFFF00000000000001FFFFFFE
FFFFFFF00000000000001FFFFFFE
FFFFFFF00000000000001FFFFFFE
FFFFFFF00000000000001FFFFFFE
FFFFFFF00000000000001FFFFFFE
FFFFFFF00000000000001FFFFFFE
FFFFFFF00000000000001FFFFFFE
FFFFFFF00000000000001FFFFFFE
FFFFFFF00000000000001FFFFFFE
FFFFFFF00000000000001FFFFFFE
FFFFFFF00000000000001FFFFFFE
FFFFFFF00000000000001FFFFFFE
FFFFFFF00000000000001FFFFFFE
FFFFFFFFFFFFFFFFFFFFFFFFFFFE
FFFFFFFFFFFFFFFFFFFFFFFFFFFE
FFFFFFFFFFFFFFFFFFFFFFFFFFFE
FFFFFFFFFFFFFFFFFFFFFFFFFFFE
FFFFFFFFFFFFFFFFFFFFFFFFFFFC
FFFFFFFFFFFFFFFFFFFFFFFFFFFC
FFFFFFFFFFFFFFFFFFFFFFFFFFFC
FFFFFFFFFFFFFFFFFFFFFFFFFFFC
FFFFFFFFFFFFFFFFFFFFFFFFFFF8
FFFFFFFFFFFFFFFFFFFFFFFFFFF8
FFFFFFFFFFFFFFFFFFFFFFFFFFF8
FFFFFFFFFFFFFFFFFFFFFFFFFFF0
FFFFFFFFFFFFFFFFFFFFFFFFFFF0
FFFFFFFFFFFFFFFFFFFFFFFFFFE0
FFFFFFFFFFFFFFFFFFFFFFFFFFC0
FFFFFFFFFFFFFFFFFFFFFFFFFFC0
FFFFFFFFFFFFFFFFFFFFFFFFFF80
FFFFFFFFFFFFFFFFFFFFFFFFFF00
FFFFFFFFFFFFFFFFFFFFFFFFFE00
FFFFFFFFFFFFFFFFFFFFFFFFFE00
FFFFFFFFFFFFFFFFFFFFFFFFFC00
FFFFFFFFFFFFFFFFFFFFFFFFF000
FFFFFFFFFFFFFFFFFFFFFFFFC000
FFFFFFFFFFFFFFFFFFFFFFFF8000
FFFFFFFFFFFFFFFFFFFFFFFE0000
FFFFFFFFFFFFFFFFFFFFFFFC0000
FFFFFFFFFFFFFFFFFFFFFFE00000
FFFFFFFFFFFFFFFFFFFFFC000000
ENDCHAR
STARTCHAR 0063
ENCODING 67
SWIDTH 1318 0
DWIDTH 120 0
BBX 111 91 -5 -13
BITMAP
0000003FFFFFFFFFFFFFFFFFFFFE
000007FFFFFFFFFFFFFFFFFFFFFE
00003FFFFFFFFFFFFFFFFFFFFFFE
0000FFFFFFFFFFFFFFFFFFFFFFFE
0001FFFFFFFFFFFFFFFFFFFFFFFE
0007FFFFFFFFFFFFFFFFFFFFFFFE
000FFFFFFFFFFFFFFFFFFFFFFFFE
003FFFFFFFFFFFFFFFFFFFFFFFFE
00FFFFFFFFFFFFFFFFFFFFFFFFFE
01FFFFFFFFFFFFFFFFFFFFFFFFFE
01FFFFFFFFFFFFFFFFFFFFFFFFFE
03FFFFFFFFFFFFFFFFFFFFFFFFFE
07FFFFFFFFFFFFFFFFFFFFFFFFFE
0FFFFFFFFFFFFFFFFFFFFFFFFFFE
0FFFFFFFFFFFFFFFFFFFFFFFFFFE
1FFFFFFFFFFFFFFFFFFFFFFFFFFE
1FFFFFFFFFFFFFFFFFFFFFFFFFFE
3FFFFFFFFFFFFFFFFFFFFFFFFFFE
3FFFFFFFFFFFFFFFFFFFFFFFFFFE
7FFFFFFFFFFFFFFFFFFFFFFFFFFE
7FFFFFFFFFFFFFFFFFFFFFFFFFFE
7FFFFFFFFFFFFFFFFFFFFFFFFFFE
7FFFFFFFFFFFFFFFFFFFFFFFFFFE
7FFFFFFFFFFFFFFFFFFFFFFFFFFE
FFFFFFFFFFFFFFFFFFFFFFFFFFFE
FFFFFFFFFFFFFFFFFFFFFFFFFFFE
FFFFFFFFFFFFFFFFFFFFFFFFFFFE
FFFFFFFFFFFFFFFFFFFFFFFFFFFE
FFFFFFF000000000000000000000
FFFFFFF000000000000000000000
FFFFFFF000000000000000000000
FFFFFFF000000000000000000000
FFFFFFF000000000000000000000
FFFFFFF000000000000000000000
FFFFFFF000000000000000000000
FFFFFFF000000000000000000000
FFFFFFF000000000000000000000
FFFFFFF000000000000000000000
FFFFFFF000000000000000000000
FFFFFFF000000000000000000000
FFFFFFF000000000000000000000
FFFFFFF000000000000000000000
FFFFFFF000000000000000000000
FFFFFFF000000000000000000000
FFFFFFF000000000000000000000
FFFFFFF000000000000000000000
FFFFFFF000000000000000000000
FFFFFFF000000000000000000000
FFFFFFF000000000000000000000
FFFFFFF000000000000000000000
FFFFFFF000000000000000000000
FFFFFFF000000000000000000000
FFFFFFF000000000000000000000
FFFFFFF000000000000000000000
FFFFFFF000000000000000000000
FFFFFFF000000000000000000000
FFFFFFF000000000000000000000
FFFFFFF000000000000000000000
FFFFFFF000000000000000000000
FFFFFFF000000000000000000000
FFFFFFF000000000000000000000
FFFFFFF000000000000000000000
FFFFFFF000000000000000000000
FFFFFFFFFFFFFFFFFFFFFFFFFFFE
FFFFFFFFFFFFFFFFFFFFFFFFFFFE
FFFFFFFFFFFFFFFFFFFFFFFFFFFE
FFFFFFFFFFFFFFFFFFFFFFFFFFFE
7FFFFFFFFFFFFFFFFFFFFFFFFFFE
7FFFFFFFFFFFFFFFFFFFFFFFFFFE
7FFFFFFFFFFFFFFFFFFFFFFFFFFE
7FFFFFFFFFFFFFFFFFFFFFFFFFFE
3FFFFFFFFFFFFFFFFFFFFFFFFFFE
3FFFFFFFFFFFFFFFFFFFFFFFFFFE
1FFFFFFFFFFFFFFFFFFFFFFFFFFE
1FFFFFFFFFFFFFFFFFFFFFFFFFFE
0FFFFFFFFFFFFFFFFFFFFFFFFFFE
07FFFFFFFFFFFFFFFFFFFFFFFFFE
07FFFFFFFFFFFFFFFFFFFFFFFFFE
03FFFFFFFFFFFFFFFFFFFFFFFFFE
03FFFFFFFFFFFFFFFFFFFFFFFFFE
01FFFFFFFFFFFFFFFFFFFFFFFFFE
00FFFFFFFFFFFFFFFFFFFFFFFFFE
00FFFFFFFFFFFFFFFFFFFFFFFFFE
007FFFFFFFFFFFFFFFFFFFFFFFFE
001FFFFFFFFFFFFFFFFFFFFFFFFE
000FFFFFFFFFFFFFFFFFFFFFFFFE
0003FFFFFFFFFFFFFFFFFFFFFFFE
0001FFFFFFFFFFFFFFFFFFFFFFFE
00007FFFFFFFFFFFFFFFFFFFFFFE
00001FFFFFFFFFFFFFFFFFFFFFFE
000000FFFFFFFFFFFFFFFFFFFFFE
ENDCHAR
STARTCHAR 0044
ENCODING 68
SWIDTH 1318 0
DWIDTH 120 0
BBX 112 91 -5 -13
BITMAP
000000000000000000001FFFFFFF
000000000000000000001FFFFFFF
000000000000000000001FFFFFFF
000000000000000000001FFFFFFF
000000000000000000001FFFFFFF
000000000000000000001FFFFFFF
000000000000000000001FFFFFFF
000000000000000000001FFFFFFF
000000000000000000001FFFFFFF
000000000000000000001FFFFFFF
000000000000000000001FFFFFFF
000000000000000000001FFFFFFF
000000000000000000001FFFFFFF
000000000000000000001FFFFFFF
000000000000000000001FFFFFFF
000000000000000000001FFFFFFF
000000000000000000001FFFFFFF
000000000000000000001FFFFFFF
000000000000000000001FFFFFFF
000000000000000000001FFFFFFF
000000000000000000001FFFFFFF
0000001FFFFFFFFFFFFFFFFFFFFF
000003FFFFFFFFFFFFFFFFFFFFFF
00003FFFFFFFFFFFFFFFFFFFFFFF
00007FFFFFFFFFFFFFFFFFFFFFFF
0001FFFFFFFFFFFFFFFFFFFFFFFF
0007FFFFFFFFFFFFFFFFFFFFFFFF
000FFFFFFFFFFFFFFFFFFFFFFFFF
003FFFFFFFFFFFFFFFFFFFFFFFFF
007FFFFFFFFFFFFFFFFFFFFFFFFF
00FFFFFFFFFFFFFFFFFFFFFFFFFF
01FFFFFFFFFFFFFFFFFFFFFFFFFF
03FFFFFFFFFFFFFFFFFFFFFFFFFF
07FFFFFFFFFFFFFFFFFFFFFFFFFF
0FFFFFFFFFFFFFFFFFFFFFFFFFFF
0FFFFFFFFFFFFFFFFFFFFFFFFFFF
1FFFFFFFFFFFFFFFFFFFFFFFFFFF
1FFFFFFFFFFFFFFFFFFFFFFFFFFF
3FFFFFFFFFFFFFFFFFFFFFFFFFFF
3FFFFFFFFFFFFFFFFFFFFFFFFFFF
7FFFFFFFFFFFFFFFFFFFFFFFFFFF
7FFFFFFFFFFFFFFFFFFFFFFFFFFF
7FFFFFFFFFFFFFFFFFFFFFFFFFFF
7FFFFFFFFFFFFFFFFFFFFFFFFFFF
FFFFFFFFFFFFFFFFFFFFFFFFFFFF
FFFFFFFFFFFFFFFFFFFFFFFFFFFF
FFFFFFFFFFFFFFFFFFFFFFFFFFFF
FFFFFFFFFFFFFFFFFFFFFFFFFFFF
FFFFFFFFFFFFFFFFFFFFFFFFFFFF
FFFFFFF00000000000001FFFFFFF
FFFFFFF00000000000001FFFFFFF
FFFFFFF00000000000001FFFFFFF
FFFFFFF00000000000001FFFFFFF
FFFFFFF00000000000001FFFFFFF
FFFFFFF00000000000001FFFFFFF
FFFFFFF00000000000001FFFFFFF
FFFFFFF00000000000001FFFFFFF
FFFFFFF00000000000001FFFFFFF
FFFFFFF00000000000001FFFFFFF
FFFFFFF00000000000001FFFFFFF
FFFFFFF00000000000001FFFFFFF
FFFFFFF00000000000001FFFFFFF
FFFFFFFFFFFFFFFFFFFFFFFFFFFF
FFFFFFFFFFFFFFFFFFFFFFFFFFFF
FFFFFFFFFFFFFFFFFFFFFFFFFFFF
FFFFFFFFFFFFFFFFFFFFFFFFFFFF
FFFFFFFFFFFFFFFFFFFFFFFFFFFF
7FFFFFFFFFFFFFFFFFFFFFFFFFFF
7FFFFFFFFFFFFFFFFFFFFFFFFFFF
7FFFFFFFFFFFFFFFFFFFFFFFFFFF
7FFFFFFFFFFFFFFFFFFFFFFFFFFF
7FFFFFFFFFFFFFFFFFFFFFFFFFFF
3FFFFFFFFFFFFFFFFFFFFFFFFFFF
3FFFFFFFFFFFFFFFFFFFFFFFFFFF
1FFFFFFFFFFFFFFFFFFFFFFFFFFF
0FFFFFFFFFFFFFFFFFFFFFFFFFFF
0FFFFFFFFFFFFFFFFFFFFFFFFFFF
07FFFFFFFFFFFFFFFFFFFFFFFFFF
07FFFFFFFFFFFFFFFFFFFFFFFFFF
03FFFFFFFFFFFFFFFFFFFFFFFFFF
01FFFFFFFFFFFFFFFFFFFFFFFFFF
01FFFFFFFFFFFFFFFFFFFFFFFFFF
00FFFFFFFFFFFFFFFFFFFFFFFFFF
007FFFFFFFFFFFFFFFFFFFFFFFFF
003FFFFFFFFFFFFFFFFFFFFFFFFF
000FFFFFFFFFFFFFFFFFFFFFFFFF
0007FFFFFFFFFFFFFFFFFFFFFFFF
0001FFFFFFFFFFFFFFFFFFFFFFFF
00007FFFFFFFFFFFFFFFFFFFFFFF
00000FFFFFFFFFFFFFFFFFFFFFFF
000000FFFFFFFFFFFFFFFFFFFFFF
ENDCHAR
STARTCHAR 0065
ENCODING 69
SWIDTH 1318 0
DWIDTH 120 0
BBX 111 91 -5 -13
BITMAP
0000007FFFFFFFFFFFFFFF000000
000007FFFFFFFFFFFFFFFFF00000
00003FFFFFFFFFFFFFFFFFFE0000
0000FFFFFFFFFFFFFFFFFFFF8000
0001FFFFFFFFFFFFFFFFFFFFC000
0007FFFFFFFFFFFFFFFFFFFFF000
000FFFFFFFFFFFFFFFFFFFFFF800
003FFFFFFFFFFFFFFFFFFFFFFC00
007FFFFFFFFFFFFFFFFFFFFFFE00
00FFFFFFFFFFFFFFFFFFFFFFFF00
01FFFFFFFFFFFFFFFFFFFFFFFF80
03FFFFFFFFFFFFFFFFFFFFFFFF80
07FFFFFFFFFFFFFFFFFFFFFFFFC0
07FFFFFFFFFFFFFFFFFFFFFFFFE0
0FFFFFFFFFFFFFFFFFFFFFFFFFE0
0FFFFFFFFFFFFFFFFFFFFFFFFFF0
1FFFFFFFFFFFFFFFFFFFFFFFFFF0
3FFFFFFFFFFFFFFFFFFFFFFFFFF8
3FFFFFFFFFFFFFFFFFFFFFFFFFFC
3FFFFFFFFFFFFFFFFFFFFFFFFFFC
7FFFFFFFFFFFFFFFFFFFFFFFFFFC
7FFFFFF00000000000001FFFFFFC
7FFFFFF00000000000001FFFFFFE
FFFFFFF00000000000001FFFFFFE
FFFFFFF00000000000001FFFFFFE
FFFFFFF00000000000001FFFFFFE
FFFFFFF00000000000001FFFFFFE
FFFFFFF00000000000001FFFFFFE
FFFFFFF00000000000001FFFFFFE
FFFFFFF00000000000001FFFFFFE
FFFFFFF00000000000001FFFFFFE
FFFFFFF00000000000001FFFFFFE
FFFFFFF00000000000001FFFFFFE
FFFFFFF00000000000001FFFFFFE
FFFFFFF00000000000001FFFFFFE
FFFFFFFFFFFFFFFFFFFFFFFFFFFE
FFFFFFFFFFFFFFFFFFFFFFFFFFFE
FFFFFFFFFFFFFFFFFFFFFFFFFFFE
FFFFFFFFFFFFFFFFFFFFFFFFFFFE
FFFFFFFFFFFFFFFFFFFFFFFFFFFE
FFFFFFFFFFFFFFFFFFFFFFFFFFFE
FFFFFFFFFFFFFFFFFFFFFFFFFFFE
FFFFFFFFFFFFFFFFFFFFFFFFFFFE
FFFFFFFFFFFFFFFFFFFFFFFFFFFE
FFFFFFFFFFFFFFFFFFFFFFFFFFFE
FFFFFFFFFFFFFFFFFFFFFFFFFFFE
FFFFFFFFFFFFFFFFFFFFFFFFFFFE
FFFFFFFFFFFFFFFFFFFFFFFFFFFE
FFFFFFFFFFFFFFFFFFFFFFFFFFFE
FFFFFFFFFFFFFFFFFFFFFFFFFFFE
FFFFFFFFFFFFFFFFFFFFFFFFFFFE
FFFFFFFFFFFFFFFFFFFFFFFFFFFE
FFFFFFFFFFFFFFFFFFFFFFFFFFFE
FFFFFFFFFFFFFFFFFFFFFFFFFFFE
FFFFFFFFFFFFFFFFFFFFFFFFFFFE
FFFFFFFFFFFFFFFFFFFFFFFFFFFE
FFFFFFF000000000000000000000
FFFFFFF000000000000000000000
FFFFFFF000000000000000000000
FFFFFFF000000000000000000000
FFFFFFF000000000000000000000
FFFFFFF000000000000000000000
FFFFFFF000000000000000000000
FFFFFFF000000000000000000000
FFFFFFF000000000000000000000
FFFFFFF000000000000000000000
FFFFFFF000000000000000000000
FFFFFFF000000000000000000000
FFFFFFF000000000000000000000
7FFFFFF000000000000000000000
7FFFFFFFFFFFFFFFFFFFFFFFFFFE
7FFFFFFFFFFFFFFFFFFFFFFFFFFE
3FFFFFFFFFFFFFFFFFFFFFFFFFFE
3FFFFFFFFFFFFFFFFFFFFFFFFFFE
1FFFFFFFFFFFFFFFFFFFFFFFFFFE
1FFFFFFFFFFFFFFFFFFFFFFFFFFE
0FFFFFFFFFFFFFFFFFFFFFFFFFFE
0FFFFFFFFFFFFFFFFFFFFFFFFFFE
07FFFFFFFFFFFFFFFFFFFFFFFFFE
07FFFFFFFFFFFFFFFFFFFFFFFFFE
03FFFFFFFFFFFFFFFFFFFFFFFFFE
01FFFFFFFFFFFFFFFFFFFFFFFFFE
00FFFFFFFFFFFFFFFFFFFFFFFFFE
007FFFFFFFFFFFFFFFFFFFFFFFFE
003FFFFFFFFFFFFFFFFFFFFFFFFE
000FFFFFFFFFFFFFFFFFFFFFFFFE
0007FFFFFFFFFFFFFFFFFFFFFFFE
0001FFFFFFFFFFFFFFFFFFFFFFFE
00007FFFFFFFFFFFFFFFFFFFFFFE
00000FFFFFFFFFFFFFFFFFFFFFFE
000001FFFFFFFFFFFFFFFFFFFFFE
ENDCHAR
STARTCHAR 0066
ENCODING 70
SWIDTH 1318 0
DWIDTH 120 0
BBX 111 91 -5 -13
BITMAP
0000007FFFFFFFFFFFFFFFFFFFFE
00001FFFFFFFFFFFFFFFFFFFFFFE
0000FFFFFFFFFFFFFFFFFFFFFFFE
0003FFFFFFFFFFFFFFFFFFFFFFFE
000FFFFFFFFFFFFFFFFFFFFFFFFE
001FFFFFFFFFFFFFFFFFFFFFFFFE
007FFFFFFFFFFFFFFFFFFFFFFFFE
01FFFFFFFFFFFFFFFFFFFFFFFFFE
03FFFFFFFFFFFFFFFFFFFFFFFFFE
07FFFFFFFFFFFFFFFFFFFFFFFFFE
0FFFFFFFFFFFFFFFFFFFFFFFFFFE
1FFFFFFFFFFFFFFFFFFFFFFFFFFE
1FFFFFFFFFFFFFFFFFFFFFFFFFFE
3FFFFFFFFFFFFFFFFFFFFFFFFFFE
3FFFFFFFFFFFFFFFFFFFFFFFFFFE
7FFFFFFFFFFFFFFFFFFFFFFFFFFE
7FFFFFFFFFFFFFFFFFFFFFFFFFFE
7FFFFFFFFFFFFFFFFFFFFFFFFFFE
FFFFFFFFFFFFFFFFFFFFFFFFFFFE
FFFFFFFFFFFFFFFFFFFFFFFFFFFE
FFFFFFFFFFFFFFFFFFFFFFFFFFFE
FFFFFFF000000000000000000000
FFFFFFF000000000000000000000
FFFFFFF000000000000000000000
FFFFFFF000000000000000000000
FFFFFFF000000000000000000000
FFFFFFF000000000000000000000
FFFFFFF000000000000000000000
FFFFFFF000000000000000000000
FFFFFFF000000000000000000000
FFFFFFF000000000000000000000
FFFFFFF000000000000000000000
FFFFFFF000000000000000000000
FFFFFFF000000000000000000000
FFFFFFF000000000000000000000
FFFFFFFFFFFFFFFFFFFFFFFFFFFE
FFFFFFFFFFFFFFFFFFFFFFFFFFFE
FFFFFFFFFFFFFFFFFFFFFFFFFFFE
FFFFFFFFFFFFFFFFFFFFFFFFFFFE
FFFFFFFFFFFFFFFFFFFFFFFFFFFE
FFFFFFFFFFFFFFFFFFFFFFFFFFFE
FFFFFFFFFFFFFFFFFFFFFFFFFFFE
FFFFFFFFFFFFFFFFFFFFFFFFFFFE
FFFFFFFFFFFFFFFFFFFFFFFFFFFE
FFFFFFFFFFFFFFFFFFFFFFFFFFFE
FFFFFFFFFFFFFFFFFFFFFFFFFFFE
FFFFFFFFFFFFFFFFFFFFFFFFFFFE
FFFFFFFFFFFFFFFFFFFFFFFFFFFE
FFFFFFFFFFFFFFFFFFFFFFFFFFFE
FFFFFFFFFFFFFFFFFFFFFFFFFFFE
FFFFFFFFFFFFFFFFFFFFFFFFFFFE
FFFFFFFFFFFFFFFFFFFFFFFFFFFE
FFFFFFFFFFFFFFFFFFFFFFFFFFFE
FFFFFFFFFFFFFFFFFFFFFFFFFFFE
FFFFFFFFFFFFFFFFFFFFFFFFFFFE
FFFFFFFFFFFFFFFFFFFFFFFFFFFE
FFFFFFF000000000000000000000
FFFFFFF000000000000000000000
FFFFFFF000000000000000000000
FFFFFFF000000000000000000000
FFFFFFF000000000000000000000
FFFFFFF000000000000000000000
FFFFFFF000000000000000000000
FFFFFFF000000000000000000000
FFFFFFF000000000000000000000
FFFFFFF000000000000000000000
FFFFFFF000000000000000000000
FFFFFFF000000000000000000000
FFFFFFF000000000000000000000
FFFFFFF000000000000000000000
FFFFFFF000000000000000000000
FFFFFFF000000000000000000000
FFFFFFF000000000000000000000
FFFFFFF000000000000000000000
FFFFFFF000000000000000000000
FFFFFFF000000000000000000000
FFFFFFF000000000000000000000
FFFFFFF000000000000000000000
FFFFFFF000000000000000000000
FFFFFFF000000000000000000000
FFFFFFF000000000000000000000
FFFFFFF000000000000000000000
FFFFFFF000000000000000000000
FFFFFFF000000000000000000000
FFFFFFF000000000000000000000
FFFFFFF000000000000000000000
FFFFFFF000000000000000000000
FFFFFFF000000000000000000000
FFFFFFF000000000000000000000
FFFFFFF000000000000000000000
FFFFFFF000000000000000000000
ENDCHAR
STARTCHAR 0067
ENCODING 71
SWIDTH 1318 0
DWIDTH 120 0
BBX 111 91 -5 -13
BITMAP
0000007FFFFFFFFFFFFFFFFFFFFE
00001FFFFFFFFFFFFFFFFFFFFFFE
0000FFFFFFFFFFFFFFFFFFFFFFFE
0001FFFFFFFFFFFFFFFFFFFFFFFE
0007FFFFFFFFFFFFFFFFFFFFFFFE
001FFFFFFFFFFFFFFFFFFFFFFFFE
003FFFFFFFFFFFFFFFFFFFFFFFFE
00FFFFFFFFFFFFFFFFFFFFFFFFFE
03FFFFFFFFFFFFFFFFFFFFFFFFFE
07FFFFFFFFFFFFFFFFFFFFFFFFFE
0FFFFFFFFFFFFFFFFFFFFFFFFFFE
1FFFFFFFFFFFFFFFFFFFFFFFFFFE
1FFFFFFFFFFFFFFFFFFFFFFFFFFE
3FFFFFFFFFFFFFFFFFFFFFFFFFFE
3FFFFFFFFFFFFFFFFFFFFFFFFFFE
7FFFFFFFFFFFFFFFFFFFFFFFFFFE
7FFFFFFFFFFFFFFFFFFFFFFFFFFE
7FFFFFFFFFFFFFFFFFFFFFFFFFFE
FFFFFFFFFFFFFFFFFFFFFFFFFFFE
FFFFFFFFFFFFFFFFFFFFFFFFFFFE
FFFFFFFFFFFFFFFFFFFFFFFFFFFE
FFFFFFF000000000000000000000
FFFFFFF000000000000000000000
FFFFFFF000000000000000000000
FFFFFFF000000000000000000000
FFFFFFF000000000000000000000
FFFFFFF000000000000000000000
FFFFFFF000000000000000000000
FFFFFFF000000000000000000000
FFFFFFF000000000000000000000
FFFFFFF000000000000000000000
FFFFFFF000000000000000000000
FFFFFFF000000000000000000000
FFFFFFF000000000000000000000
FFFFFFF000000000000000000000
FFFFFFF0003FFFFFFFFFF8000000
FFFFFFF0003FFFFFFFFFFFF00000
FFFFFFF0003FFFFFFFFFFFFF0000
FFFFFFF0003FFFFFFFFFFFFF8000
FFFFFFF0003FFFFFFFFFFFFFE000
FFFFFFF0003FFFFFFFFFFFFFF800
FFFFFFF0003FFFFFFFFFFFFFFE00
FFFFFFF0003FFFFFFFFFFFFFFF00
FFFFFFF0003FFFFFFFFFFFFFFF80
FFFFFFF0003FFFFFFFFFFFFFFFC0
FFFFFFF0003FFFFFFFFFFFFFFFE0
FFFFFFF0003FFFFFFFFFFFFFFFF0
FFFFFFF0003FFFFFFFFFFFFFFFF0
FFFFFFF0003FFFFFFFFFFFFFFFF8
FFFFFFF0003FFFFFFFFFFFFFFFF8
FFFFFFF0003FFFFFFFFFFFFFFFFC
FFFFFFF0003FFFFFFFFFFFFFFFFE
FFFFFFF0003FFFFFFFFFFFFFFFFE
FFFFFFF0003FFFFFFFFFFFFFFFFE
FFFFFFF0003FFFFFFFFFFFFFFFFE
FFFFFFF0003FFFFFFFFFFFFFFFFE
FFFFFFF00000000000000FFFFFFE
FFFFFFF00000000000000FFFFFFE
FFFFFFF00000000000000FFFFFFE
FFFFFFF00000000000000FFFFFFE
FFFFFFF00000000000000FFFFFFE
FFFFFFF00000000000000FFFFFFE
FFFFFFF00000000000000FFFFFFE
FFFFFFF00000000000000FFFFFFE
FFFFFFF00000000000000FFFFFFE
FFFFFFF00000000000000FFFFFFE
FFFFFFF00000000000000FFFFFFE
FFFFFFF00000000000000FFFFFFE
FFFFFFF00000000000000FFFFFFE
FFFFFFF00000000000000FFFFFFE
FFFFFFFFFFFFFFFFFFFFFFFFFFFE
FFFFFFFFFFFFFFFFFFFFFFFFFFFE
FFFFFFFFFFFFFFFFFFFFFFFFFFFE
FFFFFFFFFFFFFFFFFFFFFFFFFFFE
7FFFFFFFFFFFFFFFFFFFFFFFFFFC
7FFFFFFFFFFFFFFFFFFFFFFFFFFC
3FFFFFFFFFFFFFFFFFFFFFFFFFFC
1FFFFFFFFFFFFFFFFFFFFFFFFFF8
1FFFFFFFFFFFFFFFFFFFFFFFFFF0
0FFFFFFFFFFFFFFFFFFFFFFFFFF0
0FFFFFFFFFFFFFFFFFFFFFFFFFE0
07FFFFFFFFFFFFFFFFFFFFFFFFC0
03FFFFFFFFFFFFFFFFFFFFFFFF80
01FFFFFFFFFFFFFFFFFFFFFFFE00
007FFFFFFFFFFFFFFFFFFFFFF800
001FFFFFFFFFFFFFFFFFFFFFF000
000FFFFFFFFFFFFFFFFFFFFFC000
0003FFFFFFFFFFFFFFFFFFFF0000
0000FFFFFFFFFFFFFFFFFFFE0000
00000FFFFFFFFFFFFFFFFFF00000
0000001FFFFFFFFFFFFFF8000000
ENDCHAR
STARTCHAR 0068
ENCODING 72
SWIDTH 1318 0
DWIDTH 120 0
BBX 111 91 -5 -13
BITMAP
FFFFFFF000000000000000000000
FFFFFFF000000000000000000000
FFFFFFF000000000000000000000
FFFFFFF000000000000000000000
FFFFFFF000000000000000000000
FFFFFFF000000000000000000000
FFFFFFF000000000000000000000
FFFFFFF000000000000000000000
FFFFFFF000000000000000000000
FFFFFFF000000000000000000000
FFFFFFF000000000000000000000
FFFFFFF000000000000000000000
FFFFFFF000000000000000000000
FFFFFFF000000000000000000000
FFFFFFF000000000000000000000
FFFFFFF000000000000000000000
FFFFFFF000000000000000000000
FFFFFFF000000000000000000000
FFFFFFF000000000000000000000
FFFFFFF000000000000000000000
FFFFFFF000000000000000000000
FFFFFFFFFFFFFFFFFFFFF8000000
FFFFFFFFFFFFFFFFFFFFFFC00000
FFFFFFFFFFFFFFFFFFFFFFF80000
FFFFFFFFFFFFFFFFFFFFFFFE0000
FFFFFFFFFFFFFFFFFFFFFFFFC000
FFFFFFFFFFFFFFFFFFFFFFFFE000
FFFFFFFFFFFFFFFFFFFFFFFFF000
FFFFFFFFFFFFFFFFFFFFFFFFF800
FFFFFFFFFFFFFFFFFFFFFFFFFE00
FFFFFFFFFFFFFFFFFFFFFFFFFF00
FFFFFFFFFFFFFFFFFFFFFFFFFF00
FFFFFFFFFFFFFFFFFFFFFFFFFF80
FFFFFFFFFFFFFFFFFFFFFFFFFF80
FFFFFFFFFFFFFFFFFFFFFFFFFFC0
FFFFFFFFFFFFFFFFFFFFFFFFFFE0
FFFFFFFFFFFFFFFFFFFFFFFFFFE0
FFFFFFFFFFFFFFFFFFFFFFFFFFF0
FFFFFFFFFFFFFFFFFFFFFFFFFFF8
FFFFFFFFFFFFFFFFFFFFFFFFFFF8
FFFFFFFFFFFFFFFFFFFFFFFFFFFC
FFFFFFFFFFFFFFFFFFFFFFFFFFFC
FFFFFFFFFFFFFFFFFFFFFFFFFFFC
FFFFFFFFFFFFFFFFFFFFFFFFFFFE
FFFFFFFFFFFFFFFFFFFFFFFFFFFE
FFFFFFFFFFFFFFFFFFFFFFFFFFFE
FFFFFFFFFFFFFFFFFFFFFFFFFFFE
FFFFFFFFFFFFFFFFFFFFFFFFFFFE
FFFFFFFFFFFFFFFFFFFFFFFFFFFE
FFFFFFF00000000000000FFFFFFE
FFFFFFF00000000000000FFFFFFE
FFFFFFF00000000000000FFFFFFE
FFFFFFF00000000000000FFFFFFE
FFFFFFF00000000000000FFFFFFE
FFFFFFF00000000000000FFFFFFE
FFFFFFF00000000000000FFFFFFE
FFFFFFF00000000000000FFFFFFE
FFFFFFF00000000000000FFFFFFE
FFFFFFF00000000000000FFFFFFE
FFFFFFF00000000000000FFFFFFE
FFFFFFF00000000000000FFFFFFE
FFFFFFF00000000000000FFFFFFE
FFFFFFF00000000000000FFFFFFE
FFFFFFF00000000000000FFFFFFE
FFFFFFF00000000000000FFFFFFE
FFFFFFF00000000000000FFFFFFE
FFFFFFF00000000000000FFFFFFE
FFFFFFF00000000000000FFFFFFE
FFFFFFF00000000000000FFFFFFE
FFFFFFF00000000000000FFFFFFE
FFFFFFF00000000000000FFFFFFE
FFFFFFF00000000000000FFFFFFE
FFFFFFF00000000000000FFFFFFE
FFFFFFF00000000000000FFFFFFE
FFFFFFF00000000000000FFFFFFE
FFFFFFF00000000000000FFFFFFE
FFFFFFF00000000000000FFFFFFE
FFFFFFF00000000000000FFFFFFE
FFFFFFF00000000000000FFFFFFE
FFFFFFF00000000000000FFFFFFE
FFFFFFF00000000000000FFFFFFE
FFFFFFF00000000000000FFFFFFE
FFFFFFF00000000000000FFFFFFE
FFFFFFF00000000000000FFFFFFE
FFFFFFF00000000000000FFFFFFE
FFFFFFF00000000000000FFFFFFE
FFFFFFF00000000000000FFFFFFE
FFFFFFF00000000000000FFFFFFE
FFFFFFF00000000000000FFFFFFE
FFFFFFF00000000000000FFFFFFE
FFFFFFF00000000000000FFFFFFE
ENDCHAR
STARTCHAR 0069
ENCODING 73
SWIDTH 395 0
DWIDTH 36 0
BBX 28 91 -5 -13
BITMAP
FFFFFFF0
FFFFFFF0
FFFFFFF0
FFFFFFF0
FFFFFFF0
FFFFFFF0
FFFFFFF0
FFFFFFF0
FFFFFFF0
FFFFFFF0
FFFFFFF0
FFFFFFF0
FFFFFFF0
FFFFFFF0
FFFFFFF0
FFFFFFF0
FFFFFFF0
FFFFFFF0
FFFFFFF0
FFFFFFF0
FFFFFFF0
FFFFFFF0
FFFFFFF0
FFFFFFF0
FFFFFFF0
FFFFFFF0
FFFFFFF0
FFFFFFF0
FFFFFFF0
FFFFFFF0
FFFFFFF0
FFFFFFF0
FFFFFFF0
FFFFFFF0
FFFFFFF0
FFFFFFF0
FFFFFFF0
FFFFFFF0
FFFFFFF0
FFFFFFF0
FFFFFFF0
FFFFFFF0
FFFFFFF0
FFFFFFF0
FFFFFFF0
FFFFFFF0
FFFFFFF0
FFFFFFF0
FFFFFFF0
FFFFFFF0
FFFFFFF0
FFFFFFF0
FFFFFFF0
FFFFFFF0
FFFFFFF0
FFFFFFF0
FFFFFFF0
FFFFFFF0
FFFFFFF0
FFFFFFF0
FFFFFFF0
FFFFFFF0
FFFFFFF0
FFFFFFF0
FFFFFFF0
FFFFFFF0
FFFFFFF0
FFFFFFF0
FFFFFFF0
FFFFFFF0
FFFFFFF0
FFFFFFF0
FFFFFFF0
FFFFFFF0
FFFFFFF0
FFFFFFF0
FFFFFFF0
FFFFFFF0
FFFFFFF0
FFFFFFF0
FFFFFFF0
FFFFFFF0
FFFFFFF0
FFFFFFF0
FFFFFFF0
FFFFFFF0
FFFFFFF0
FFFFFFF0
FFFFFFF0
FFFFFFF0
FFFFFFF0
ENDCHAR
STARTCHAR 006A
ENCODING 74
SWIDTH 1318 0
DWIDTH 120 0
BBX 112 91 -5 -13
BITMAP
000000000000000000000FFFFFFF
000000000000000000000FFFFFFF
000000000000000000000FFFFFFF
000000000000000000000FFFFFFF
000000000000000000000FFFFFFF
000000000000000000000FFFFFFF
000000000000000000000FFFFFFF
000000000000000000000FFFFFFF
000000000000000000000FFFFFFF
000000000000000000000FFFFFFF
000000000000000000000FFFFFFF
000000000000000000000FFFFFFF
000000000000000000000FFFFFFF
000000000000000000000FFFFFFF
000000000000000000000FFFFFFF
000000000000000000000FFFFFFF
000000000000000000000FFFFFFF
000000000000000000000FFFFFFF
000000000000000000000FFFFFFF
000000000000000000000FFFFFFF
000000000000000000000FFFFFFF
000000000000000000000FFFFFFF
000000000000000000000FFFFFFF
000000000000000000000FFFFFFF
000000000000000000000FFFFFFF
000000000000000000000FFFFFFF
000000000000000000000FFFFFFF
000000000000000000000FFFFFFF
000000000000000000000FFFFFFF
000000000000000000000FFFFFFF
000000000000000000000FFFFFFF
000000000000000000000FFFFFFF
000000000000000000000FFFFFFF
000000000000000000000FFFFFFF
000000000000000000000FFFFFFF
000000000000000000000FFFFFFF
000000000000000000000FFFFFFF
000000000000000000000FFFFFFF
000000000000000000000FFFFFFF
000000000000000000000FFFFFFF
000000000000000000000FFFFFFF
000000000000000000000FFFFFFF
FFFFFFF00000000000000FFFFFFF
FFFFFFF00000000000000FFFFFFF
FFFFFFF00000000000000FFFFFFF
FFFFFFF00000000000000FFFFFFF
FFFFFFF00000000000000FFFFFFF
FFFFFFF00000000000000FFFFFFF
FFFFFFF00000000000000FFFFFFF
FFFFFFF00000000000000FFFFFFF
FFFFFFF00000000000000FFFFFFF
FFFFFFF00000000000000FFFFFFF
FFFFFFF00000000000000FFFFFFF
FFFFFFF00000000000000FFFFFFF
FFFFFFF00000000000000FFFFFFF
FFFFFFF00000000000000FFFFFFF
FFFFFFF00000000000000FFFFFFF
FFFFFFF00000000000000FFFFFFF
FFFFFFF00000000000000FFFFFFF
FFFFFFF00000000000000FFFFFFF
FFFFFFF00000000000000FFFFFFF
FFFFFFF00000000000000FFFFFFF
FFFFFFF00000000000000FFFFFFF
FFFFFFFFFFFFFFFFFFFFFFFFFFFF
FFFFFFFFFFFFFFFFFFFFFFFFFFFF
FFFFFFFFFFFFFFFFFFFFFFFFFFFF
FFFFFFFFFFFFFFFFFFFFFFFFFFFF
FFFFFFFFFFFFFFFFFFFFFFFFFFFF
7FFFFFFFFFFFFFFFFFFFFFFFFFFE
7FFFFFFFFFFFFFFFFFFFFFFFFFFE
7FFFFFFFFFFFFFFFFFFFFFFFFFFE
3FFFFFFFFFFFFFFFFFFFFFFFFFFC
3FFFFFFFFFFFFFFFFFFFFFFFFFFC
1FFFFFFFFFFFFFFFFFFFFFFFFFFC
1FFFFFFFFFFFFFFFFFFFFFFFFFF8
0FFFFFFFFFFFFFFFFFFFFFFFFFF8
07FFFFFFFFFFFFFFFFFFFFFFFFF0
07FFFFFFFFFFFFFFFFFFFFFFFFE0
03FFFFFFFFFFFFFFFFFFFFFFFFE0
01FFFFFFFFFFFFFFFFFFFFFFFFC0
01FFFFFFFFFFFFFFFFFFFFFFFF80
00FFFFFFFFFFFFFFFFFFFFFFFF00
007FFFFFFFFFFFFFFFFFFFFFFE00
003FFFFFFFFFFFFFFFFFFFFFFC00
001FFFFFFFFFFFFFFFFFFFFFF000
000FFFFFFFFFFFFFFFFFFFFFE000
0003FFFFFFFFFFFFFFFFFFFF8000
0001FFFFFFFFFFFFFFFFFFFE0000
00003FFFFFFFFFFFFFFFFFF80000
00000FFFFFFFFFFFFFFFFFE00000
000000FFFFFFFFFFFFFFFE000000
ENDCHAR
STARTCHAR 006B
ENCODING 75
SWIDTH 1318 0
DWIDTH 120 0
BBX 111 91 -5 -13
BITMAP
FFFFFFF00000000000001FFFFFFE
FFFFFFF00000000000001FFFFFFE
FFFFFFF00000000000001FFFFFFE
FFFFFFF00000000000001FFFFFFE
FFFFFFF00000000000001FFFFFFE
FFFFFFF00000000000001FFFFFFE
FFFFFFF00000000000001FFFFFFE
FFFFFFF00000000000001FFFFFFE
FFFFFFF00000000000001FFFFFFE
FFFFFFF00000000000001FFFFFFE
FFFFFFF00000000000001FFFFFFE
FFFFFFF00000000000001FFFFFFE
FFFFFFF00000000000001FFFFFFE
FFFFFFF00000000000001FFFFFFE
FFFFFFF00000000000001FFFFFFE
FFFFFFF00000000000001FFFFFFE
FFFFFFF00000000000001FFFFFFE
FFFFFFF00000000000001FFFFFFE
FFFFFFF00000000000001FFFFFFE
FFFFFFF00000000000001FFFFFFE
FFFFFFF00000000000001FFFFFFE
FFFFFFF00000000000001FFFFFFE
FFFFFFF00000000000001FFFFFFE
FFFFFFF00000000000001FFFFFFE
FFFFFFF00000000000001FFFFFFE
FFFFFFF00000000000001FFFFFFE
FFFFFFF00000000000001FFFFFFE
FFFFFFF00000000000001FFFFFFE
FFFFFFF00000000000001FFFFFFE
FFFFFFF00000000000001FFFFFFE
FFFFFFF00000000000001FFFFFFE
FFFFFFF00000000000001FFFFFFE
FFFFFFF00000000000001FFFFFFE
FFFFFFF00000000000001FFFFFFE
FFFFFFF00000000000001FFFFFFE
FFFFFFFFFFFFFFFFFFFFFFFFFFFE
FFFFFFFFFFFFFFFFFFFFFFFFFFFE
FFFFFFFFFFFFFFFFFFFFFFFFFFFE
FFFFFFFFFFFFFFFFFFFFFFFFFFFC
FFFFFFFFFFFFFFFFFFFFFFFFFFFC
FFFFFFFFFFFFFFFFFFFFFFFFFFFC
FFFFFFFFFFFFFFFFFFFFFFFFFFF8
FFFFFFFFFFFFFFFFFFFFFFFFFFF8
FFFFFFFFFFFFFFFFFFFFFFFFFFF0
FFFFFFFFFFFFFFFFFFFFFFFFFFF0
FFFFFFFFFFFFFFFFFFFFFFFFFFE0
FFFFFFFFFFFFFFFFFFFFFFFFFFF0
FFFFFFFFFFFFFFFFFFFFFFFFFFF0
FFFFFFFFFFFFFFFFFFFFFFFFFFF8
FFFFFFFFFFFFFFFFFFFFFFFFFFF8
FFFFFFFFFFFFFFFFFFFFFFFFFFFC
FFFFFFFFFFFFFFFFFFFFFFFFFFFC
FFFFFFFFFFFFFFFFFFFFFFFFFFFE
FFFFFFFFFFFFFFFFFFFFFFFFFFFE
FFFFFFFFFFFFFFFFFFFFFFFFFFFE
FFFFFFFFFFFFFFFFFFFFFFFFFFFE
FFFFFFF00000000000001FFFFFFE
FFFFFFF00000000000001FFFFFFE
FFFFFFF00000000000001FFFFFFE
FFFFFFF00000000000001FFFFFFE
FFFFFFF00000000000001FFFFFFE
FFFFFFF00000000000001FFFFFFE
FFFFFFF00000000000001FFFFFFE
FFFFFFF00000000000001FFFFFFE
FFFFFFF00000000000001FFFFFFE
FFFFFFF00000000000001FFFFFFE
FFFFFFF00000000000001FFFFFFE
FFFFFFF00000000000001FFFFFFE
FFFFFFF00000000000001FFFFFFE
FFFFFFF00000000000001FFFFFFE
FFFFFFF00000000000001FFFFFFE
FFFFFFF00000000000001FFFFFFE
FFFFFFF00000000000001FFFFFFE
FFFFFFF00000000000001FFFFFFE
FFFFFFF00000000000001FFFFFFE
FFFFFFF00000000000001FFFFFFE
FFFFFFF00000000000001FFFFFFE
FFFFFFF00000000000001FFFFFFE
FFFFFFF00000000000001FFFFFFE
FFFFFFF00000000000001FFFFFFE
FFFFFFF00000000000001FFFFFFE
FFFFFFF00000000000001FFFFFFE
FFFFFFF00000000000001FFFFFFE
FFFFFFF00000000000001FFFFFFE
FFFFFFF00000000000001FFFFFFE
FFFFFFF00000000000001FFFFFFE
FFFFFFF00000000000001FFFFFFE
FFFFFFF00000000000001FFFFFFE
FFFFFFF00000000000001FFFFFFE
FFFFFFF00000000000001FFFFFFE
FFFFFFF00000000000001FFFFFFE
ENDCHAR
STARTCHAR 006C
ENCODING 76
SWIDTH 1318 0
DWIDTH 120 0
BBX 111 91 -5 -13
BITMAP
FFFFFFF000000000000000000000
FFFFFFF000000000000000000000
FFFFFFF000000000000000000000
FFFFFFF000000000000000000000
FFFFFFF000000000000000000000
FFFFFFF000000000000000000000
FFFFFFF000000000000000000000
FFFFFFF000000000000000000000
FFFFFFF000000000000000000000
FFFFFFF000000000000000000000
FFFFFFF000000000000000000000
FFFFFFF000000000000000000000
FFFFFFF000000000000000000000
FFFFFFF000000000000000000000
FFFFFFF000000000000000000000
FFFFFFF000000000000000000000
FFFFFFF000000000000000000000
FFFFFFF000000000000000000000
FFFFFFF000000000000000000000
FFFFFFF000000000000000000000
FFFFFFF000000000000000000000
FFFFFFF000000000000000000000
FFFFFFF000000000000000000000
FFFFFFF000000000000000000000
FFFFFFF000000000000000000000
FFFFFFF000000000000000000000
FFFFFFF000000000000000000000
FFFFFFF000000000000000000000
FFFFFFF000000000000000000000
FFFFFFF000000000000000000000
FFFFFFF000000000000000000000
FFFFFFF000000000000000000000
FFFFFFF000000000000000000000
FFFFFFF000000000000000000000
FFFFFFF000000000000000000000
FFFFFFF000000000000000000000
FFFFFFF000000000000000000000
FFFFFFF000000000000000000000
FFFFFFF000000000000000000000
FFFFFFF000000000000000000000
FFFFFFF000000000000000000000
FFFFFFF000000000000000000000
FFFFFFF000000000000000000000
FFFFFFF000000000000000000000
FFFFFFF000000000000000000000
FFFFFFF000000000000000000000
FFFFFFF000000000000000000000
FFFFFFF000000000000000000000
FFFFFFF000000000000000000000
FFFFFFF000000000000000000000
FFFFFFF000000000000000000000
FFFFFFF000000000000000000000
FFFFFFF000000000000000000000
FFFFFFF000000000000000000000
FFFFFFF000000000000000000000
FFFFFFF000000000000000000000
FFFFFFF000000000000000000000
FFFFFFF000000000000000000000
FFFFFFF000000000000000000000
FFFFFFF000000000000000000000
FFFFFFF000000000000000000000
FFFFFFF000000000000000000000
FFFFFFF000000000000000000000
FFFFFFFFFFFFFFFFFFFFFFFFFFFE
FFFFFFFFFFFFFFFFFFFFFFFFFFFE
FFFFFFFFFFFFFFFFFFFFFFFFFFFE
FFFFFFFFFFFFFFFFFFFFFFFFFFFE
FFFFFFFFFFFFFFFFFFFFFFFFFFFE
7FFFFFFFFFFFFFFFFFFFFFFFFFFE
7FFFFFFFFFFFFFFFFFFFFFFFFFFE
7FFFFFFFFFFFFFFFFFFFFFFFFFFE
3FFFFFFFFFFFFFFFFFFFFFFFFFFE
3FFFFFFFFFFFFFFFFFFFFFFFFFFE
1FFFFFFFFFFFFFFFFFFFFFFFFFFE
1FFFFFFFFFFFFFFFFFFFFFFFFFFE
0FFFFFFFFFFFFFFFFFFFFFFFFFFE
07FFFFFFFFFFFFFFFFFFFFFFFFFE
07FFFFFFFFFFFFFFFFFFFFFFFFFE
03FFFFFFFFFFFFFFFFFFFFFFFFFE
03FFFFFFFFFFFFFFFFFFFFFFFFFE
01FFFFFFFFFFFFFFFFFFFFFFFFFE
00FFFFFFFFFFFFFFFFFFFFFFFFFE
00FFFFFFFFFFFFFFFFFFFFFFFFFE
007FFFFFFFFFFFFFFFFFFFFFFFFE
001FFFFFFFFFFFFFFFFFFFFFFFFE
000FFFFFFFFFFFFFFFFFFFFFFFFE
0007FFFFFFFFFFFFFFFFFFFFFFFE
0001FFFFFFFFFFFFFFFFFFFFFFFE
00007FFFFFFFFFFFFFFFFFFFFFFE
00000FFFFFFFFFFFFFFFFFFFFFFE
000001FFFFFFFFFFFFFFFFFFFFFE
ENDCHAR
STARTCHAR 006D
ENCODING 77
SWIDTH 1780 0
DWIDTH 162 0
BBX 153 91 0 -13
BITMAP
FFFFFFFFFFFFFFFFFFFFFFFFFFFFFFFFC0000000
FFFFFFFFFFFFFFFFFFFFFFFFFFFFFFFFFC000000
FFFFFFFFFFFFFFFFFFFFFFFFFFFFFFFFFF000000
FFFFFFFFFFFFFFFFFFFFFFFFFFFFFFFFFFC00000
FFFFFFFFFFFFFFFFFFFFFFFFFFFFFFFFFFF00000
FFFFFFFFFFFFFFFFFFFFFFFFFFFFFFFFFFF80000
FFFFFFFFFFFFFFFFFFFFFFFFFFFFFFFFFFFC0000
FFFFFFFFFFFFFFFFFFFFFFFFFFFFFFFFFFFE0000
FFFFFFFFFFFFFFFFFFFFFFFFFFFFFFFFFFFF8000
FFFFFFFFFFFFFFFFFFFFFFFFFFFFFFFFFFFF8000
FFFFFFFFFFFFFFFFFFFFFFFFFFFFFFFFFFFFC000
FFFFFFFFFFFFFFFFFFFFFFFFFFFFFFFFFFFFC000
FFFFFFFFFFFFFFFFFFFFFFFFFFFFFFFFFFFFE000
FFFFFFFFFFFFFFFFFFFFFFFFFFFFFFFFFFFFF000
FFFFFFFFFFFFFFFFFFFFFFFFFFFFFFFFFFFFF000
FFFFFFFFFFFFFFFFFFFFFFFFFFFFFFFFFFFFF800
FFFFFFFFFFFFFFFFFFFFFFFFFFFFFFFFFFFFFC00
FFFFFFFFFFFFFFFFFFFFFFFFFFFFFFFFFFFFFC00
FFFFFFFFFFFFFFFFFFFFFFFFFFFFFFFFFFFFFE00
FFFFFFFFFFFFFFFFFFFFFFFFFFFFFFFFFFFFFE00
FFFFFFFFFFFFFFFFFFFFFFFFFFFFFFFFFFFFFF00
FFFFFFFFFFFFFFFFFFFFFFFFFFFFFFFFFFFFFF00
FFFFFFFFFFFFFFFFFFFFFFFFFFFFFFFFFFFFFF00
FFFFFFFFFFFFFFFFFFFFFFFFFFFFFFFFFFFFFF00
FFFFFFFFFFFFFFFFFFFFFFFFFFFFFFFFFFFFFF00
FFFFFFFFFFFFFFFFFFFFFFFFFFFFFFFFFFFFFF00
FFFFFFFFFFFFFFFFFFFFFFFFFFFFFFFFFFFFFF00
FFFFFFFFFFFFFFFFFFFFFFFFFFFFFFFFFFFFFF80
FFFFFFF000000001FFFFFFC000000007FFFFFF80
FFFFFFF000000001FFFFFFC000000007FFFFFF80
FFFFFFF000000001FFFFFFC000000007FFFFFF80
FFFFFFF000000001FFFFFFC000000007FFFFFF80
FFFFFFF000000001FFFFFFC000000007FFFFFF80
FFFFFFF000000001FFFFFFC000000007FFFFFF80
FFFFFFF000000001FFFFFFC000000007FFFFFF80
FFFFFFF000000001FFFFFFC000000007FFFFFF80
FFFFFFF000000001FFFFFFC000000007FFFFFF80
FFFFFFF000000001FFFFFFC000000007FFFFFF80
FFFFFFF000000001FFFFFFC000000007FFFFFF80
FFFFFFF000000001FFFFFFC000000007FFFFFF80
FFFFFFF000000001FFFFFFC000000007FFFFFF80
FFFFFFF000000001FFFFFFC000000007FFFFFF80
FFFFFFF000000001FFFFFFC000000007FFFFFF80
FFFFFFF000000001FFFFFFC000000007FFFFFF80
FFFFFFF000000001FFFFFFC000000007FFFFFF80
FFFFFFF000000001FFFFFFC000000007FFFFFF80
FFFFFFF000000001FFFFFFC000000007FFFFFF80
FFFFFFF000000001FFFFFFC000000007FFFFFF80
FFFFFFF000000001FFFFFFC000000007FFFFFF80
FFFFFFF000000001FFFFFFC000000007FFFFFF80
FFFFFFF000000001FFFFFFC000000007FFFFFF80
FFFFFFF000000001FFFFFFC000000007FFFFFF80
FFFFFFF000000001FFFFFFC000000007FFFFFF80
FFFFFFF000000001FFFFFFC000000007FFFFFF80
FFFFFFF000000001FFFFFFC000000007FFFFFF80
FFFFFFF000000001FFFFFFC000000007FFFFFF80
FFFFFFF000000001FFFFFFC000000007FFFFFF80
FFFFFFF000000001FFFFFFC000000007FFFFFF80
FFFFFFF000000001FFFFFFC000000007FFFFFF80
FFFFFFF000000001FFFFFFC000000007FFFFFF80
FFFFFFF000000001FFFFFFC000000007FFFFFF80
FFFFFFF000000001FFFFFFC000000007FFFFFF80
FFFFFFF000000001FFFFFFC000000007FFFFFF80
FFFFFFF000000001FFFFFFC000000007FFFFFF80
FFFFFFF000000001FFFFFFC000000007FFFFFF80
FFFFFFF000000001FFFFFFC000000007FFFFFF80
FFFFFFF000000001FFFFFFC000000007FFFFFF80
FFFFFFF000000001FFFFFFC000000007FFFFFF80
FFFFFFF000000001FFFFFFC000000007FFFFFF80
FFFFFFF000000001FFFFFFC000000007FFFFFF80
FFFFFFF000000001FFFFFFC000000007FFFFFF80
FFFFFFF000000001FFFFFFC000000007FFFFFF80
FFFFFFF000000001FFFFFFC000000007FFFFFF80
FFFFFFF000000001FFFFFFC000000007FFFFFF80
FFFFFFF000000001FFFFFFC000000007FFFFFF80
FFFFFFF000000001FFFFFFC000000007FFFFFF80
FFFFFFF000000001FFFFFFC000000007FFFFFF80
FFFFFFF000000001FFFFFFC000000007FFFFFF80
FFFFFFF000000001FFFFFFC000000007FFFFFF80
FFFFFFF000000001FFFFFFC000000007FFFFFF80
FFFFFFF000000001FFFFFFC000000007FFFFFF80
FFFFFFF000000001FFFFFFC000000007FFFFFF80
FFFFFFF000000001FFFFFFC000000007FFFFFF80
FFFFFFF000000001FFFFFFC000000007FFFFFF80
FFFFFFF000000001FFFFFFC000000007FFFFFF80
FFFFFFF000000001FFFFFFC000000007FFFFFF80
FFFFFFF000000001FFFFFFC000000007FFFFFF80
FFFFFFF000000001FFFFFFC000000007FFFFFF80
FFFFFFF000000001FFFFFFC000000007FFFFFF80
FFFFFFF000000001FFFFFFC000000007FFFFFF80
FFFFFFF000000001FFFFFFC000000007FFFFFF80
ENDCHAR
STARTCHAR 006E
ENCODING 78
SWIDTH 1318 0
DWIDTH 120 0
BBX 111 91 -5 -13
BITMAP
FFFFFFFFFFFFFFFFFFFFFF000000
FFFFFFFFFFFFFFFFFFFFFFF00000
FFFFFFFFFFFFFFFFFFFFFFFE0000
FFFFFFFFFFFFFFFFFFFFFFFF0000
FFFFFFFFFFFFFFFFFFFFFFFFC000
FFFFFFFFFFFFFFFFFFFFFFFFE000
FFFFFFFFFFFFFFFFFFFFFFFFF800
FFFFFFFFFFFFFFFFFFFFFFFFFC00
FFFFFFFFFFFFFFFFFFFFFFFFFE00
FFFFFFFFFFFFFFFFFFFFFFFFFF00
FFFFFFFFFFFFFFFFFFFFFFFFFF00
FFFFFFFFFFFFFFFFFFFFFFFFFF80
FFFFFFFFFFFFFFFFFFFFFFFFFFC0
FFFFFFFFFFFFFFFFFFFFFFFFFFC0
FFFFFFFFFFFFFFFFFFFFFFFFFFE0
FFFFFFFFFFFFFFFFFFFFFFFFFFE0
FFFFFFFFFFFFFFFFFFFFFFFFFFF0
FFFFFFFFFFFFFFFFFFFFFFFFFFF8
FFFFFFFFFFFFFFFFFFFFFFFFFFF8
FFFFFFFFFFFFFFFFFFFFFFFFFFFC
FFFFFFFFFFFFFFFFFFFFFFFFFFFC
FFFFFFFFFFFFFFFFFFFFFFFFFFFC
FFFFFFFFFFFFFFFFFFFFFFFFFFFC
FFFFFFFFFFFFFFFFFFFFFFFFFFFE
FFFFFFFFFFFFFFFFFFFFFFFFFFFE
FFFFFFFFFFFFFFFFFFFFFFFFFFFE
FFFFFFFFFFFFFFFFFFFFFFFFFFFE
FFFFFFFFFFFFFFFFFFFFFFFFFFFE
FFFFFFF00000000000001FFFFFFE
FFFFFFF00000000000001FFFFFFE
FFFFFFF00000000000001FFFFFFE
FFFFFFF00000000000001FFFFFFE
FFFFFFF00000000000001FFFFFFE
FFFFFFF00000000000001FFFFFFE
FFFFFFF00000000000001FFFFFFE
FFFFFFF00000000000001FFFFFFE
FFFFFFF00000000000001FFFFFFE
FFFFFFF00000000000001FFFFFFE
FFFFFFF00000000000001FFFFFFE
FFFFFFF00000000000001FFFFFFE
FFFFFFF00000000000001FFFFFFE
FFFFFFF00000000000001FFFFFFE
FFFFFFF00000000000001FFFFFFE
FFFFFFF00000000000001FFFFFFE
FFFFFFF00000000000001FFFFFFE
FFFFFFF00000000000001FFFFFFE
FFFFFFF00000000000001FFFFFFE
FFFFFFF00000000000001FFFFFFE
FFFFFFF00000000000001FFFFFFE
FFFFFFF00000000000001FFFFFFE
FFFFFFF00000000000001FFFFFFE
FFFFFFF00000000000001FFFFFFE
FFFFFFF00000000000001FFFFFFE
FFFFFFF00000000000001FFFFFFE
FFFFFFF00000000000001FFFFFFE
FFFFFFF00000000000001FFFFFFE
FFFFFFF00000000000001FFFFFFE
FFFFFFF00000000000001FFFFFFE
FFFFFFF00000000000001FFFFFFE
FFFFFFF00000000000001FFFFFFE
FFFFFFF00000000000001FFFFFFE
FFFFFFF00000000000001FFFFFFE
FFFFFFF00000000000001FFFFFFE
FFFFFFF00000000000001FFFFFFE
FFFFFFF00000000000001FFFFFFE
FFFFFFF00000000000001FFFFFFE
FFFFFFF00000000000001FFFFFFE
FFFFFFF00000000000001FFFFFFE
FFFFFFF00000000000001FFFFFFE
FFFFFFF00000000000001FFFFFFE
FFFFFFF00000000000001FFFFFFE
FFFFFFF00000000000001FFFFFFE
FFFFFFF00000000000001FFFFFFE
FFFFFFF00000000000001FFFFFFE
FFFFFFF00000000000001FFFFFFE
FFFFFFF00000000000001FFFFFFE
FFFFFFF00000000000001FFFFFFE
FFFFFFF00000000000001FFFFFFE
FFFFFFF00000000000001FFFFFFE
FFFFFFF00000000000001FFFFFFE
FFFFFFF00000000000001FFFFFFE
FFFFFFF00000000000001FFFFFFE
FFFFFFF00000000000001FFFFFFE
FFFFFFF00000000000001FFFFFFE
FFFFFFF00000000000001FFFFFFE
FFFFFFF00000000000001FFFFFFE
FFFFFFF00000000000001FFFFFFE
FFFFFFF00000000000001FFFFFFE
FFFFFFF00000000000001FFFFFFE
FFFFFFF00000000000001FFFFFFE
FFFFFFF00000000000001FFFFFFE
ENDCHAR
STARTCHAR 006F
ENCODING 79
SWIDTH 1318 0
DWIDTH 120 0
BBX 111 91 -5 -13
BITMAP
0000007FFFFFFFFFFFFFFE000000
000007FFFFFFFFFFFFFFFFE00000
00003FFFFFFFFFFFFFFFFFFC0000
0000FFFFFFFFFFFFFFFFFFFF0000
0003FFFFFFFFFFFFFFFFFFFFC000
0007FFFFFFFFFFFFFFFFFFFFE000
001FFFFFFFFFFFFFFFFFFFFFF800
003FFFFFFFFFFFFFFFFFFFFFFC00
00FFFFFFFFFFFFFFFFFFFFFFFE00
00FFFFFFFFFFFFFFFFFFFFFFFF00
01FFFFFFFFFFFFFFFFFFFFFFFF00
03FFFFFFFFFFFFFFFFFFFFFFFF80
07FFFFFFFFFFFFFFFFFFFFFFFF80
07FFFFFFFFFFFFFFFFFFFFFFFFC0
0FFFFFFFFFFFFFFFFFFFFFFFFFE0
1FFFFFFFFFFFFFFFFFFFFFFFFFE0
1FFFFFFFFFFFFFFFFFFFFFFFFFF0
3FFFFFFFFFFFFFFFFFFFFFFFFFF8
3FFFFFFFFFFFFFFFFFFFFFFFFFF8
7FFFFFFFFFFFFFFFFFFFFFFFFFFC
7FFFFFFFFFFFFFFFFFFFFFFFFFFC
7FFFFFFFFFFFFFFFFFFFFFFFFFFC
7FFFFFFFFFFFFFFFFFFFFFFFFFFE
7FFFFFFFFFFFFFFFFFFFFFFFFFFE
FFFFFFFFFFFFFFFFFFFFFFFFFFFE
FFFFFFFFFFFFFFFFFFFFFFFFFFFE
FFFFFFFFFFFFFFFFFFFFFFFFFFFE
FFFFFFFFFFFFFFFFFFFFFFFFFFFE
FFFFFFF00000000000001FFFFFFE
FFFFFFF00000000000001FFFFFFE
FFFFFFF00000000000001FFFFFFE
FFFFFFF00000000000001FFFFFFE
FFFFFFF00000000000001FFFFFFE
FFFFFFF00000000000001FFFFFFE
FFFFFFF00000000000001FFFFFFE
FFFFFFF00000000000001FFFFFFE
FFFFFFF00000000000001FFFFFFE
FFFFFFF00000000000001FFFFFFE
FFFFFFF00000000000001FFFFFFE
FFFFFFF00000000000001FFFFFFE
FFFFFFF00000000000001FFFFFFE
FFFFFFF00000000000001FFFFFFE
FFFFFFF00000000000001FFFFFFE
FFFFFFF00000000000001FFFFFFE
FFFFFFF00000000000001FFFFFFE
FFFFFFF00000000000001FFFFFFE
FFFFFFF00000000000001FFFFFFE
FFFFFFF00000000000001FFFFFFE
FFFFFFF00000000000001FFFFFFE
FFFFFFF00000000000001FFFFFFE
FFFFFFF00000000000001FFFFFFE
FFFFFFF00000000000001FFFFFFE
FFFFFFF00000000000001FFFFFFE
FFFFFFF00000000000001FFFFFFE
FFFFFFF00000000000001FFFFFFE
FFFFFFF00000000000001FFFFFFE
FFFFFFF00000000000001FFFFFFE
FFFFFFF00000000000001FFFFFFE
FFFFFFF00000000000001FFFFFFE
FFFFFFF00000000000001FFFFFFE
FFFFFFF00000000000001FFFFFFE
FFFFFFF00000000000001FFFFFFE
FFFFFFFFFFFFFFFFFFFFFFFFFFFE
FFFFFFFFFFFFFFFFFFFFFFFFFFFE
FFFFFFFFFFFFFFFFFFFFFFFFFFFE
FFFFFFFFFFFFFFFFFFFFFFFFFFFE
FFFFFFFFFFFFFFFFFFFFFFFFFFFE
7FFFFFFFFFFFFFFFFFFFFFFFFFFE
7FFFFFFFFFFFFFFFFFFFFFFFFFFC
7FFFFFFFFFFFFFFFFFFFFFFFFFFC
3FFFFFFFFFFFFFFFFFFFFFFFFFFC
3FFFFFFFFFFFFFFFFFFFFFFFFFF8
3FFFFFFFFFFFFFFFFFFFFFFFFFF8
1FFFFFFFFFFFFFFFFFFFFFFFFFF0
1FFFFFFFFFFFFFFFFFFFFFFFFFF0
0FFFFFFFFFFFFFFFFFFFFFFFFFF0
07FFFFFFFFFFFFFFFFFFFFFFFFE0
07FFFFFFFFFFFFFFFFFFFFFFFFE0
03FFFFFFFFFFFFFFFFFFFFFFFFC0
03FFFFFFFFFFFFFFFFFFFFFFFF80
01FFFFFFFFFFFFFFFFFFFFFFFF00
00FFFFFFFFFFFFFFFFFFFFFFFE00
007FFFFFFFFFFFFFFFFFFFFFFC00
003FFFFFFFFFFFFFFFFFFFFFF800
001FFFFFFFFFFFFFFFFFFFFFE000
000FFFFFFFFFFFFFFFFFFFFFC000
0007FFFFFFFFFFFFFFFFFFFF0000
0001FFFFFFFFFFFFFFFFFFFE0000
00007FFFFFFFFFFFFFFFFFF80000
00000FFFFFFFFFFFFFFFFFC00000
000000FFFFFFFFFFFFFFFE000000
ENDCHAR
STARTCHAR 0070
ENCODING 80
SWIDTH 1318 0
DWIDTH 120 0
BBX 112 91 -5 -13
BITMAP
FFFFFFFFFFFFFFFFFFFFFE000000
FFFFFFFFFFFFFFFFFFFFFFE00000
FFFFFFFFFFFFFFFFFFFFFFFE0000
FFFFFFFFFFFFFFFFFFFFFFFF8000
FFFFFFFFFFFFFFFFFFFFFFFFC000
FFFFFFFFFFFFFFFFFFFFFFFFF000
FFFFFFFFFFFFFFFFFFFFFFFFF800
FFFFFFFFFFFFFFFFFFFFFFFFFC00
FFFFFFFFFFFFFFFFFFFFFFFFFF00
FFFFFFFFFFFFFFFFFFFFFFFFFF00
FFFFFFFFFFFFFFFFFFFFFFFFFF80
FFFFFFFFFFFFFFFFFFFFFFFFFFC0
FFFFFFFFFFFFFFFFFFFFFFFFFFC0
FFFFFFFFFFFFFFFFFFFFFFFFFFE0
FFFFFFFFFFFFFFFFFFFFFFFFFFE0
FFFFFFFFFFFFFFFFFFFFFFFFFFF0
FFFFFFFFFFFFFFFFFFFFFFFFFFF8
FFFFFFFFFFFFFFFFFFFFFFFFFFF8
FFFFFFFFFFFFFFFFFFFFFFFFFFFC
FFFFFFFFFFFFFFFFFFFFFFFFFFFC
FFFFFFFFFFFFFFFFFFFFFFFFFFFC
FFFFFFFFFFFFFFFFFFFFFFFFFFFE
FFFFFFFFFFFFFFFFFFFFFFFFFFFE
FFFFFFFFFFFFFFFFFFFFFFFFFFFE
FFFFFFFFFFFFFFFFFFFFFFFFFFFF
FFFFFFFFFFFFFFFFFFFFFFFFFFFF
FFFFFFFFFFFFFFFFFFFFFFFFFFFF
FFFFFFFFFFFFFFFFFFFFFFFFFFFF
FFFFFFF00000000000000FFFFFFF
FFFFFFF00000000000000FFFFFFF
FFFFFFF00000000000000FFFFFFF
FFFFFFF00000000000000FFFFFFF
FFFFFFF00000000000000FFFFFFF
FFFFFFF00000000000000FFFFFFF
FFFFFFF00000000000000FFFFFFF
FFFFFFF00000000000000FFFFFFF
FFFFFFF00000000000000FFFFFFF
FFFFFFF00000000000000FFFFFFF
FFFFFFF00000000000000FFFFFFF
FFFFFFF00000000000000FFFFFFF
FFFFFFF00000000000000FFFFFFF
FFFFFFF00000000000000FFFFFFF
FFFFFFFFFFFFFFFFFFFFFFFFFFFF
FFFFFFFFFFFFFFFFFFFFFFFFFFFF
FFFFFFFFFFFFFFFFFFFFFFFFFFFF
FFFFFFFFFFFFFFFFFFFFFFFFFFFE
FFFFFFFFFFFFFFFFFFFFFFFFFFFE
FFFFFFFFFFFFFFFFFFFFFFFFFFFE
FFFFFFFFFFFFFFFFFFFFFFFFFFFE
FFFFFFFFFFFFFFFFFFFFFFFFFFFC
FFFFFFFFFFFFFFFFFFFFFFFFFFFC
FFFFFFFFFFFFFFFFFFFFFFFFFFFC
FFFFFFFFFFFFFFFFFFFFFFFFFFF8
FFFFFFFFFFFFFFFFFFFFFFFFFFF8
FFFFFFFFFFFFFFFFFFFFFFFFFFF0
FFFFFFFFFFFFFFFFFFFFFFFFFFF0
FFFFFFFFFFFFFFFFFFFFFFFFFFE0
FFFFFFFFFFFFFFFFFFFFFFFFFFC0
FFFFFFFFFFFFFFFFFFFFFFFFFFC0
FFFFFFFFFFFFFFFFFFFFFFFFFF80
FFFFFFFFFFFFFFFFFFFFFFFFFF00
FFFFFFFFFFFFFFFFFFFFFFFFFE00
FFFFFFFFFFFFFFFFFFFFFFFFF800
FFFFFFFFFFFFFFFFFFFFFFFFF000
FFFFFFFFFFFFFFFFFFFFFFFFC000
FFFFFFFFFFFFFFFFFFFFFFFF8000
FFFFFFFFFFFFFFFFFFFFFFFE0000
FFFFFFFFFFFFFFFFFFFFFFF80000
FFFFFFFFFFFFFFFFFFFFFFC00000
FFFFFFFFFFFFFFFFFFFFF0000000
FFFFFFF000000000000000000000
FFFFFFF000000000000000000000
FFFFFFF000000000000000000000
FFFFFFF000000000000000000000
FFFFFFF000000000000000000000
FFFFFFF000000000000000000000
FFFFFFF000000000000000000000
FFFFFFF000000000000000000000
FFFFFFF000000000000000000000
FFFFFFF000000000000000000000
FFFFFFF000000000000000000000
FFFFFFF000000000000000000000
FFFFFFF000000000000000000000
FFFFFFF000000000000000000000
FFFFFFF000000000000000000000
FFFFFFF000000000000000000000
FFFFFFF000000000000000000000
FFFFFFF000000000000000000000
FFFFFFF000000000000000000000
FFFFFFF000000000000000000000
FFFFFFF000000000000000000000
ENDCHAR
STARTCHAR 0071
ENCODING 81
SWIDTH 1318 0
DWIDTH 120 0
BBX 118 91 0 -13
BITMAP
0000003FFFFFFFFFFFFFFF00000000
00000FFFFFFFFFFFFFFFFFF0000000
00003FFFFFFFFFFFFFFFFFFC000000
0000FFFFFFFFFFFFFFFFFFFF000000
0001FFFFFFFFFFFFFFFFFFFFC00000
0007FFFFFFFFFFFFFFFFFFFFF00000
001FFFFFFFFFFFFFFFFFFFFFF80000
003FFFFFFFFFFFFFFFFFFFFFFC0000
00FFFFFFFFFFFFFFFFFFFFFFFE0000
00FFFFFFFFFFFFFFFFFFFFFFFF0000
01FFFFFFFFFFFFFFFFFFFFFFFF8000
03FFFFFFFFFFFFFFFFFFFFFFFF8000
07FFFFFFFFFFFFFFFFFFFFFFFFC000
0FFFFFFFFFFFFFFFFFFFFFFFFFE000
0FFFFFFFFFFFFFFFFFFFFFFFFFE000
1FFFFFFFFFFFFFFFFFFFFFFFFFF000
1FFFFFFFFFFFFFFFFFFFFFFFFFF800
3FFFFFFFFFFFFFFFFFFFFFFFFFF800
3FFFFFFFFFFFFFFFFFFFFFFFFFFC00
7FFFFFFFFFFFFFFFFFFFFFFFFFFC00
7FFFFFFFFFFFFFFFFFFFFFFFFFFC00
7FFFFFFFFFFFFFFFFFFFFFFFFFFE00
7FFFFFFFFFFFFFFFFFFFFFFFFFFE00
FFFFFFFFFFFFFFFFFFFFFFFFFFFE00
FFFFFFFFFFFFFFFFFFFFFFFFFFFE00
FFFFFFFFFFFFFFFFFFFFFFFFFFFE00
FFFFFFFFFFFFFFFFFFFFFFFFFFFF00
FFFFFFFFFFFFFFFFFFFFFFFFFFFF00
FFFFFFF00000000000001FFFFFFF00
FFFFFFF00000000000001FFFFFFF00
FFFFFFF00000000000001FFFFFFF00
FFFFFFF00000000000001FFFFFFF00
FFFFFFF00000000000001FFFFFFF00
FFFFFFF00000000000001FFFFFFF00
FFFFFFF00000000000001FFFFFFF00
FFFFFFF00000000000001FFFFFFF00
FFFFFFF00000000000001FFFFFFF00
FFFFFFF00000000000001FFFFFFF00
FFFFFFF00000000000001FFFFFFF00
FFFFFFF00000000000001FFFFFFF00
FFFFFFF00000000000001FFFFFFF00
FFFFFFF00000000000001FFFFFFF00
FFFFFFF00000000000001FFFFFFF00
FFFFFFF00000000000001FFFFFFF00
FFFFFFF00000000000001FFFFFFF00
FFFFFFF00000000000001FFFFFFF00
FFFFFFF00000000000001FFFFFFF00
FFFFFFF00000000000001FFFFFFF00
FFFFFFF00000000000001FFFFFFF00
FFFFFFF00000000000001FFFFFFF00
FFFFFFF00000000000001FFFFFFF00
FFFFFFF00000000000001FFFFFFF00
FFFFFFF00000000000001FFFFFFF00
FFFFFFF00000000000001FFFFFFF00
FFFFFFF00000000000001FFFFFFF00
FFFFFFF00000000000001FFFFFFF00
FFFFFFF00000000000001FFFFFFF00
FFFFFFF00000000000001FFFFFFF00
FFFFFFF00000000000001FFFFFFF00
FFFFFFF00000000000001FFFFFFF00
FFFFFFF00000000000001FFFFFFF00
FFFFFFF00000000000001FFFFFFF00
FFFFFFFFFFFFFFFFFFFFFFFFFFFFFC
FFFFFFFFFFFFFFFFFFFFFFFFFFFFFC
FFFFFFFFFFFFFFFFFFFFFFFFFFFFFC
FFFFFFFFFFFFFFFFFFFFFFFFFFFFFC
FFFFFFFFFFFFFFFFFFFFFFFFFFFFFC
7FFFFFFFFFFFFFFFFFFFFFFFFFFFFC
7FFFFFFFFFFFFFFFFFFFFFFFFFFFFC
7FFFFFFFFFFFFFFFFFFFFFFFFFFFFC
7FFFFFFFFFFFFFFFFFFFFFFFFFFFFC
3FFFFFFFFFFFFFFFFFFFFFFFFFFFFC
3FFFFFFFFFFFFFFFFFFFFFFFFFFFFC
1FFFFFFFFFFFFFFFFFFFFFFFFFFFFC
1FFFFFFFFFFFFFFFFFFFFFFFFFFFFC
0FFFFFFFFFFFFFFFFFFFFFFFFFFFFC
07FFFFFFFFFFFFFFFFFFFFFFFFFFFC
07FFFFFFFFFFFFFFFFFFFFFFFFFFFC
03FFFFFFFFFFFFFFFFFFFFFFFFFFFC
03FFFFFFFFFFFFFFFFFFFFFFFFFFFC
01FFFFFFFFFFFFFFFFFFFFFFFFFFFC
00FFFFFFFFFFFFFFFFFFFFFFFFFFFC
007FFFFFFFFFFFFFFFFFFFFFFFFFFC
003FFFFFFFFFFFFFFFFFFFFFFFFFFC
001FFFFFFFFFFFFFFFFFFFFFFFFFFC
000FFFFFFFFFFFFFFFFFFFFFFFFFFC
0003FFFFFFFFFFFFFFFFFFFFFFFFFC
0001FFFFFFFFFFFFFFFFFFFFFFFFFC
00007FFFFFFFFFFFFFFFFFFFFFFFFC
00000FFFFFFFFFFFFFFFFFFFFFFFFC
000000FFFFFFFFFFFFFFFFFFFFFFFC
ENDCHAR
STARTCHAR 0072
ENCODING 82
SWIDTH 1318 0
DWIDTH 120 0
BBX 112 91 -5 -13
BITMAP
FFFFFFFFFFFFFFFFFFFFFE000000
FFFFFFFFFFFFFFFFFFFFFFF00000
FFFFFFFFFFFFFFFFFFFFFFFE0000
FFFFFFFFFFFFFFFFFFFFFFFF8000
FFFFFFFFFFFFFFFFFFFFFFFFE000
FFFFFFFFFFFFFFFFFFFFFFFFF000
FFFFFFFFFFFFFFFFFFFFFFFFF800
FFFFFFFFFFFFFFFFFFFFFFFFFC00
FFFFFFFFFFFFFFFFFFFFFFFFFF00
FFFFFFFFFFFFFFFFFFFFFFFFFF80
FFFFFFFFFFFFFFFFFFFFFFFFFF80
FFFFFFFFFFFFFFFFFFFFFFFFFFC0
FFFFFFFFFFFFFFFFFFFFFFFFFFC0
FFFFFFFFFFFFFFFFFFFFFFFFFFE0
FFFFFFFFFFFFFFFFFFFFFFFFFFF0
FFFFFFFFFFFFFFFFFFFFFFFFFFF0
FFFFFFFFFFFFFFFFFFFFFFFFFFF8
FFFFFFFFFFFFFFFFFFFFFFFFFFFC
FFFFFFFFFFFFFFFFFFFFFFFFFFFC
FFFFFFFFFFFFFFFFFFFFFFFFFFFE
FFFFFFFFFFFFFFFFFFFFFFFFFFFE
FFFFFFF00000000000000FFFFFFE
FFFFFFF00000000000000FFFFFFE
FFFFFFF00000000000000FFFFFFF
FFFFFFF00000000000000FFFFFFF
FFFFFFF00000000000000FFFFFFF
FFFFFFF00000000000000FFFFFFF
FFFFFFF00000000000000FFFFFFF
FFFFFFF00000000000000FFFFFFF
FFFFFFF00000000000000FFFFFFF
FFFFFFF00000000000000FFFFFFF
FFFFFFF00000000000000FFFFFFF
FFFFFFF00000000000000FFFFFFF
FFFFFFF00000000000000FFFFFFF
FFFFFFF00000000000000FFFFFFE
FFFFFFFFFFFFFFFFFFFFFFFFFFFE
FFFFFFFFFFFFFFFFFFFFFFFFFFFE
FFFFFFFFFFFFFFFFFFFFFFFFFFFE
FFFFFFFFFFFFFFFFFFFFFFFFFFFC
FFFFFFFFFFFFFFFFFFFFFFFFFFF8
FFFFFFFFFFFFFFFFFFFFFFFFFFF8
FFFFFFFFFFFFFFFFFFFFFFFFFFF0
FFFFFFFFFFFFFFFFFFFFFFFFFFF0
FFFFFFFFFFFFFFFFFFFFFFFFFFE0
FFFFFFFFFFFFFFFFFFFFFFFFFFE0
FFFFFFFFFFFFFFFFFFFFFFFFFFF0
FFFFFFFFFFFFFFFFFFFFFFFFFFF0
FFFFFFFFFFFFFFFFFFFFFFFFFFF8
FFFFFFFFFFFFFFFFFFFFFFFFFFFC
FFFFFFFFFFFFFFFFFFFFFFFFFFFC
FFFFFFFFFFFFFFFFFFFFFFFFFFFE
FFFFFFFFFFFFFFFFFFFFFFFFFFFE
FFFFFFFFFFFFFFFFFFFFFFFFFFFF
FFFFFFFFFFFFFFFFFFFFFFFFFFFF
FFFFFFFFFFFFFFFFFFFFFFFFFFFF
FFFFFFFFFFFFFFFFFFFFFFFFFFFF
FFFFFFF00000000000000FFFFFFF
FFFFFFF00000000000000FFFFFFF
FFFFFFF00000000000000FFFFFFF
FFFFFFF00000000000000FFFFFFF
FFFFFFF00000000000000FFFFFFF
FFFFFFF00000000000000FFFFFFF
FFFFFFF00000000000000FFFFFFF
FFFFFFF00000000000000FFFFFFF
FFFFFFF00000000000000FFFFFFF
FFFFFFF00000000000000FFFFFFF
FFFFFFF00000000000000FFFFFFF
FFFFFFF00000000000000FFFFFFF
FFFFFFF00000000000000FFFFFFF
FFFFFFF00000000000000FFFFFFF
FFFFFFF00000000000000FFFFFFF
FFFFFFF00000000000000FFFFFFF
FFFFFFF00000000000000FFFFFFF
FFFFFFF00000000000000FFFFFFF
FFFFFFF00000000000000FFFFFFF
FFFFFFF00000000000000FFFFFFF
FFFFFFF00000000000000FFFFFFF
FFFFFFF00000000000000FFFFFFF
FFFFFFF00000000000000FFFFFFF
FFFFFFF00000000000000FFFFFFF
FFFFFFF00000000000000FFFFFFF
FFFFFFF00000000000000FFFFFFF
FFFFFFF00000000000000FFFFFFF
FFFFFFF00000000000000FFFFFFF
FFFFFFF00000000000000FFFFFFF
FFFFFFF00000000000000FFFFFFF
FFFFFFF00000000000000FFFFFFF
FFFFFFF00000000000000FFFFFFF
FFFFFFF00000000000000FFFFFFF
FFFFFFF00000000000000FFFFFFF
FFFFFFF00000000000000FFFFFFF
ENDCHAR
STARTCHAR 0073
ENCODING 83
SWIDTH 1318 0
DWIDTH 120 0
BBX 112 91 -5 -13
BITMAP
000001FFFFFFFFFFFFFFFFFFFFFF
00001FFFFFFFFFFFFFFFFFFFFFFF
0000FFFFFFFFFFFFFFFFFFFFFFFF
0003FFFFFFFFFFFFFFFFFFFFFFFF
000FFFFFFFFFFFFFFFFFFFFFFFFF
003FFFFFFFFFFFFFFFFFFFFFFFFF
007FFFFFFFFFFFFFFFFFFFFFFFFF
01FFFFFFFFFFFFFFFFFFFFFFFFFF
03FFFFFFFFFFFFFFFFFFFFFFFFFF
07FFFFFFFFFFFFFFFFFFFFFFFFFF
0FFFFFFFFFFFFFFFFFFFFFFFFFFF
1FFFFFFFFFFFFFFFFFFFFFFFFFFF
1FFFFFFFFFFFFFFFFFFFFFFFFFFF
3FFFFFFFFFFFFFFFFFFFFFFFFFFF
3FFFFFFFFFFFFFFFFFFFFFFFFFFF
7FFFFFFFFFFFFFFFFFFFFFFFFFFF
7FFFFFFFFFFFFFFFFFFFFFFFFFFF
FFFFFFFFFFFFFFFFFFFFFFFFFFFF
FFFFFFFFFFFFFFFFFFFFFFFFFFFF
FFFFFFFFFFFFFFFFFFFFFFFFFFFF
FFFFFFFFFFFFFFFFFFFFFFFFFFFF
FFFFFFF000000000000000000000
FFFFFFF000000000000000000000
FFFFFFF000000000000000000000
FFFFFFF000000000000000000000
FFFFFFF000000000000000000000
FFFFFFF000000000000000000000
FFFFFFF000000000000000000000
FFFFFFF000000000000000000000
FFFFFFF000000000000000000000
FFFFFFF000000000000000000000
FFFFFFF000000000000000000000
FFFFFFF000000000000000000000
FFFFFFF000000000000000000000
FFFFFFF000000000000000000000
FFFFFFFFFFFFFFFFFFFFFF000000
FFFFFFFFFFFFFFFFFFFFFFF80000
FFFFFFFFFFFFFFFFFFFFFFFF0000
7FFFFFFFFFFFFFFFFFFFFFFFC000
7FFFFFFFFFFFFFFFFFFFFFFFF000
7FFFFFFFFFFFFFFFFFFFFFFFFC00
3FFFFFFFFFFFFFFFFFFFFFFFFE00
3FFFFFFFFFFFFFFFFFFFFFFFFF00
1FFFFFFFFFFFFFFFFFFFFFFFFF80
0FFFFFFFFFFFFFFFFFFFFFFFFFE0
0FFFFFFFFFFFFFFFFFFFFFFFFFE0
07FFFFFFFFFFFFFFFFFFFFFFFFF0
03FFFFFFFFFFFFFFFFFFFFFFFFF8
01FFFFFFFFFFFFFFFFFFFFFFFFF8
00FFFFFFFFFFFFFFFFFFFFFFFFFC
003FFFFFFFFFFFFFFFFFFFFFFFFC
001FFFFFFFFFFFFFFFFFFFFFFFFE
0007FFFFFFFFFFFFFFFFFFFFFFFE
0000FFFFFFFFFFFFFFFFFFFFFFFE
00001FFFFFFFFFFFFFFFFFFFFFFE
000001FFFFFFFFFFFFFFFFFFFFFF
000000000000000000001FFFFFFF
000000000000000000001FFFFFFF
000000000000000000001FFFFFFF
000000000000000000001FFFFFFF
000000000000000000001FFFFFFF
000000000000000000001FFFFFFF
000000000000000000001FFFFFFF
000000000000000000001FFFFFFF
000000000000000000001FFFFFFF
000000000000000000001FFFFFFF
000000000000000000001FFFFFFF
000000000000000000001FFFFFFF
000000000000000000001FFFFFFF
000000000000000000001FFFFFFF
FFFFFFFFFFFFFFFFFFFFFFFFFFFF
FFFFFFFFFFFFFFFFFFFFFFFFFFFF
FFFFFFFFFFFFFFFFFFFFFFFFFFFE
FFFFFFFFFFFFFFFFFFFFFFFFFFFE
FFFFFFFFFFFFFFFFFFFFFFFFFFFE
FFFFFFFFFFFFFFFFFFFFFFFFFFFC
FFFFFFFFFFFFFFFFFFFFFFFFFFFC
FFFFFFFFFFFFFFFFFFFFFFFFFFFC
FFFFFFFFFFFFFFFFFFFFFFFFFFF8
FFFFFFFFFFFFFFFFFFFFFFFFFFF0
FFFFFFFFFFFFFFFFFFFFFFFFFFF0
FFFFFFFFFFFFFFFFFFFFFFFFFFE0
FFFFFFFFFFFFFFFFFFFFFFFFFF80
FFFFFFFFFFFFFFFFFFFFFFFFFF00
FFFFFFFFFFFFFFFFFFFFFFFFFC00
FFFFFFFFFFFFFFFFFFFFFFFFF800
FFFFFFFFFFFFFFFFFFFFFFFFE000
FFFFFFFFFFFFFFFFFFFFFFFF8000
FFFFFFFFFFFFFFFFFFFFFFFE0000
FFFFFFFFFFFFFFFFFFFFFFF80000
FFFFFFFFFFFFFFFFFFFFFF000000
ENDCHAR
STARTCHAR 0074
ENCODING 84
SWIDTH 1318 0
DWIDTH 120 0
BBX 112 91 -5 -13
BITMAP
FFFFFFFFFFFFFFFFFFFFFFFFFFFF
FFFFFFFFFFFFFFFFFFFFFFFFFFFF
FFFFFFFFFFFFFFFFFFFFFFFFFFFF
FFFFFFFFFFFFFFFFFFFFFFFFFFFF
FFFFFFFFFFFFFFFFFFFFFFFFFFFF
FFFFFFFFFFFFFFFFFFFFFFFFFFFF
FFFFFFFFFFFFFFFFFFFFFFFFFFFF
FFFFFFFFFFFFFFFFFFFFFFFFFFFF
FFFFFFFFFFFFFFFFFFFFFFFFFFFF
FFFFFFFFFFFFFFFFFFFFFFFFFFFF
FFFFFFFFFFFFFFFFFFFFFFFFFFFF
FFFFFFFFFFFFFFFFFFFFFFFFFFFF
FFFFFFFFFFFFFFFFFFFFFFFFFFFF
FFFFFFFFFFFFFFFFFFFFFFFFFFFF
FFFFFFFFFFFFFFFFFFFFFFFFFFFF
FFFFFFFFFFFFFFFFFFFFFFFFFFFF
FFFFFFFFFFFFFFFFFFFFFFFFFFFF
FFFFFFFFFFFFFFFFFFFFFFFFFFFF
FFFFFFFFFFFFFFFFFFFFFFFFFFFF
FFFFFFFFFFFFFFFFFFFFFFFFFFFF
FFFFFFFFFFFFFFFFFFFFFFFFFFFF
FFFFFFFFFFFFFFFFFFFFFFFFFFFF
FFFFFFFFFFFFFFFFFFFFFFFFFFFF
FFFFFFFFFFFFFFFFFFFFFFFFFFFF
FFFFFFFFFFFFFFFFFFFFFFFFFFFF
FFFFFFFFFFFFFFFFFFFFFFFFFFFF
FFFFFFFFFFFFFFFFFFFFFFFFFFFF
FFFFFFFFFFFFFFFFFFFFFFFFFFFF
00000000003FFFFFFC0000000000
00000000003FFFFFFC0000000000
00000000003FFFFFFC0000000000
00000000003FFFFFFC0000000000
00000000003FFFFFFC0000000000
00000000003FFFFFFC0000000000
00000000003FFFFFFC0000000000
00000000003FFFFFFC0000000000
00000000003FFFFFFC0000000000
00000000003FFFFFFC0000000000
00000000003FFFFFFC0000000000
00000000003FFFFFFC0000000000
00000000003FFFFFFC0000000000
00000000003FFFFFFC0000000000
00000000003FFFFFFC0000000000
00000000003FFFFFFC0000000000
00000000003FFFFFFC0000000000
00000000003FFFFFFC0000000000
00000000003FFFFFFC0000000000
00000000003FFFFFFC0000000000
00000000003FFFFFFC0000000000
00000000003FFFFFFC0000000000
00000000003FFFFFFC0000000000
00000000003FFFFFFC0000000000
00000000003FFFFFFC0000000000
00000000003FFFFFFC0000000000
00000000003FFFFFFC0000000000
00000000003FFFFFFC0000000000
00000000003FFFFFFC0000000000
00000000003FFFFFFC0000000000
00000000003FFFFFFC0000000000
00000000003FFFFFFC0000000000
00000000003FFFFFFC0000000000
00000000003FFFFFFC0000000000
00000000003FFFFFFC0000000000
00000000003FFFFFFC0000000000
00000000003FFFFFFC0000000000
00000000003FFFFFFC0000000000
00000000003FFFFFFC0000000000
00000000003FFFFFFC0000000000
00000000003FFFFFFC0000000000
00000000003FFFFFFC0000000000
00000000003FFFFFFC0000000000
00000000003FFFFFFC0000000000
00000000003FFFFFFC0000000000
00000000003FFFFFFC0000000000
00000000003FFFFFFC0000000000
00000000003FFFFFFC0000000000
00000000003FFFFFFC0000000000
00000000003FFFFFFC0000000000
00000000003FFFFFFC0000000000
00000000003FFFFFFC0000000000
00000000003FFFFFFC0000000000
00000000003FFFFFFC0000000000
00000000003FFFFFFC0000000000
00000000003FFFFFFC0000000000
00000000003FFFFFFC0000000000
00000000003FFFFFFC0000000000
00000000003FFFFFFC0000000000
00000000003FFFFFFC0000000000
00000000003FFFFFFC0000000000
00000000003FFFFFFC0000000000
00000000003FFFFFFC0000000000
ENDCHAR
STARTCHAR 0075
ENCODING 85
SWIDTH 1318 0
DWIDTH 120 0
BBX 112 91 -5 -13
BITMAP
FFFFFFF00000000000000FFFFFFF
FFFFFFF00000000000000FFFFFFF
FFFFFFF00000000000000FFFFFFF
FFFFFFF00000000000000FFFFFFF
FFFFFFF00000000000000FFFFFFF
FFFFFFF00000000000000FFFFFFF
FFFFFFF00000000000000FFFFFFF
FFFFFFF00000000000000FFFFFFF
FFFFFFF00000000000000FFFFFFF
FFFFFFF00000000000000FFFFFFF
FFFFFFF00000000000000FFFFFFF
FFFFFFF00000000000000FFFFFFF
FFFFFFF00000000000000FFFFFFF
FFFFFFF00000000000000FFFFFFF
FFFFFFF00000000000000FFFFFFF
FFFFFFF00000000000000FFFFFFF
FFFFFFF00000000000000FFFFFFF
FFFFFFF00000000000000FFFFFFF
FFFFFFF00000000000000FFFFFFF
FFFFFFF00000000000000FFFFFFF
FFFFFFF00000000000000FFFFFFF
FFFFFFF00000000000000FFFFFFF
FFFFFFF00000000000000FFFFFFF
FFFFFFF00000000000000FFFFFFF
FFFFFFF00000000000000FFFFFFF
FFFFFFF00000000000000FFFFFFF
FFFFFFF00000000000000FFFFFFF
FFFFFFF00000000000000FFFFFFF
FFFFFFF00000000000000FFFFFFF
FFFFFFF00000000000000FFFFFFF
FFFFFFF00000000000000FFFFFFF
FFFFFFF00000000000000FFFFFFF
FFFFFFF00000000000000FFFFFFF
FFFFFFF00000000000000FFFFFFF
FFFFFFF00000000000000FFFFFFF
FFFFFFF00000000000000FFFFFFF
FFFFFFF00000000000000FFFFFFF
FFFFFFF00000000000000FFFFFFF
FFFFFFF00000000000000FFFFFFF
FFFFFFF00000000000000FFFFFFF
FFFFFFF00000000000000FFFFFFF
FFFFFFF00000000000000FFFFFFF
FFFFFFF00000000000000FFFFFFF
FFFFFFF00000000000000FFFFFFF
FFFFFFF00000000000000FFFFFFF
FFFFFFF00000000000000FFFFFFF
FFFFFFF00000000000000FFFFFFF
FFFFFFF00000000000000FFFFFFF
FFFFFFF00000000000000FFFFFFF
FFFFFFF00000000000000FFFFFFF
FFFFFFF00000000000000FFFFFFF
FFFFFFF00000000000000FFFFFFF
FFFFFFF00000000000000FFFFFFF
FFFFFFF00000000000000FFFFFFF
FFFFFFF00000000000000FFFFFFF
FFFFFFF00000000000000FFFFFFF
FFFFFFF00000000000000FFFFFFF
FFFFFFF00000000000000FFFFFFF
FFFFFFF00000000000000FFFFFFF
FFFFFFF00000000000000FFFFFFF
FFFFFFF00000000000000FFFFFFF
FFFFFFF00000000000000FFFFFFF
FFFFFFF00000000000000FFFFFFF
FFFFFFFFFFFFFFFFFFFFFFFFFFFF
FFFFFFFFFFFFFFFFFFFFFFFFFFFF
FFFFFFFFFFFFFFFFFFFFFFFFFFFF
FFFFFFFFFFFFFFFFFFFFFFFFFFFF
7FFFFFFFFFFFFFFFFFFFFFFFFFFF
7FFFFFFFFFFFFFFFFFFFFFFFFFFF
7FFFFFFFFFFFFFFFFFFFFFFFFFFF
7FFFFFFFFFFFFFFFFFFFFFFFFFFF
3FFFFFFFFFFFFFFFFFFFFFFFFFFF
3FFFFFFFFFFFFFFFFFFFFFFFFFFF
3FFFFFFFFFFFFFFFFFFFFFFFFFFF
1FFFFFFFFFFFFFFFFFFFFFFFFFFF
0FFFFFFFFFFFFFFFFFFFFFFFFFFF
0FFFFFFFFFFFFFFFFFFFFFFFFFFF
07FFFFFFFFFFFFFFFFFFFFFFFFFF
03FFFFFFFFFFFFFFFFFFFFFFFFFF
03FFFFFFFFFFFFFFFFFFFFFFFFFF
01FFFFFFFFFFFFFFFFFFFFFFFFFF
01FFFFFFFFFFFFFFFFFFFFFFFFFF
00FFFFFFFFFFFFFFFFFFFFFFFFFF
007FFFFFFFFFFFFFFFFFFFFFFFFF
003FFFFFFFFFFFFFFFFFFFFFFFFF
000FFFFFFFFFFFFFFFFFFFFFFFFF
0007FFFFFFFFFFFFFFFFFFFFFFFF
0001FFFFFFFFFFFFFFFFFFFFFFFF
00007FFFFFFFFFFFFFFFFFFFFFFF
00000FFFFFFFFFFFFFFFFFFFFFFF
000001FFFFFFFFFFFFFFFFFFFFFF
ENDCHAR
STARTCHAR 0076
ENCODING 86
SWIDTH 1318 0
DWIDTH 120 0
BBX 112 91 -5 -13
BITMAP
FFFFFFF00000000000000FFFFFFE
FFFFFFF00000000000000FFFFFFE
FFFFFFF00000000000000FFFFFFE
FFFFFFF00000000000000FFFFFFE
FFFFFFF00000000000000FFFFFFE
FFFFFFF00000000000000FFFFFFE
FFFFFFF00000000000000FFFFFFE
FFFFFFF00000000000000FFFFFFE
FFFFFFF00000000000000FFFFFFE
FFFFFFF00000000000000FFFFFFE
FFFFFFF00000000000000FFFFFFE
FFFFFFF00000000000000FFFFFFE
FFFFFFF00000000000000FFFFFFE
FFFFFFF00000000000000FFFFFFE
FFFFFFF00000000000000FFFFFFE
FFFFFFF00000000000000FFFFFFE
FFFFFFF00000000000000FFFFFFE
FFFFFFF00000000000000FFFFFFE
FFFFFFF00000000000000FFFFFFF
FFFFFFF00000000000000FFFFFFF
FFFFFFF00000000000000FFFFFFF
FFFFFFF00000000000000FFFFFFF
FFFFFFF00000000000000FFFFFFF
FFFFFFF00000000000000FFFFFFF
FFFFFFF00000000000000FFFFFFF
FFFFFFF00000000000000FFFFFFF
FFFFFFF00000000000000FFFFFFF
FFFFFFF00000000000000FFFFFFF
FFFFFFF00000000000000FFFFFFF
FFFFFFF00000000000000FFFFFFF
FFFFFFF00000000000000FFFFFFF
FFFFFFF00000000000000FFFFFFF
FFFFFFF00000000000000FFFFFFF
FFFFFFF00000000000000FFFFFFF
FFFFFFF00000000000000FFFFFFF
FFFFFFF00000000000000FFFFFFF
FFFFFFF00000000000000FFFFFFF
FFFFFFF00000000000000FFFFFFF
FFFFFFF00000000000000FFFFFFF
FFFFFFF00000000000000FFFFFFF
FFFFFFF00000000000000FFFFFFF
FFFFFFF00000000000000FFFFFFF
FFFFFFF00000000000000FFFFFFF
FFFFFFF00000000000000FFFFFFF
FFFFFFF00000000000000FFFFFFF
FFFFFFF00000000000000FFFFFFF
FFFFFFF00000000000000FFFFFFF
FFFFFFF00000000000000FFFFFFF
FFFFFFF00000000000000FFFFFFF
FFFFFFF00000000000000FFFFFFF
FFFFFFF00000000000000FFFFFFF
FFFFFFF00000000000000FFFFFFF
FFFFFFF00000000000000FFFFFFF
FFFFFFF00000000000000FFFFFFF
FFFFFFF00000000000000FFFFFFF
FFFFFFF00000000000000FFFFFFF
FFFFFFF00000000000000FFFFFFF
FFFFFFF00000000000000FFFFFFF
FFFFFFF00000000000000FFFFFFF
FFFFFFF00000000000000FFFFFFF
FFFFFFF00000000000000FFFFFFF
FFFFFFF00000000000000FFFFFFF
FFFFFFF00000000000000FFFFFFE
FFFFFFFFFFFFFFFFFFFFFFFFFFFE
FFFFFFFFFFFFFFFFFFFFFFFFFFFE
FFFFFFFFFFFFFFFFFFFFFFFFFFFE
FFFFFFFFFFFFFFFFFFFFFFFFFFFE
FFFFFFFFFFFFFFFFFFFFFFFFFFFE
FFFFFFFFFFFFFFFFFFFFFFFFFFFE
FFFFFFFFFFFFFFFFFFFFFFFFFFFE
FFFFFFFFFFFFFFFFFFFFFFFFFFFC
FFFFFFFFFFFFFFFFFFFFFFFFFFFC
FFFFFFFFFFFFFFFFFFFFFFFFFFFC
FFFFFFFFFFFFFFFFFFFFFFFFFFF8
FFFFFFFFFFFFFFFFFFFFFFFFFFF8
FFFFFFFFFFFFFFFFFFFFFFFFFFF8
FFFFFFFFFFFFFFFFFFFFFFFFFFF0
FFFFFFFFFFFFFFFFFFFFFFFFFFF0
FFFFFFFFFFFFFFFFFFFFFFFFFFE0
FFFFFFFFFFFFFFFFFFFFFFFFFFC0
FFFFFFFFFFFFFFFFFFFFFFFFFF80
FFFFFFFFFFFFFFFFFFFFFFFFFF00
FFFFFFFFFFFFFFFFFFFFFFFFFF00
FFFFFFFFFFFFFFFFFFFFFFFFFC00
FFFFFFFFFFFFFFFFFFFFFFFFF800
FFFFFFFFFFFFFFFFFFFFFFFFE000
FFFFFFFFFFFFFFFFFFFFFFFFC000
FFFFFFFFFFFFFFFFFFFFFFFF0000
FFFFFFFFFFFFFFFFFFFFFFFE0000
FFFFFFFFFFFFFFFFFFFFFFF00000
FFFFFFFFFFFFFFFFFFFFFE000000
ENDCHAR
STARTCHAR 0077
ENCODING 87
SWIDTH 1791 0
DWIDTH 163 0
BBX 154 91 0 -13
BITMAP
FFFFFFF000000001FFFFFFE000000003FFFFFFC0
FFFFFFF000000001FFFFFFE000000003FFFFFFC0
FFFFFFF000000001FFFFFFE000000003FFFFFFC0
FFFFFFF000000001FFFFFFE000000003FFFFFFC0
FFFFFFF000000001FFFFFFE000000003FFFFFFC0
FFFFFFF000000001FFFFFFE000000003FFFFFFC0
FFFFFFF000000001FFFFFFE000000003FFFFFFC0
FFFFFFF000000001FFFFFFE000000003FFFFFFC0
FFFFFFF000000001FFFFFFE000000003FFFFFFC0
FFFFFFF000000001FFFFFFE000000003FFFFFFC0
FFFFFFF000000001FFFFFFE000000003FFFFFFC0
FFFFFFF000000001FFFFFFE000000003FFFFFFC0
FFFFFFF000000001FFFFFFE000000003FFFFFFC0
FFFFFFF000000001FFFFFFE000000003FFFFFFC0
FFFFFFF000000001FFFFFFE000000003FFFFFFC0
FFFFFFF000000001FFFFFFE000000003FFFFFFC0
FFFFFFF000000001FFFFFFE000000003FFFFFFC0
FFFFFFF000000001FFFFFFE000000003FFFFFFC0
FFFFFFF000000001FFFFFFE000000003FFFFFFC0
FFFFFFF000000001FFFFFFE000000003FFFFFFC0
FFFFFFF000000001FFFFFFE000000003FFFFFFC0
FFFFFFF000000001FFFFFFE000000003FFFFFFC0
FFFFFFF000000001FFFFFFE000000003FFFFFFC0
FFFFFFF000000001FFFFFFE000000003FFFFFFC0
FFFFFFF000000001FFFFFFE000000003FFFFFFC0
FFFFFFF000000001FFFFFFE000000003FFFFFFC0
FFFFFFF000000001FFFFFFE000000003FFFFFFC0
FFFFFFF000000001FFFFFFE000000003FFFFFFC0
FFFFFFF000000001FFFFFFE000000003FFFFFFC0
FFFFFFF000000001FFFFFFE000000003FFFFFFC0
FFFFFFF000000001FFFFFFE000000003FFFFFFC0
FFFFFFF000000001FFFFFFE000000003FFFFFFC0
FFFFFFF000000001FFFFFFE000000003FFFFFFC0
FFFFFFF000000001FFFFFFE000000003FFFFFFC0
FFFFFFF000000001FFFFFFE000000003FFFFFFC0
FFFFFFF000000001FFFFFFE000000003FFFFFFC0
FFFFFFF000000001FFFFFFE000000003FFFFFFC0
FFFFFFF000000001FFFFFFE000000003FFFFFFC0
FFFFFFF000000001FFFFFFE000000003FFFFFFC0
FFFFFFF000000001FFFFFFE000000003FFFFFFC0
FFFFFFF000000001FFFFFFE000000003FFFFFFC0
FFFFFFF000000001FFFFFFE000000003FFFFFFC0
FFFFFFF000000001FFFFFFE000000003FFFFFFC0
FFFFFFF000000001FFFFFFE000000003FFFFFFC0
FFFFFFF000000001FFFFFFE000000003FFFFFFC0
FFFFFFF000000001FFFFFFE000000003FFFFFFC0
FFFFFFF000000001FFFFFFE000000003FFFFFFC0
FFFFFFF000000001FFFFFFE000000003FFFFFFC0
FFFFFFF000000001FFFFFFE000000003FFFFFFC0
FFFFFFF000000001FFFFFFE000000003FFFFFFC0
FFFFFFF000000001FFFFFFE000000003FFFFFFC0
FFFFFFF000000001FFFFFFE000000003FFFFFFC0
FFFFFFF000000001FFFFFFE000000003FFFFFFC0
FFFFFFF000000001FFFFFFE000000003FFFFFFC0
FFFFFFF000000001FFFFFFE000000003FFFFFFC0
FFFFFFF000000001FFFFFFE000000003FFFFFFC0
FFFFFFF000000001FFFFFFE000000003FFFFFFC0
FFFFFFF000000001FFFFFFE000000003FFFFFFC0
FFFFFFF000000001FFFFFFE000000003FFFFFFC0
FFFFFFF000000001FFFFFFE000000003FFFFFFC0
FFFFFFF000000001FFFFFFE000000003FFFFFFC0
FFFFFFF000000001FFFFFFE000000003FFFFFFC0
FFFFFFF000000001FFFFFFE000000003FFFFFFC0
FFFFFFFFFFFFFFFFFFFFFFFFFFFFFFFFFFFFFFC0
FFFFFFFFFFFFFFFFFFFFFFFFFFFFFFFFFFFFFFC0
FFFFFFFFFFFFFFFFFFFFFFFFFFFFFFFFFFFFFFC0
FFFFFFFFFFFFFFFFFFFFFFFFFFFFFFFFFFFFFF80
FFFFFFFFFFFFFFFFFFFFFFFFFFFFFFFFFFFFFF80
FFFFFFFFFFFFFFFFFFFFFFFFFFFFFFFFFFFFFF80
FFFFFFFFFFFFFFFFFFFFFFFFFFFFFFFFFFFFFF80
FFFFFFFFFFFFFFFFFFFFFFFFFFFFFFFFFFFFFF80
FFFFFFFFFFFFFFFFFFFFFFFFFFFFFFFFFFFFFF00
FFFFFFFFFFFFFFFFFFFFFFFFFFFFFFFFFFFFFF00
FFFFFFFFFFFFFFFFFFFFFFFFFFFFFFFFFFFFFE00
FFFFFFFFFFFFFFFFFFFFFFFFFFFFFFFFFFFFFE00
FFFFFFFFFFFFFFFFFFFFFFFFFFFFFFFFFFFFFC00
FFFFFFFFFFFFFFFFFFFFFFFFFFFFFFFFFFFFFC00
FFFFFFFFFFFFFFFFFFFFFFFFFFFFFFFFFFFFF800
FFFFFFFFFFFFFFFFFFFFFFFFFFFFFFFFFFFFF000
FFFFFFFFFFFFFFFFFFFFFFFFFFFFFFFFFFFFF000
FFFFFFFFFFFFFFFFFFFFFFFFFFFFFFFFFFFFE000
FFFFFFFFFFFFFFFFFFFFFFFFFFFFFFFFFFFFC000
FFFFFFFFFFFFFFFFFFFFFFFFFFFFFFFFFFFF8000
FFFFFFFFFFFFFFFFFFFFFFFFFFFFFFFFFFFF0000
FFFFFFFFFFFFFFFFFFFFFFFFFFFFFFFFFFFC0000
FFFFFFFFFFFFFFFFFFFFFFFFFFFFFFFFFFF80000
FFFFFFFFFFFFFFFFFFFFFFFFFFFFFFFFFFE00000
FFFFFFFFFFFFFFFFFFFFFFFFFFFFFFFFFF800000
FFFFFFFFFFFFFFFFFFFFFFFFFFFFFFFFFF000000
FFFFFFFFFFFFFFFFFFFFFFFFFFFFFFFFFC000000
FFFFFFFFFFFFFFFFFFFFFFFFFFFFFFFF00000000
ENDCHAR
STARTCHAR 0078
ENCODING 88
SWIDTH 1318 0
DWIDTH 120 0
BBX 111 91 -5 -13
BITMAP
FFFFFFFF000000000001FFFFFFFE
FFFFFFFFF0000000001FFFFFFFFE
FFFFFFFFFC000000003FFFFFFFFE
FFFFFFFFFF80000000FFFFFFFFFE
FFFFFFFFFFC0000001FFFFFFFFFE
FFFFFFFFFFF0000007FFFFFFFFFE
FFFFFFFFFFF800001FFFFFFFFFFE
FFFFFFFFFFFC00003FFFFFFFFFFE
FFFFFFFFFFFE0000FFFFFFFFFFFE
FFFFFFFFFFFF0001FFFFFFFFFFFE
FFFFFFFFFFFF8001FFFFFFFFFFFE
FFFFFFFFFFFF8003FFFFFFFFFFFE
FFFFFFFFFFFFC007FFFFFFFFFFFE
FFFFFFFFFFFFE00FFFFFFFFFFFFE
FFFFFFFFFFFFE00FFFFFFFFFFFFE
FFFFFFFFFFFFF01FFFFFFFFFFFFE
FFFFFFFFFFFFF81FFFFFFFFFFFFE
FFFFFFFFFFFFF83FFFFFFFFFFFFE
FFFFFFFFFFFFFC3FFFFFFFFFFFFE
FFFFFFFFFFFFFC7FFFFFFFFFFFFE
FFFFFFFFFFFFFE7FFFFFFFFFFFFE
FFFFFFFFFFFFFE7FFFFFFFFFFFFE
FFFFFFFFFFFFFEFFFFFFFFFFFFFE
FFFFFFFFFFFFFEFFFFFFFFFFFFFE
FFFFFFFFFFFFFEFFFFFFFFFFFFFE
FFFFFFFFFFFFFFFFFFFFFFFFFFFE
FFFFFFFFFFFFFFFFFFFFFFFFFFFE
FFFFFFFFFFFFFFFFFFFFFFFFFFFE
0000000FFFFFFFFFFFFFF0000000
0000000FFFFFFFFFFFFFF0000000
0000000FFFFFFFFFFFFFF0000000
0000000FFFFFFFFFFFFFF0000000
0000000FFFFFFFFFFFFFF0000000
0000000FFFFFFFFFFFFFF0000000
0000000FFFFFFFFFFFFFF0000000
0000000FFFFFFFFFFFFFF0000000
0000000FFFFFFFFFFFFFF0000000
0000000FFFFFFFFFFFFFF0000000
0000000FFFFFFFFFFFFFF0000000
0000000FFFFFFFFFFFFFF0000000
0000000FFFFFFFFFFFFFF0000000
0000000FFFFFFFFFFFFFF0000000
0000000FFFFFFFFFFFFFF0000000
0000000FFFFFFFFFFFFFF0000000
0000000FFFFFFFFFFFFFF0000000
0000000FFFFFFFFFFFFFF0000000
0000000FFFFFFFFFFFFFF0000000
0000000FFFFFFFFFFFFFF0000000
0000000FFFFFFFFFFFFFF0000000
0000000FFFFFFFFFFFFFF0000000
0000000FFFFFFFFFFFFFF0000000
0000000FFFFFFFFFFFFFF0000000
0000000FFFFFFFFFFFFFF0000000
0000000FFFFFFFFFFFFFF0000000
0000000FFFFFFFFFFFFFF0000000
0000000FFFFFFFFFFFFFF0000000
0000000FFFFFFFFFFFFFF0000000
0000000FFFFFFFFFFFFFF0000000
0000000FFFFFFFFFFFFFF0000000
0000000FFFFFFFFFFFFFF0000000
0000000FFFFFFFFFFFFFF0000000
0000000FFFFFFFFFFFFFF0000000
0000000FFFFFFFFFFFFFF0000000
FFFFFFFFFFFFFFFFFFFFFFFFFFFE
FFFFFFFFFFFFFFFFFFFFFFFFFFFE
FFFFFFFFFFFFFFFFFFFFFFFFFFFE
FFFFFFFFFFFFFFFFFFFFFFFFFFFE
FFFFFFFFFFFFFEFFFFFFFFFFFFFE
FFFFFFFFFFFFFEFFFFFFFFFFFFFE
FFFFFFFFFFFFFE7FFFFFFFFFFFFE
FFFFFFFFFFFFFE7FFFFFFFFFFFFE
FFFFFFFFFFFFFC7FFFFFFFFFFFFE
FFFFFFFFFFFFFC3FFFFFFFFFFFFE
FFFFFFFFFFFFFC3FFFFFFFFFFFFE
FFFFFFFFFFFFF81FFFFFFFFFFFFE
FFFFFFFFFFFFF80FFFFFFFFFFFFE
FFFFFFFFFFFFF00FFFFFFFFFFFFE
FFFFFFFFFFFFE007FFFFFFFFFFFE
FFFFFFFFFFFFC003FFFFFFFFFFFE
FFFFFFFFFFFFC003FFFFFFFFFFFE
FFFFFFFFFFFF8001FFFFFFFFFFFE
FFFFFFFFFFFF0000FFFFFFFFFFFE
FFFFFFFFFFFE0000FFFFFFFFFFFE
FFFFFFFFFFFC00003FFFFFFFFFFE
FFFFFFFFFFF000001FFFFFFFFFFE
FFFFFFFFFFE000000FFFFFFFFFFE
FFFFFFFFFFC0000007FFFFFFFFFE
FFFFFFFFFF00000001FFFFFFFFFE
FFFFFFFFFC000000007FFFFFFFFE
FFFFFFFFE0000000000FFFFFFFFE
FFFFFFFE000000000000FFFFFFFE
ENDCHAR
STARTCHAR 0079
ENCODING 89
SWIDTH 1318 0
DWIDTH 120 0
BBX 112 91 -5 -13
BITMAP
FFFFFFF00000000000000FFFFFFF
FFFFFFF00000000000000FFFFFFF
FFFFFFF00000000000000FFFFFFF
FFFFFFF00000000000000FFFFFFF
FFFFFFF00000000000000FFFFFFF
FFFFFFF00000000000000FFFFFFF
FFFFFFF00000000000000FFFFFFF
FFFFFFF00000000000000FFFFFFF
FFFFFFF00000000000000FFFFFFF
FFFFFFF00000000000000FFFFFFF
FFFFFFF00000000000000FFFFFFF
FFFFFFF00000000000000FFFFFFF
FFFFFFF00000000000000FFFFFFF
FFFFFFF00000000000000FFFFFFF
FFFFFFF00000000000000FFFFFFF
FFFFFFF00000000000000FFFFFFF
FFFFFFF00000000000000FFFFFFF
FFFFFFF00000000000000FFFFFFF
FFFFFFF00000000000000FFFFFFF
FFFFFFF00000000000000FFFFFFF
FFFFFFF00000000000000FFFFFFF
FFFFFFF00000000000000FFFFFFF
FFFFFFF00000000000000FFFFFFF
FFFFFFF00000000000000FFFFFFF
FFFFFFF00000000000000FFFFFFF
FFFFFFF00000000000000FFFFFFF
FFFFFFF00000000000000FFFFFFF
FFFFFFF00000000000000FFFFFFF
FFFFFFF00000000000000FFFFFFF
FFFFFFF00000000000000FFFFFFF
FFFFFFF00000000000000FFFFFFF
FFFFFFF00000000000000FFFFFFF
FFFFFFF00000000000000FFFFFFF
FFFFFFF00000000000000FFFFFFF
FFFFFFF00000000000000FFFFFFF
FFFFFFFFFFFFFFFFFFFFFFFFFFFF
FFFFFFFFFFFFFFFFFFFFFFFFFFFE
FFFFFFFFFFFFFFFFFFFFFFFFFFFE
FFFFFFFFFFFFFFFFFFFFFFFFFFFE
FFFFFFFFFFFFFFFFFFFFFFFFFFFE
7FFFFFFFFFFFFFFFFFFFFFFFFFFE
7FFFFFFFFFFFFFFFFFFFFFFFFFFE
7FFFFFFFFFFFFFFFFFFFFFFFFFFE
7FFFFFFFFFFFFFFFFFFFFFFFFFFC
3FFFFFFFFFFFFFFFFFFFFFFFFFFC
1FFFFFFFFFFFFFFFFFFFFFFFFFF8
1FFFFFFFFFFFFFFFFFFFFFFFFFF8
0FFFFFFFFFFFFFFFFFFFFFFFFFF0
07FFFFFFFFFFFFFFFFFFFFFFFFF0
07FFFFFFFFFFFFFFFFFFFFFFFFE0
03FFFFFFFFFFFFFFFFFFFFFFFFE0
03FFFFFFFFFFFFFFFFFFFFFFFFC0
01FFFFFFFFFFFFFFFFFFFFFFFF80
00FFFFFFFFFFFFFFFFFFFFFFFF00
007FFFFFFFFFFFFFFFFFFFFFFE00
003FFFFFFFFFFFFFFFFFFFFFFC00
001FFFFFFFFFFFFFFFFFFFFFF000
000FFFFFFFFFFFFFFFFFFFFFE000
0003FFFFFFFFFFFFFFFFFFFF8000
0001FFFFFFFFFFFFFFFFFFFE0000
00007FFFFFFFFFFFFFFFFFFC0000
00001FFFFFFFFFFFFFFFFFF00000
000001FFFFFFFFFFFFFFFF000000
00000000003FFFFFFC0000000000
00000000003FFFFFFC0000000000
00000000003FFFFFFC0000000000
00000000003FFFFFFC0000000000
00000000003FFFFFFC0000000000
00000000003FFFFFFC0000000000
00000000003FFFFFFC0000000000
00000000003FFFFFFC0000000000
00000000003FFFFFFC0000000000
00000000003FFFFFFC0000000000
00000000003FFFFFFC0000000000
00000000003FFFFFFC0000000000
00000000003FFFFFFC0000000000
00000000003FFFFFFC0000000000
00000000003FFFFFFC0000000000
00000000003FFFFFFC0000000000
00000000003FFFFFFC0000000000
00000000003FFFFFFC0000000000
00000000003FFFFFFC0000000000
00000000003FFFFFFC0000000000
00000000003FFFFFFC0000000000
00000000003FFFFFFC0000000000
00000000003FFFFFFC0000000000
00000000003FFFFFFC0000000000
00000000003FFFFFFC0000000000
00000000003FFFFFFC0000000000
00000000003FFFFFFC0000000000
00000000003FFFFFFC0000000000
ENDCHAR
STARTCHAR 007A
ENCODING 90
SWIDTH 1318 0
DWIDTH 120 0
BBX 112 91 -5 -13
BITMAP
FFFFFFFFFFFFFFFFFFFFFFFFFFFF
FFFFFFFFFFFFFFFFFFFFFFFFFFFF
FFFFFFFFFFFFFFFFFFFFFFFFFFFF
FFFFFFFFFFFFFFFFFFFFFFFFFFFF
FFFFFFFFFFFFFFFFFFFFFFFFFFFF
FFFFFFFFFFFFFFFFFFFFFFFFFFFF
FFFFFFFFFFFFFFFFFFFFFFFFFFFF
FFFFFFFFFFFFFFFFFFFFFFFFFFFF
FFFFFFFFFFFFFFFFFFFFFFFFFFFF
FFFFFFFFFFFFFFFFFFFFFFFFFFFF
FFFFFFFFFFFFFFFFFFFFFFFFFFFF
FFFFFFFFFFFFFFFFFFFFFFFFFFFF
FFFFFFFFFFFFFFFFFFFFFFFFFFFF
FFFFFFFFFFFFFFFFFFFFFFFFFFFF
FFFFFFFFFFFFFFFFFFFFFFFFFFFF
FFFFFFFFFFFFFFFFFFFFFFFFFFFF
FFFFFFFFFFFFFFFFFFFFFFFFFFFF
FFFFFFFFFFFFFFFFFFFFFFFFFFFF
FFFFFFFFFFFFFFFFFFFFFFFFFFFF
FFFFFFFFFFFFFFFFFFFFFFFFFFFF
FFFFFFFFFFFFFFFFFFFFFFFFFFFF
000000000000000000000FFFFFFF
000000000000000000000FFFFFFF
000000000000000000000FFFFFFF
000000000000000000000FFFFFFF
000000000000000000000FFFFFFF
000000000000000000000FFFFFFF
000000000000000000000FFFFFFF
000000000000000000000FFFFFFF
000000000000000000000FFFFFFF
000000000000000000000FFFFFFF
000000000000000000000FFFFFFF
000000000000000000000FFFFFFF
000000000000000000000FFFFFFF
000000000000000000000FFFFFFF
0000007FFFFFFFFFFFFFFFFFFFFF
00001FFFFFFFFFFFFFFFFFFFFFFF
0000FFFFFFFFFFFFFFFFFFFFFFFE
0003FFFFFFFFFFFFFFFFFFFFFFFE
000FFFFFFFFFFFFFFFFFFFFFFFFE
001FFFFFFFFFFFFFFFFFFFFFFFFC
007FFFFFFFFFFFFFFFFFFFFFFFFC
00FFFFFFFFFFFFFFFFFFFFFFFFFC
03FFFFFFFFFFFFFFFFFFFFFFFFF8
07FFFFFFFFFFFFFFFFFFFFFFFFF0
0FFFFFFFFFFFFFFFFFFFFFFFFFF0
1FFFFFFFFFFFFFFFFFFFFFFFFFE0
1FFFFFFFFFFFFFFFFFFFFFFFFFC0
3FFFFFFFFFFFFFFFFFFFFFFFFF00
3FFFFFFFFFFFFFFFFFFFFFFFFC00
7FFFFFFFFFFFFFFFFFFFFFFFF800
7FFFFFFFFFFFFFFFFFFFFFFFE000
FFFFFFFFFFFFFFFFFFFFFFFFC000
FFFFFFFFFFFFFFFFFFFFFFFF0000
FFFFFFFFFFFFFFFFFFFFFFF00000
FFFFFFFFFFFFFFFFFFFFFE000000
FFFFFFF000000000000000000000
FFFFFFF000000000000000000000
FFFFFFF000000000000000000000
FFFFFFF000000000000000000000
FFFFFFF000000000000000000000
FFFFFFF000000000000000000000
FFFFFFF000000000000000000000
FFFFFFF000000000000000000000
FFFFFFF000000000000000000000
FFFFFFF000000000000000000000
FFFFFFF000000000000000000000
FFFFFFF000000000000000000000
FFFFFFF000000000000000000000
FFFFFFF000000000000000000000
FFFFFFFFFFFFFFFFFFFFFFFFFFFF
FFFFFFFFFFFFFFFFFFFFFFFFFFFF
FFFFFFFFFFFFFFFFFFFFFFFFFFFF
FFFFFFFFFFFFFFFFFFFFFFFFFFFF
FFFFFFFFFFFFFFFFFFFFFFFFFFFF
FFFFFFFFFFFFFFFFFFFFFFFFFFFF
FFFFFFFFFFFFFFFFFFFFFFFFFFFF
FFFFFFFFFFFFFFFFFFFFFFFFFFFF
FFFFFFFFFFFFFFFFFFFFFFFFFFFF
FFFFFFFFFFFFFFFFFFFFFFFFFFFF
FFFFFFFFFFFFFFFFFFFFFFFFFFFF
FFFFFFFFFFFFFFFFFFFFFFFFFFFF
FFFFFFFFFFFFFFFFFFFFFFFFFFFF
FFFFFFFFFFFFFFFFFFFFFFFFFFFF
FFFFFFFFFFFFFFFFFFFFFFFFFFFF
FFFFFFFFFFFFFFFFFFFFFFFFFFFF
FFFFFFFFFFFFFFFFFFFFFFFFFFFF
FFFFFFFFFFFFFFFFFFFFFFFFFFFF
FFFFFFFFFFFFFFFFFFFFFFFFFFFF
FFFFFFFFFFFFFFFFFFFFFFFFFFFF
FFFFFFFFFFFFFFFFFFFFFFFFFFFF
ENDCHAR
STARTCHAR 0061
ENCODING 97
SWIDTH 1318 0
DWIDTH 120 0
BBX 112 91 -5 -13
BITMAP
FFFFFFFFFFFFFFFFFFFFFF000000
FFFFFFFFFFFFFFFFFFFFFFF00000
FFFFFFFFFFFFFFFFFFFFFFFE0000
FFFFFFFFFFFFFFFFFFFFFFFF8000
FFFFFFFFFFFFFFFFFFFFFFFFE000
FFFFFFFFFFFFFFFFFFFFFFFFF000
FFFFFFFFFFFFFFFFFFFFFFFFF800
FFFFFFFFFFFFFFFFFFFFFFFFFE00
FFFFFFFFFFFFFFFFFFFFFFFFFF00
FFFFFFFFFFFFFFFFFFFFFFFFFF80
FFFFFFFFFFFFFFFFFFFFFFFFFFC0
FFFFFFFFFFFFFFFFFFFFFFFFFFC0
FFFFFFFFFFFFFFFFFFFFFFFFFFE0
FFFFFFFFFFFFFFFFFFFFFFFFFFE0
FFFFFFFFFFFFFFFFFFFFFFFFFFF0
FFFFFFFFFFFFFFFFFFFFFFFFFFF0
FFFFFFFFFFFFFFFFFFFFFFFFFFF8
FFFFFFFFFFFFFFFFFFFFFFFFFFFC
FFFFFFFFFFFFFFFFFFFFFFFFFFFC
FFFFFFFFFFFFFFFFFFFFFFFFFFFE
FFFFFFFFFFFFFFFFFFFFFFFFFFFE
000000000000000000000FFFFFFE
000000000000000000000FFFFFFE
000000000000000000000FFFFFFE
000000000000000000000FFFFFFE
000000000000000000000FFFFFFE
000000000000000000000FFFFFFF
000000000000000000000FFFFFFF
000000000000000000000FFFFFFF
000000000000000000000FFFFFFF
000000000000000000000FFFFFFF
000000000000000000000FFFFFFF
000000000000000000000FFFFFFF
000000000000000000000FFFFFFF
000000000000000000000FFFFFFF
000000FFFFFFFFFFFFFFFFFFFFFF
00000FFFFFFFFFFFFFFFFFFFFFFF
00003FFFFFFFFFFFFFFFFFFFFFFF
0000FFFFFFFFFFFFFFFFFFFFFFFF
0003FFFFFFFFFFFFFFFFFFFFFFFF
0007FFFFFFFFFFFFFFFFFFFFFFFF
001FFFFFFFFFFFFFFFFFFFFFFFFF
003FFFFFFFFFFFFFFFFFFFFFFFFF
00FFFFFFFFFFFFFFFFFFFFFFFFFF
01FFFFFFFFFFFFFFFFFFFFFFFFFF
01FFFFFFFFFFFFFFFFFFFFFFFFFF
03FFFFFFFFFFFFFFFFFFFFFFFFFF
07FFFFFFFFFFFFFFFFFFFFFFFFFF
0FFFFFFFFFFFFFFFFFFFFFFFFFFF
0FFFFFFFFFFFFFFFFFFFFFFFFFFF
1FFFFFFFFFFFFFFFFFFFFFFFFFFF
1FFFFFFFFFFFFFFFFFFFFFFFFFFF
3FFFFFFFFFFFFFFFFFFFFFFFFFFF
3FFFFFFFFFFFFFFFFFFFFFFFFFFF
3FFFFFFFFFFFFFFFFFFFFFFFFFFF
3FFFFFFFFFFFFFFFFFFFFFFFFFFF
7FFFFFF00000000000000FFFFFFF
7FFFFFF00000000000000FFFFFFF
7FFFFFF00000000000000FFFFFFF
7FFFFFF00000000000000FFFFFFF
7FFFFFF00000000000000FFFFFFF
FFFFFFF00000000000000FFFFFFF
FFFFFFF00000000000000FFFFFFF
FFFFFFF00000000000000FFFFFFF
FFFFFFF00000000000000FFFFFFF
FFFFFFF00000000000000FFFFFFF
FFFFFFF00000000000000FFFFFFF
7FFFFFF00000000000000FFFFFFF
7FFFFFF00000000000000FFFFFFF
7FFFFFFFFFFFFFFFFFFFFFFFFFFF
3FFFFFFFFFFFFFFFFFFFFFFFFFFF
3FFFFFFFFFFFFFFFFFFFFFFFFFFF
3FFFFFFFFFFFFFFFFFFFFFFFFFFF
1FFFFFFFFFFFFFFFFFFFFFFFFFFF
1FFFFFFFFFFFFFFFFFFFFFFFFFFF
0FFFFFFFFFFFFFFFFFFFFFFFFFFF
0FFFFFFFFFFFFFFFFFFFFFFFFFFF
07FFFFFFFFFFFFFFFFFFFFFFFFFF
03FFFFFFFFFFFFFFFFFFFFFFFFFF
03FFFFFFFFFFFFFFFFFFFFFFFFFF
01FFFFFFFFFFFFFFFFFFFFFFFFFF
01FFFFFFFFFFFFFFFFFFFFFFFFFF
00FFFFFFFFFFFFFFFFFFFFFFFFFF
003FFFFFFFFFFFFFFFFFFFFFFFFF
001FFFFFFFFFFFFFFFFFFFFFFFFF
000FFFFFFFFFFFFFFFFFFFFFFFFF
0003FFFFFFFFFFFFFFFFFFFFFFFF
0000FFFFFFFFFFFFFFFFFFFFFFFF
00003FFFFFFFFFFFFFFFFFFFFFFF
00000FFFFFFFFFFFFFFFFFFFFFFF
0000007FFFFFFFFFFFFFFFFFFFFF
ENDCHAR
STARTCHAR 0062
ENCODING 98
SWIDTH 1318 0
DWIDTH 120 0
BBX 112 91 -5 -13
BITMAP
FFFFFFFFFFFFFFFFFFFFFF000000
FFFFFFFFFFFFFFFFFFFFFFF00000
FFFFFFFFFFFFFFFFFFFFFFFE0000
FFFFFFFFFFFFFFFFFFFFFFFF8000
FFFFFFFFFFFFFFFFFFFFFFFFC000
FFFFFFFFFFFFFFFFFFFFFFFFF000
FFFFFFFFFFFFFFFFFFFFFFFFF800
FFFFFFFFFFFFFFFFFFFFFFFFFC00
FFFFFFFFFFFFFFFFFFFFFFFFFE00
FFFFFFFFFFFFFFFFFFFFFFFFFF00
FFFFFFFFFFFFFFFFFFFFFFFFFF80
FFFFFFFFFFFFFFFFFFFFFFFFFF80
FFFFFFFFFFFFFFFFFFFFFFFFFFC0
FFFFFFFFFFFFFFFFFFFFFFFFFFE0
FFFFFFFFFFFFFFFFFFFFFFFFFFE0
FFFFFFFFFFFFFFFFFFFFFFFFFFF0
FFFFFFFFFFFFFFFFFFFFFFFFFFF8
FFFFFFFFFFFFFFFFFFFFFFFFFFF8
FFFFFFFFFFFFFFFFFFFFFFFFFFF8
FFFFFFFFFFFFFFFFFFFFFFFFFFFC
FFFFFFFFFFFFFFFFFFFFFFFFFFFC
FFFFFFF00000000000001FFFFFFE
FFFFFFF00000000000001FFFFFFE
FFFFFFF00000000000001FFFFFFE
FFFFFFF00000000000001FFFFFFE
FFFFFFF00000000000001FFFFFFE
FFFFFFF00000000000001FFFFFFE
FFFFFFF00000000000001FFFFFFF
FFFFFFF00000000000001FFFFFFF
FFFFFFF00000000000001FFFFFFF
FFFFFFF00000000000001FFFFFFF
FFFFFFF00000000000001FFFFFFF
FFFFFFF00000000000001FFFFFFE
FFFFFFF00000000000001FFFFFFE
FFFFFFF00000000000001FFFFFFE
FFFFFFFFFFFFFFFFFFFFFFFFFFFE
FFFFFFFFFFFFFFFFFFFFFFFFFFFC
FFFFFFFFFFFFFFFFFFFFFFFFFFFC
FFFFFFFFFFFFFFFFFFFFFFFFFFFC
FFFFFFFFFFFFFFFFFFFFFFFFFFF8
FFFFFFFFFFFFFFFFFFFFFFFFFFF8
FFFFFFFFFFFFFFFFFFFFFFFFFFF0
FFFFFFFFFFFFFFFFFFFFFFFFFFE0
FFFFFFFFFFFFFFFFFFFFFFFFFFE0
FFFFFFFFFFFFFFFFFFFFFFFFFFC0
FFFFFFFFFFFFFFFFFFFFFFFFFF80
FFFFFFFFFFFFFFFFFFFFFFFFFFC0
FFFFFFFFFFFFFFFFFFFFFFFFFFC0
FFFFFFFFFFFFFFFFFFFFFFFFFFE0
FFFFFFFFFFFFFFFFFFFFFFFFFFE0
FFFFFFFFFFFFFFFFFFFFFFFFFFF0
FFFFFFFFFFFFFFFFFFFFFFFFFFF0
FFFFFFFFFFFFFFFFFFFFFFFFFFF8
FFFFFFFFFFFFFFFFFFFFFFFFFFFC
FFFFFFFFFFFFFFFFFFFFFFFFFFFC
FFFFFFFFFFFFFFFFFFFFFFFFFFFC
FFFFFFF00000000000001FFFFFFE
FFFFFFF00000000000001FFFFFFE
FFFFFFF00000000000001FFFFFFE
FFFFFFF00000000000001FFFFFFE
FFFFFFF00000000000001FFFFFFE
FFFFFFF00000000000001FFFFFFE
FFFFFFF00000000000001FFFFFFF
FFFFFFF00000000000001FFFFFFF
FFFFFFF00000000000001FFFFFFF
FFFFFFF00000000000001FFFFFFF
FFFFFFF00000000000001FFFFFFF
FFFFFFF00000000000001FFFFFFE
FFFFFFF00000000000001FFFFFFE
FFFFFFF00000000000001FFFFFFE
FFFFFFFFFFFFFFFFFFFFFFFFFFFE
FFFFFFFFFFFFFFFFFFFFFFFFFFFC
FFFFFFFFFFFFFFFFFFFFFFFFFFFC
FFFFFFFFFFFFFFFFFFFFFFFFFFF8
FFFFFFFFFFFFFFFFFFFFFFFFFFF8
FFFFFFFFFFFFFFFFFFFFFFFFFFF0
FFFFFFFFFFFFFFFFFFFFFFFFFFF0
FFFFFFFFFFFFFFFFFFFFFFFFFFE0
FFFFFFFFFFFFFFFFFFFFFFFFFFE0
FFFFFFFFFFFFFFFFFFFFFFFFFFC0
FFFFFFFFFFFFFFFFFFFFFFFFFF80
FFFFFFFFFFFFFFFFFFFFFFFFFF00
FFFFFFFFFFFFFFFFFFFFFFFFFE00
FFFFFFFFFFFFFFFFFFFFFFFFFC00
FFFFFFFFFFFFFFFFFFFFFFFFF000
FFFFFFFFFFFFFFFFFFFFFFFFE000
FFFFFFFFFFFFFFFFFFFFFFFF8000
FFFFFFFFFFFFFFFFFFFFFFFE0000
FFFFFFFFFFFFFFFFFFFFFFFC0000
FFFFFFFFFFFFFFFFFFFFFFF00000
FFFFFFFFFFFFFFFFFFFFFE000000
ENDCHAR
STARTCHAR 0063
ENCODING 99
SWIDTH 1318 0
DWIDTH 120 0
BBX 111 91 -5 -13
BITMAP
0000003FFFFFFFFFFFFFFFFFFFFE
000007FFFFFFFFFFFFFFFFFFFFFE
00003FFFFFFFFFFFFFFFFFFFFFFE
0000FFFFFFFFFFFFFFFFFFFFFFFE
0001FFFFFFFFFFFFFFFFFFFFFFFE
0007FFFFFFFFFFFFFFFFFFFFFFFE
000FFFFFFFFFFFFFFFFFFFFFFFFE
003FFFFFFFFFFFFFFFFFFFFFFFFE
00FFFFFFFFFFFFFFFFFFFFFFFFFE
01FFFFFFFFFFFFFFFFFFFFFFFFFE
01FFFFFFFFFFFFFFFFFFFFFFFFFE
03FFFFFFFFFFFFFFFFFFFFFFFFFE
07FFFFFFFFFFFFFFFFFFFFFFFFFE
0FFFFFFFFFFFFFFFFFFFFFFFFFFE
0FFFFFFFFFFFFFFFFFFFFFFFFFFE
1FFFFFFFFFFFFFFFFFFFFFFFFFFE
1FFFFFFFFFFFFFFFFFFFFFFFFFFE
3FFFFFFFFFFFFFFFFFFFFFFFFFFE
3FFFFFFFFFFFFFFFFFFFFFFFFFFE
7FFFFFFFFFFFFFFFFFFFFFFFFFFE
7FFFFFFFFFFFFFFFFFFFFFFFFFFE
7FFFFFFFFFFFFFFFFFFFFFFFFFFE
7FFFFFFFFFFFFFFFFFFFFFFFFFFE
7FFFFFFFFFFFFFFFFFFFFFFFFFFE
FFFFFFFFFFFFFFFFFFFFFFFFFFFE
FFFFFFFFFFFFFFFFFFFFFFFFFFFE
FFFFFFFFFFFFFFFFFFFFFFFFFFFE
FFFFFFFFFFFFFFFFFFFFFFFFFFFE
FFFFFFF000000000000000000000
FFFFFFF000000000000000000000
FFFFFFF000000000000000000000
FFFFFFF000000000000000000000
FFFFFFF000000000000000000000
FFFFFFF000000000000000000000
FFFFFFF000000000000000000000
FFFFFFF000000000000000000000
FFFFFFF000000000000000000000
FFFFFFF000000000000000000000
FFFFFFF000000000000000000000
FFFFFFF000000000000000000000
FFFFFFF000000000000000000000
FFFFFFF000000000000000000000
FFFFFFF000000000000000000000
FFFFFFF000000000000000000000
FFFFFFF000000000000000000000
FFFFFFF000000000000000000000
FFFFFFF000000000000000000000
FFFFFFF000000000000000000000
FFFFFFF000000000000000000000
FFFFFFF000000000000000000000
FFFFFFF000000000000000000000
FFFFFFF000000000000000000000
FFFFFFF000000000000000000000
FFFFFFF000000000000000000000
FFFFFFF000000000000000000000
FFFFFFF000000000000000000000
FFFFFFF000000000000000000000
FFFFFFF000000000000000000000
FFFFFFF000000000000000000000
FFFFFFF000000000000000000000
FFFFFFF000000000000000000000
FFFFFFF000000000000000000000
FFFFFFF000000000000000000000
FFFFFFFFFFFFFFFFFFFFFFFFFFFE
FFFFFFFFFFFFFFFFFFFFFFFFFFFE
FFFFFFFFFFFFFFFFFFFFFFFFFFFE
FFFFFFFFFFFFFFFFFFFFFFFFFFFE
7FFFFFFFFFFFFFFFFFFFFFFFFFFE
7FFFFFFFFFFFFFFFFFFFFFFFFFFE
7FFFFFFFFFFFFFFFFFFFFFFFFFFE
7FFFFFFFFFFFFFFFFFFFFFFFFFFE
3FFFFFFFFFFFFFFFFFFFFFFFFFFE
3FFFFFFFFFFFFFFFFFFFFFFFFFFE
1FFFFFFFFFFFFFFFFFFFFFFFFFFE
1FFFFFFFFFFFFFFFFFFFFFFFFFFE
0FFFFFFFFFFFFFFFFFFFFFFFFFFE
07FFFFFFFFFFFFFFFFFFFFFFFFFE
07FFFFFFFFFFFFFFFFFFFFFFFFFE
03FFFFFFFFFFFFFFFFFFFFFFFFFE
03FFFFFFFFFFFFFFFFFFFFFFFFFE
01FFFFFFFFFFFFFFFFFFFFFFFFFE
00FFFFFFFFFFFFFFFFFFFFFFFFFE
00FFFFFFFFFFFFFFFFFFFFFFFFFE
007FFFFFFFFFFFFFFFFFFFFFFFFE
001FFFFFFFFFFFFFFFFFFFFFFFFE
000FFFFFFFFFFFFFFFFFFFFFFFFE
0003FFFFFFFFFFFFFFFFFFFFFFFE
0001FFFFFFFFFFFFFFFFFFFFFFFE
00007FFFFFFFFFFFFFFFFFFFFFFE
00001FFFFFFFFFFFFFFFFFFFFFFE
000000FFFFFFFFFFFFFFFFFFFFFE
ENDCHAR
STARTCHAR 0064
ENCODING 100
SWIDTH 1318 0
DWIDTH 120 0
BBX 111 91 -5 -13
BITMAP
FFFFFFFFFFFFFFFFFFFFFF800000
FFFFFFFFFFFFFFFFFFFFFFF80000
FFFFFFFFFFFFFFFFFFFFFFFF0000
FFFFFFFFFFFFFFFFFFFFFFFFC000
FFFFFFFFFFFFFFFFFFFFFFFFE000
FFFFFFFFFFFFFFFFFFFFFFFFF000
FFFFFFFFFFFFFFFFFFFFFFFFF800
FFFFFFFFFFFFFFFFFFFFFFFFFE00
FFFFFFFFFFFFFFFFFFFFFFFFFF00
FFFFFFFFFFFFFFFFFFFFFFFFFF00
FFFFFFFFFFFFFFFFFFFFFFFFFF80
FFFFFFFFFFFFFFFFFFFFFFFFFFC0
FFFFFFFFFFFFFFFFFFFFFFFFFFC0
FFFFFFFFFFFFFFFFFFFFFFFFFFE0
FFFFFFFFFFFFFFFFFFFFFFFFFFE0
FFFFFFFFFFFFFFFFFFFFFFFFFFF0
FFFFFFFFFFFFFFFFFFFFFFFFFFF8
FFFFFFFFFFFFFFFFFFFFFFFFFFF8
FFFFFFFFFFFFFFFFFFFFFFFFFFFC
FFFFFFFFFFFFFFFFFFFFFFFFFFFC
FFFFFFFFFFFFFFFFFFFFFFFFFFFC
FFFFFFFFFFFFFFFFFFFFFFFFFFFE
FFFFFFFFFFFFFFFFFFFFFFFFFFFE
FFFFFFFFFFFFFFFFFFFFFFFFFFFE
FFFFFFFFFFFFFFFFFFFFFFFFFFFE
FFFFFFFFFFFFFFFFFFFFFFFFFFFE
FFFFFFFFFFFFFFFFFFFFFFFFFFFE
FFFFFFFFFFFFFFFFFFFFFFFFFFFE
FFFFFFF00000000000001FFFFFFE
FFFFFFF00000000000001FFFFFFE
FFFFFFF00000000000001FFFFFFE
FFFFFFF00000000000001FFFFFFE
FFFFFFF00000000000001FFFFFFE
FFFFFFF00000000000001FFFFFFE
FFFFFFF00000000000001FFFFFFE
FFFFFFF00000000000001FFFFFFE
FFFFFFF00000000000001FFFFFFE
FFFFFFF00000000000001FFFFFFE
FFFFFFF00000000000001FFFFFFE
FFFFFFF00000000000001FFFFFFE
FFFFFFF00000000000001FFFFFFE
FFFFFFF00000000000001FFFFFFE
FFFFFFF00000000000001FFFFFFE
FFFFFFF00000000000001FFFFFFE
FFFFFFF00000000000001FFFFFFE
FFFFFFF00000000000001FFFFFFE
FFFFFFF00000000000001FFFFFFE
FFFFFFF00000000000001FFFFFFE
FFFFFFF00000000000001FFFFFFE
FFFFFFF00000000000001FFFFFFE
FFFFFFF00000000000001FFFFFFE
FFFFFFF00000000000001FFFFFFE
FFFFFFF00000000000001FFFFFFE
FFFFFFF00000000000001FFFFFFE
FFFFFFF00000000000001FFFFFFE
FFFFFFF00000000000001FFFFFFE
FFFFFFF00000000000001FFFFFFE
FFFFFFF00000000000001FFFFFFE
FFFFFFF00000000000001FFFFFFE
FFFFFFF00000000000001FFFFFFE
FFFFFFF00000000000001FFFFFFE
FFFFFFF00000000000001FFFFFFE
FFFFFFF00000000000001FFFFFFE
FFFFFFFFFFFFFFFFFFFFFFFFFFFE
FFFFFFFFFFFFFFFFFFFFFFFFFFFE
FFFFFFFFFFFFFFFFFFFFFFFFFFFE
FFFFFFFFFFFFFFFFFFFFFFFFFFFE
FFFFFFFFFFFFFFFFFFFFFFFFFFFE
FFFFFFFFFFFFFFFFFFFFFFFFFFFE
FFFFFFFFFFFFFFFFFFFFFFFFFFFE
FFFFFFFFFFFFFFFFFFFFFFFFFFFC
FFFFFFFFFFFFFFFFFFFFFFFFFFFC
FFFFFFFFFFFFFFFFFFFFFFFFFFFC
FFFFFFFFFFFFFFFFFFFFFFFFFFF8
FFFFFFFFFFFFFFFFFFFFFFFFFFF8
FFFFFFFFFFFFFFFFFFFFFFFFFFF0
FFFFFFFFFFFFFFFFFFFFFFFFFFF0
FFFFFFFFFFFFFFFFFFFFFFFFFFE0
FFFFFFFFFFFFFFFFFFFFFFFFFFC0
FFFFFFFFFFFFFFFFFFFFFFFFFFC0
FFFFFFFFFFFFFFFFFFFFFFFFFF80
FFFFFFFFFFFFFFFFFFFFFFFFFF00
FFFFFFFFFFFFFFFFFFFFFFFFFE00
FFFFFFFFFFFFFFFFFFFFFFFFF800
FFFFFFFFFFFFFFFFFFFFFFFFF000
FFFFFFFFFFFFFFFFFFFFFFFFC000
FFFFFFFFFFFFFFFFFFFFFFFF8000
FFFFFFFFFFFFFFFFFFFFFFFE0000
FFFFFFFFFFFFFFFFFFFFFFFC0000
FFFFFFFFFFFFFFFFFFFFFFE00000
FFFFFFFFFFFFFFFFFFFFFE000000
ENDCHAR
STARTCHAR 0065
ENCODING 101
SWIDTH 1318 0
DWIDTH 120 0
BBX 120 91 -2 -13
BITMAP
0000007FFFFFFFFFFFFFFF000000
000007FFFFFFFFFFFFFFFFF00000
00003FFFFFFFFFFFFFFFFFFE0000
0000FFFFFFFFFFFFFFFFFFFF8000
0001FFFFFFFFFFFFFFFFFFFFC000
0007FFFFFFFFFFFFFFFFFFFFF000
000FFFFFFFFFFFFFFFFFFFFFF800
003FFFFFFFFFFFFFFFFFFFFFFC00
007FFFFFFFFFFFFFFFFFFFFFFE00
00FFFFFFFFFFFFFFFFFFFFFFFF00
01FFFFFFFFFFFFFFFFFFFFFFFF80
03FFFFFFFFFFFFFFFFFFFFFFFF80
07FFFFFFFFFFFFFFFFFFFFFFFFC0
07FFFFFFFFFFFFFFFFFFFFFFFFE0
0FFFFFFFFFFFFFFFFFFFFFFFFFE0
0FFFFFFFFFFFFFFFFFFFFFFFFFF0
1FFFFFFFFFFFFFFFFFFFFFFFFFF0
3FFFFFFFFFFFFFFFFFFFFFFFFFF8
3FFFFFFFFFFFFFFFFFFFFFFFFFFC
3FFFFFFFFFFFFFFFFFFFFFFFFFFC
7FFFFFFFFFFFFFFFFFFFFFFFFFFC
7FFFFFF00000000000001FFFFFFC
7FFFFFF00000000000001FFFFFFE
FFFFFFF00000000000001FFFFFFE
FFFFFFF00000000000001FFFFFFE
FFFFFFF00000000000001FFFFFFE
FFFFFFF00000000000001FFFFFFE
FFFFFFF00000000000001FFFFFFE
FFFFFFF00000000000001FFFFFFE
FFFFFFF00000000000001FFFFFFE
FFFFFFF00000000000001FFFFFFE
FFFFFFF00000000000001FFFFFFE
FFFFFFF00000000000001FFFFFFE
FFFFFFF00000000000001FFFFFFE
FFFFFFF00000000000001FFFFFFE
FFFFFFFFFFFFFFFFFFFFFFFFFFFE
FFFFFFFFFFFFFFFFFFFFFFFFFFFE
FFFFFFFFFFFFFFFFFFFFFFFFFFFE
FFFFFFFFFFFFFFFFFFFFFFFFFFFE
FFFFFFFFFFFFFFFFFFFFFFFFFFFE
FFFFFFFFFFFFFFFFFFFFFFFFFFFE
FFFFFFFFFFFFFFFFFFFFFFFFFFFE
FFFFFFFFFFFFFFFFFFFFFFFFFFFE
FFFFFFFFFFFFFFFFFFFFFFFFFFFE
FFFFFFFFFFFFFFFFFFFFFFFFFFFE
FFFFFFFFFFFFFFFFFFFFFFFFFFFE
FFFFFFFFFFFFFFFFFFFFFFFFFFFE
FFFFFFFFFFFFFFFFFFFFFFFFFFFE
FFFFFFFFFFFFFFFFFFFFFFFFFFFE
FFFFFFFFFFFFFFFFFFFFFFFFFFFE
FFFFFFFFFFFFFFFFFFFFFFFFFFFE
FFFFFFFFFFFFFFFFFFFFFFFFFFFE
FFFFFFFFFFFFFFFFFFFFFFFFFFFE
FFFFFFFFFFFFFFFFFFFFFFFFFFFE
FFFFFFFFFFFFFFFFFFFFFFFFFFFE
FFFFFFFFFFFFFFFFFFFFFFFFFFFE
FFFFFFF000000000000000000000
FFFFFFF000000000000000000000
FFFFFFF000000000000000000000
FFFFFFF000000000000000000000
FFFFFFF000000000000000000000
FFFFFFF000000000000000000000
FFFFFFF000000000000000000000
FFFFFFF000000000000000000000
FFFFFFF000000000000000000000
FFFFFFF000000000000000000000
FFFFFFF000000000000000000000
FFFFFFF000000000000000000000
FFFFFFF000000000000000000000
7FFFFFF000000000000000000000
7FFFFFFFFFFFFFFFFFFFFFFFFFFE
7FFFFFFFFFFFFFFFFFFFFFFFFFFE
3FFFFFFFFFFFFFFFFFFFFFFFFFFE
3FFFFFFFFFFFFFFFFFFFFFFFFFFE
1FFFFFFFFFFFFFFFFFFFFFFFFFFE
1FFFFFFFFFFFFFFFFFFFFFFFFFFE
0FFFFFFFFFFFFFFFFFFFFFFFFFFE
0FFFFFFFFFFFFFFFFFFFFFFFFFFE
07FFFFFFFFFFFFFFFFFFFFFFFFFE
07FFFFFFFFFFFFFFFFFFFFFFFFFE
03FFFFFFFFFFFFFFFFFFFFFFFFFE
01FFFFFFFFFFFFFFFFFFFFFFFFFE
00FFFFFFFFFFFFFFFFFFFFFFFFFE
007FFFFFFFFFFFFFFFFFFFFFFFFE
003FFFFFFFFFFFFFFFFFFFFFFFFE
000FFFFFFFFFFFFFFFFFFFFFFFFE
0007FFFFFFFFFFFFFFFFFFFFFFFE
0001FFFFFFFFFFFFFFFFFFFFFFFE
00007FFFFFFFFFFFFFFFFFFFFFFE
00000FFFFFFFFFFFFFFFFFFFFFFE
000001FFFFFFFFFFFFFFFFFFFFFE
ENDCHAR
STARTCHAR 0066
ENCODING 102
SWIDTH 1318 0
DWIDTH 120 0
BBX 111 91 -5 -13
BITMAP
0000007FFFFFFFFFFFFFFFFFFFFE
00001FFFFFFFFFFFFFFFFFFFFFFE
0000FFFFFFFFFFFFFFFFFFFFFFFE
0003FFFFFFFFFFFFFFFFFFFFFFFE
000FFFFFFFFFFFFFFFFFFFFFFFFE
001FFFFFFFFFFFFFFFFFFFFFFFFE
007FFFFFFFFFFFFFFFFFFFFFFFFE
01FFFFFFFFFFFFFFFFFFFFFFFFFE
03FFFFFFFFFFFFFFFFFFFFFFFFFE
07FFFFFFFFFFFFFFFFFFFFFFFFFE
0FFFFFFFFFFFFFFFFFFFFFFFFFFE
1FFFFFFFFFFFFFFFFFFFFFFFFFFE
1FFFFFFFFFFFFFFFFFFFFFFFFFFE
3FFFFFFFFFFFFFFFFFFFFFFFFFFE
3FFFFFFFFFFFFFFFFFFFFFFFFFFE
7FFFFFFFFFFFFFFFFFFFFFFFFFFE
7FFFFFFFFFFFFFFFFFFFFFFFFFFE
7FFFFFFFFFFFFFFFFFFFFFFFFFFE
FFFFFFFFFFFFFFFFFFFFFFFFFFFE
FFFFFFFFFFFFFFFFFFFFFFFFFFFE
FFFFFFFFFFFFFFFFFFFFFFFFFFFE
FFFFFFF000000000000000000000
FFFFFFF000000000000000000000
FFFFFFF000000000000000000000
FFFFFFF000000000000000000000
FFFFFFF000000000000000000000
FFFFFFF000000000000000000000
FFFFFFF000000000000000000000
FFFFFFF000000000000000000000
FFFFFFF000000000000000000000
FFFFFFF000000000000000000000
FFFFFFF000000000000000000000
FFFFFFF000000000000000000000
FFFFFFF000000000000000000000
FFFFFFF000000000000000000000
FFFFFFFFFFFFFFFFFFFFFFFFFFFE
FFFFFFFFFFFFFFFFFFFFFFFFFFFE
FFFFFFFFFFFFFFFFFFFFFFFFFFFE
FFFFFFFFFFFFFFFFFFFFFFFFFFFE
FFFFFFFFFFFFFFFFFFFFFFFFFFFE
FFFFFFFFFFFFFFFFFFFFFFFFFFFE
FFFFFFFFFFFFFFFFFFFFFFFFFFFE
FFFFFFFFFFFFFFFFFFFFFFFFFFFE
FFFFFFFFFFFFFFFFFFFFFFFFFFFE
FFFFFFFFFFFFFFFFFFFFFFFFFFFE
FFFFFFFFFFFFFFFFFFFFFFFFFFFE
FFFFFFFFFFFFFFFFFFFFFFFFFFFE
FFFFFFFFFFFFFFFFFFFFFFFFFFFE
FFFFFFFFFFFFFFFFFFFFFFFFFFFE
FFFFFFFFFFFFFFFFFFFFFFFFFFFE
FFFFFFFFFFFFFFFFFFFFFFFFFFFE
FFFFFFFFFFFFFFFFFFFFFFFFFFFE
FFFFFFFFFFFFFFFFFFFFFFFFFFFE
FFFFFFFFFFFFFFFFFFFFFFFFFFFE
FFFFFFFFFFFFFFFFFFFFFFFFFFFE
FFFFFFFFFFFFFFFFFFFFFFFFFFFE
FFFFFFF000000000000000000000
FFFFFFF000000000000000000000
FFFFFFF000000000000000000000
FFFFFFF000000000000000000000
FFFFFFF000000000000000000000
FFFFFFF000000000000000000000
FFFFFFF000000000000000000000
FFFFFFF000000000000000000000
FFFFFFF000000000000000000000
FFFFFFF000000000000000000000
FFFFFFF000000000000000000000
FFFFFFF000000000000000000000
FFFFFFF000000000000000000000
FFFFFFF000000000000000000000
FFFFFFF000000000000000000000
FFFFFFF000000000000000000000
FFFFFFF000000000000000000000
FFFFFFF000000000000000000000
FFFFFFF000000000000000000000
FFFFFFF000000000000000000000
FFFFFFF000000000000000000000
FFFFFFF000000000000000000000
FFFFFFF000000000000000000000
FFFFFFF000000000000000000000
FFFFFFF000000000000000000000
FFFFFFF000000000000000000000
FFFFFFF000000000000000000000
FFFFFFF000000000000000000000
FFFFFFF000000000000000000000
FFFFFFF000000000000000000000
FFFFFFF000000000000000000000
FFFFFFF000000000000000000000
FFFFFFF000000000000000000000
FFFFFFF000000000000000000000
FFFFFFF000000000000000000000
ENDCHAR
STARTCHAR 0067
ENCODING 103
SWIDTH 1318 0
DWIDTH 120 0
BBX 111 91 -5 -13
BITMAP
0000007FFFFFFFFFFFFFFFFFFFFE
00001FFFFFFFFFFFFFFFFFFFFFFE
0000FFFFFFFFFFFFFFFFFFFFFFFE
0001FFFFFFFFFFFFFFFFFFFFFFFE
0007FFFFFFFFFFFFFFFFFFFFFFFE
001FFFFFFFFFFFFFFFFFFFFFFFFE
003FFFFFFFFFFFFFFFFFFFFFFFFE
00FFFFFFFFFFFFFFFFFFFFFFFFFE
03FFFFFFFFFFFFFFFFFFFFFFFFFE
07FFFFFFFFFFFFFFFFFFFFFFFFFE
0FFFFFFFFFFFFFFFFFFFFFFFFFFE
1FFFFFFFFFFFFFFFFFFFFFFFFFFE
1FFFFFFFFFFFFFFFFFFFFFFFFFFE
3FFFFFFFFFFFFFFFFFFFFFFFFFFE
3FFFFFFFFFFFFFFFFFFFFFFFFFFE
7FFFFFFFFFFFFFFFFFFFFFFFFFFE
7FFFFFFFFFFFFFFFFFFFFFFFFFFE
7FFFFFFFFFFFFFFFFFFFFFFFFFFE
FFFFFFFFFFFFFFFFFFFFFFFFFFFE
FFFFFFFFFFFFFFFFFFFFFFFFFFFE
FFFFFFFFFFFFFFFFFFFFFFFFFFFE
FFFFFFF000000000000000000000
FFFFFFF000000000000000000000
FFFFFFF000000000000000000000
FFFFFFF000000000000000000000
FFFFFFF000000000000000000000
FFFFFFF000000000000000000000
FFFFFFF000000000000000000000
FFFFFFF000000000000000000000
FFFFFFF000000000000000000000
FFFFFFF000000000000000000000
FFFFFFF000000000000000000000
FFFFFFF000000000000000000000
FFFFFFF000000000000000000000
FFFFFFF000000000000000000000
FFFFFFF0003FFFFFFFFFF8000000
FFFFFFF0003FFFFFFFFFFFF00000
FFFFFFF0003FFFFFFFFFFFFF0000
FFFFFFF0003FFFFFFFFFFFFF8000
FFFFFFF0003FFFFFFFFFFFFFE000
FFFFFFF0003FFFFFFFFFFFFFF800
FFFFFFF0003FFFFFFFFFFFFFFE00
FFFFFFF0003FFFFFFFFFFFFFFF00
FFFFFFF0003FFFFFFFFFFFFFFF80
FFFFFFF0003FFFFFFFFFFFFFFFC0
FFFFFFF0003FFFFFFFFFFFFFFFE0
FFFFFFF0003FFFFFFFFFFFFFFFF0
FFFFFFF0003FFFFFFFFFFFFFFFF0
FFFFFFF0003FFFFFFFFFFFFFFFF8
FFFFFFF0003FFFFFFFFFFFFFFFF8
FFFFFFF0003FFFFFFFFFFFFFFFFC
FFFFFFF0003FFFFFFFFFFFFFFFFE
FFFFFFF0003FFFFFFFFFFFFFFFFE
FFFFFFF0003FFFFFFFFFFFFFFFFE
FFFFFFF0003FFFFFFFFFFFFFFFFE
FFFFFFF0003FFFFFFFFFFFFFFFFE
FFFFFFF00000000000000FFFFFFE
FFFFFFF00000000000000FFFFFFE
FFFFFFF00000000000000FFFFFFE
FFFFFFF00000000000000FFFFFFE
FFFFFFF00000000000000FFFFFFE
FFFFFFF00000000000000FFFFFFE
FFFFFFF00000000000000FFFFFFE
FFFFFFF00000000000000FFFFFFE
FFFFFFF00000000000000FFFFFFE
FFFFFFF00000000000000FFFFFFE
FFFFFFF00000000000000FFFFFFE
FFFFFFF00000000000000FFFFFFE
FFFFFFF00000000000000FFFFFFE
FFFFFFF00000000000000FFFFFFE
FFFFFFFFFFFFFFFFFFFFFFFFFFFE
FFFFFFFFFFFFFFFFFFFFFFFFFFFE
FFFFFFFFFFFFFFFFFFFFFFFFFFFE
FFFFFFFFFFFFFFFFFFFFFFFFFFFE
7FFFFFFFFFFFFFFFFFFFFFFFFFFC
7FFFFFFFFFFFFFFFFFFFFFFFFFFC
3FFFFFFFFFFFFFFFFFFFFFFFFFFC
1FFFFFFFFFFFFFFFFFFFFFFFFFF8
1FFFFFFFFFFFFFFFFFFFFFFFFFF0
0FFFFFFFFFFFFFFFFFFFFFFFFFF0
0FFFFFFFFFFFFFFFFFFFFFFFFFE0
07FFFFFFFFFFFFFFFFFFFFFFFFC0
03FFFFFFFFFFFFFFFFFFFFFFFF80
01FFFFFFFFFFFFFFFFFFFFFFFE00
007FFFFFFFFFFFFFFFFFFFFFF800
001FFFFFFFFFFFFFFFFFFFFFF000
000FFFFFFFFFFFFFFFFFFFFFC000
0003FFFFFFFFFFFFFFFFFFFF0000
0000FFFFFFFFFFFFFFFFFFFE0000
00000FFFFFFFFFFFFFFFFFF00000
0000001FFFFFFFFFFFFFF8000000
ENDCHAR
STARTCHAR 0068
ENCODING 104
SWIDTH 1318 0
DWIDTH 120 0
BBX 111 91 -5 -13
BITMAP
FFFFFFF000000000000000000000
FFFFFFF000000000000000000000
FFFFFFF000000000000000000000
FFFFFFF000000000000000000000
FFFFFFF000000000000000000000
FFFFFFF000000000000000000000
FFFFFFF000000000000000000000
FFFFFFF000000000000000000000
FFFFFFF000000000000000000000
FFFFFFF000000000000000000000
FFFFFFF000000000000000000000
FFFFFFF000000000000000000000
FFFFFFF000000000000000000000
FFFFFFF000000000000000000000
FFFFFFF000000000000000000000
FFFFFFF000000000000000000000
FFFFFFF000000000000000000000
FFFFFFF000000000000000000000
FFFFFFF000000000000000000000
FFFFFFF000000000000000000000
FFFFFFF000000000000000000000
FFFFFFFFFFFFFFFFFFFFF8000000
FFFFFFFFFFFFFFFFFFFFFFC00000
FFFFFFFFFFFFFFFFFFFFFFF80000
FFFFFFFFFFFFFFFFFFFFFFFE0000
FFFFFFFFFFFFFFFFFFFFFFFFC000
FFFFFFFFFFFFFFFFFFFFFFFFE000
FFFFFFFFFFFFFFFFFFFFFFFFF000
FFFFFFFFFFFFFFFFFFFFFFFFF800
FFFFFFFFFFFFFFFFFFFFFFFFFE00
FFFFFFFFFFFFFFFFFFFFFFFFFF00
FFFFFFFFFFFFFFFFFFFFFFFFFF00
FFFFFFFFFFFFFFFFFFFFFFFFFF80
FFFFFFFFFFFFFFFFFFFFFFFFFF80
FFFFFFFFFFFFFFFFFFFFFFFFFFC0
FFFFFFFFFFFFFFFFFFFFFFFFFFE0
FFFFFFFFFFFFFFFFFFFFFFFFFFE0
FFFFFFFFFFFFFFFFFFFFFFFFFFF0
FFFFFFFFFFFFFFFFFFFFFFFFFFF8
FFFFFFFFFFFFFFFFFFFFFFFFFFF8
FFFFFFFFFFFFFFFFFFFFFFFFFFFC
FFFFFFFFFFFFFFFFFFFFFFFFFFFC
FFFFFFFFFFFFFFFFFFFFFFFFFFFC
FFFFFFFFFFFFFFFFFFFFFFFFFFFE
FFFFFFFFFFFFFFFFFFFFFFFFFFFE
FFFFFFFFFFFFFFFFFFFFFFFFFFFE
FFFFFFFFFFFFFFFFFFFFFFFFFFFE
FFFFFFFFFFFFFFFFFFFFFFFFFFFE
FFFFFFFFFFFFFFFFFFFFFFFFFFFE
FFFFFFF00000000000000FFFFFFE
FFFFFFF00000000000000FFFFFFE
FFFFFFF00000000000000FFFFFFE
FFFFFFF00000000000000FFFFFFE
FFFFFFF00000000000000FFFFFFE
FFFFFFF00000000000000FFFFFFE
FFFFFFF00000000000000FFFFFFE
FFFFFFF00000000000000FFFFFFE
FFFFFFF00000000000000FFFFFFE
FFFFFFF00000000000000FFFFFFE
FFFFFFF00000000000000FFFFFFE
FFFFFFF00000000000000FFFFFFE
FFFFFFF00000000000000FFFFFFE
FFFFFFF00000000000000FFFFFFE
FFFFFFF00000000000000FFFFFFE
FFFFFFF00000000000000FFFFFFE
FFFFFFF00000000000000FFFFFFE
FFFFFFF00000000000000FFFFFFE
FFFFFFF00000000000000FFFFFFE
FFFFFFF00000000000000FFFFFFE
FFFFFFF00000000000000FFFFFFE
FFFFFFF00000000000000FFFFFFE
FFFFFFF00000000000000FFFFFFE
FFFFFFF00000000000000FFFFFFE
FFFFFFF00000000000000FFFFFFE
FFFFFFF00000000000000FFFFFFE
FFFFFFF00000000000000FFFFFFE
FFFFFFF00000000000000FFFFFFE
FFFFFFF00000000000000FFFFFFE
FFFFFFF00000000000000FFFFFFE
FFFFFFF00000000000000FFFFFFE
FFFFFFF00000000000000FFFFFFE
FFFFFFF00000000000000FFFFFFE
FFFFFFF00000000000000FFFFFFE
FFFFFFF00000000000000FFFFFFE
FFFFFFF00000000000000FFFFFFE
FFFFFFF00000000000000FFFFFFE
FFFFFFF00000000000000FFFFFFE
FFFFFFF00000000000000FFFFFFE
FFFFFFF00000000000000FFFFFFE
FFFFFFF00000000000000FFFFFFE
FFFFFFF00000000000000FFFFFFE
ENDCHAR
STARTCHAR 0069
ENCODING 105
SWIDTH 395 0
DWIDTH 36 0
BBX 28 91 -5 -13
BITMAP
FFFFFFF0
FFFFFFF0
FFFFFFF0
FFFFFFF0
FFFFFFF0
FFFFFFF0
FFFFFFF0
FFFFFFF0
FFFFFFF0
FFFFFFF0
FFFFFFF0
FFFFFFF0
FFFFFFF0
FFFFFFF0
FFFFFFF0
FFFFFFF0
FFFFFFF0
FFFFFFF0
FFFFFFF0
FFFFFFF0
FFFFFFF0
FFFFFFF0
FFFFFFF0
FFFFFFF0
FFFFFFF0
FFFFFFF0
FFFFFFF0
FFFFFFF0
FFFFFFF0
FFFFFFF0
FFFFFFF0
FFFFFFF0
FFFFFFF0
FFFFFFF0
FFFFFFF0
FFFFFFF0
FFFFFFF0
FFFFFFF0
FFFFFFF0
FFFFFFF0
FFFFFFF0
FFFFFFF0
FFFFFFF0
FFFFFFF0
FFFFFFF0
FFFFFFF0
FFFFFFF0
FFFFFFF0
FFFFFFF0
FFFFFFF0
FFFFFFF0
FFFFFFF0
FFFFFFF0
FFFFFFF0
FFFFFFF0
FFFFFFF0
FFFFFFF0
FFFFFFF0
FFFFFFF0
FFFFFFF0
FFFFFFF0
FFFFFFF0
FFFFFFF0
FFFFFFF0
FFFFFFF0
FFFFFFF0
FFFFFFF0
FFFFFFF0
FFFFFFF0
FFFFFFF0
FFFFFFF0
FFFFFFF0
FFFFFFF0
FFFFFFF0
FFFFFFF0
FFFFFFF0
FFFFFFF0
FFFFFFF0
FFFFFFF0
FFFFFFF0
FFFFFFF0
FFFFFFF0
FFFFFFF0
FFFFFFF0
FFFFFFF0
FFFFFFF0
FFFFFFF0
FFFFFFF0
FFFFFFF0
FFFFFFF0
FFFFFFF0
ENDCHAR
STARTCHAR 006A
ENCODING 106
SWIDTH 1318 0
DWIDTH 120 0
BBX 112 91 -5 -13
BITMAP
000000000000000000000FFFFFFF
000000000000000000000FFFFFFF
000000000000000000000FFFFFFF
000000000000000000000FFFFFFF
000000000000000000000FFFFFFF
000000000000000000000FFFFFFF
000000000000000000000FFFFFFF
000000000000000000000FFFFFFF
000000000000000000000FFFFFFF
000000000000000000000FFFFFFF
000000000000000000000FFFFFFF
000000000000000000000FFFFFFF
000000000000000000000FFFFFFF
000000000000000000000FFFFFFF
000000000000000000000FFFFFFF
000000000000000000000FFFFFFF
000000000000000000000FFFFFFF
000000000000000000000FFFFFFF
000000000000000000000FFFFFFF
000000000000000000000FFFFFFF
000000000000000000000FFFFFFF
000000000000000000000FFFFFFF
000000000000000000000FFFFFFF
000000000000000000000FFFFFFF
000000000000000000000FFFFFFF
000000000000000000000FFFFFFF
000000000000000000000FFFFFFF
000000000000000000000FFFFFFF
000000000000000000000FFFFFFF
000000000000000000000FFFFFFF
000000000000000000000FFFFFFF
000000000000000000000FFFFFFF
000000000000000000000FFFFFFF
000000000000000000000FFFFFFF
000000000000000000000FFFFFFF
000000000000000000000FFFFFFF
000000000000000000000FFFFFFF
000000000000000000000FFFFFFF
000000000000000000000FFFFFFF
000000000000000000000FFFFFFF
000000000000000000000FFFFFFF
000000000000000000000FFFFFFF
FFFFFFF00000000000000FFFFFFF
FFFFFFF00000000000000FFFFFFF
FFFFFFF00000000000000FFFFFFF
FFFFFFF00000000000000FFFFFFF
FFFFFFF00000000000000FFFFFFF
FFFFFFF00000000000000FFFFFFF
FFFFFFF00000000000000FFFFFFF
FFFFFFF00000000000000FFFFFFF
FFFFFFF00000000000000FFFFFFF
FFFFFFF00000000000000FFFFFFF
FFFFFFF00000000000000FFFFFFF
FFFFFFF00000000000000FFFFFFF
FFFFFFF00000000000000FFFFFFF
FFFFFFF00000000000000FFFFFFF
FFFFFFF00000000000000FFFFFFF
FFFFFFF00000000000000FFFFFFF
FFFFFFF00000000000000FFFFFFF
FFFFFFF00000000000000FFFFFFF
FFFFFFF00000000000000FFFFFFF
FFFFFFF00000000000000FFFFFFF
FFFFFFF00000000000000FFFFFFF
FFFFFFFFFFFFFFFFFFFFFFFFFFFF
FFFFFFFFFFFFFFFFFFFFFFFFFFFF
FFFFFFFFFFFFFFFFFFFFFFFFFFFF
FFFFFFFFFFFFFFFFFFFFFFFFFFFF
FFFFFFFFFFFFFFFFFFFFFFFFFFFF
7FFFFFFFFFFFFFFFFFFFFFFFFFFE
7FFFFFFFFFFFFFFFFFFFFFFFFFFE
7FFFFFFFFFFFFFFFFFFFFFFFFFFE
3FFFFFFFFFFFFFFFFFFFFFFFFFFC
3FFFFFFFFFFFFFFFFFFFFFFFFFFC
1FFFFFFFFFFFFFFFFFFFFFFFFFFC
1FFFFFFFFFFFFFFFFFFFFFFFFFF8
0FFFFFFFFFFFFFFFFFFFFFFFFFF8
07FFFFFFFFFFFFFFFFFFFFFFFFF0
07FFFFFFFFFFFFFFFFFFFFFFFFE0
03FFFFFFFFFFFFFFFFFFFFFFFFE0
01FFFFFFFFFFFFFFFFFFFFFFFFC0
01FFFFFFFFFFFFFFFFFFFFFFFF80
00FFFFFFFFFFFFFFFFFFFFFFFF00
007FFFFFFFFFFFFFFFFFFFFFFE00
003FFFFFFFFFFFFFFFFFFFFFFC00
001FFFFFFFFFFFFFFFFFFFFFF000
000FFFFFFFFFFFFFFFFFFFFFE000
0003FFFFFFFFFFFFFFFFFFFF8000
0001FFFFFFFFFFFFFFFFFFFE0000
00003FFFFFFFFFFFFFFFFFF80000
00000FFFFFFFFFFFFFFFFFE00000
000000FFFFFFFFFFFFFFFE000000
ENDCHAR
STARTCHAR 006B
ENCODING 107
SWIDTH 1318 0
DWIDTH 120 0
BBX 111 91 -5 -13
BITMAP
FFFFFFF00000000000001FFFFFFE
FFFFFFF00000000000001FFFFFFE
FFFFFFF00000000000001FFFFFFE
FFFFFFF00000000000001FFFFFFE
FFFFFFF00000000000001FFFFFFE
FFFFFFF00000000000001FFFFFFE
FFFFFFF00000000000001FFFFFFE
FFFFFFF00000000000001FFFFFFE
FFFFFFF00000000000001FFFFFFE
FFFFFFF00000000000001FFFFFFE
FFFFFFF00000000000001FFFFFFE
FFFFFFF00000000000001FFFFFFE
FFFFFFF00000000000001FFFFFFE
FFFFFFF00000000000001FFFFFFE
FFFFFFF00000000000001FFFFFFE
FFFFFFF00000000000001FFFFFFE
FFFFFFF00000000000001FFFFFFE
FFFFFFF00000000000001FFFFFFE
FFFFFFF00000000000001FFFFFFE
FFFFFFF00000000000001FFFFFFE
FFFFFFF00000000000001FFFFFFE
FFFFFFF00000000000001FFFFFFE
FFFFFFF00000000000001FFFFFFE
FFFFFFF00000000000001FFFFFFE
FFFFFFF00000000000001FFFFFFE
FFFFFFF00000000000001FFFFFFE
FFFFFFF00000000000001FFFFFFE
FFFFFFF00000000000001FFFFFFE
FFFFFFF00000000000001FFFFFFE
FFFFFFF00000000000001FFFFFFE
FFFFFFF00000000000001FFFFFFE
FFFFFFF00000000000001FFFFFFE
FFFFFFF00000000000001FFFFFFE
FFFFFFF00000000000001FFFFFFE
FFFFFFF00000000000001FFFFFFE
FFFFFFFFFFFFFFFFFFFFFFFFFFFE
FFFFFFFFFFFFFFFFFFFFFFFFFFFE
FFFFFFFFFFFFFFFFFFFFFFFFFFFE
FFFFFFFFFFFFFFFFFFFFFFFFFFFC
FFFFFFFFFFFFFFFFFFFFFFFFFFFC
FFFFFFFFFFFFFFFFFFFFFFFFFFFC
FFFFFFFFFFFFFFFFFFFFFFFFFFF8
FFFFFFFFFFFFFFFFFFFFFFFFFFF8
FFFFFFFFFFFFFFFFFFFFFFFFFFF0
FFFFFFFFFFFFFFFFFFFFFFFFFFF0
FFFFFFFFFFFFFFFFFFFFFFFFFFE0
FFFFFFFFFFFFFFFFFFFFFFFFFFF0
FFFFFFFFFFFFFFFFFFFFFFFFFFF0
FFFFFFFFFFFFFFFFFFFFFFFFFFF8
FFFFFFFFFFFFFFFFFFFFFFFFFFF8
FFFFFFFFFFFFFFFFFFFFFFFFFFFC
FFFFFFFFFFFFFFFFFFFFFFFFFFFC
FFFFFFFFFFFFFFFFFFFFFFFFFFFE
FFFFFFFFFFFFFFFFFFFFFFFFFFFE
FFFFFFFFFFFFFFFFFFFFFFFFFFFE
FFFFFFFFFFFFFFFFFFFFFFFFFFFE
FFFFFFF00000000000001FFFFFFE
FFFFFFF00000000000001FFFFFFE
FFFFFFF00000000000001FFFFFFE
FFFFFFF00000000000001FFFFFFE
FFFFFFF00000000000001FFFFFFE
FFFFFFF00000000000001FFFFFFE
FFFFFFF00000000000001FFFFFFE
FFFFFFF00000000000001FFFFFFE
FFFFFFF00000000000001FFFFFFE
FFFFFFF00000000000001FFFFFFE
FFFFFFF00000000000001FFFFFFE
FFFFFFF00000000000001FFFFFFE
FFFFFFF00000000000001FFFFFFE
FFFFFFF00000000000001FFFFFFE
FFFFFFF00000000000001FFFFFFE
FFFFFFF00000000000001FFFFFFE
FFFFFFF00000000000001FFFFFFE
FFFFFFF00000000000001FFFFFFE
FFFFFFF00000000000001FFFFFFE
FFFFFFF00000000000001FFFFFFE
FFFFFFF00000000000001FFFFFFE
FFFFFFF00000000000001FFFFFFE
FFFFFFF00000000000001FFFFFFE
FFFFFFF00000000000001FFFFFFE
FFFFFFF00000000000001FFFFFFE
FFFFFFF00000000000001FFFFFFE
FFFFFFF00000000000001FFFFFFE
FFFFFFF00000000000001FFFFFFE
FFFFFFF00000000000001FFFFFFE
FFFFFFF00000000000001FFFFFFE
FFFFFFF00000000000001FFFFFFE
FFFFFFF00000000000001FFFFFFE
FFFFFFF00000000000001FFFFFFE
FFFFFFF00000000000001FFFFFFE
FFFFFFF00000000000001FFFFFFE
ENDCHAR
STARTCHAR 006C
ENCODING 108
SWIDTH 1318 0
DWIDTH 120 0
BBX 111 91 -5 -13
BITMAP
FFFFFFF000000000000000000000
FFFFFFF000000000000000000000
FFFFFFF000000000000000000000
FFFFFFF000000000000000000000
FFFFFFF000000000000000000000
FFFFFFF000000000000000000000
FFFFFFF000000000000000000000
FFFFFFF000000000000000000000
FFFFFFF000000000000000000000
FFFFFFF000000000000000000000
FFFFFFF000000000000000000000
FFFFFFF000000000000000000000
FFFFFFF000000000000000000000
FFFFFFF000000000000000000000
FFFFFFF000000000000000000000
FFFFFFF000000000000000000000
FFFFFFF000000000000000000000
FFFFFFF000000000000000000000
FFFFFFF000000000000000000000
FFFFFFF000000000000000000000
FFFFFFF000000000000000000000
FFFFFFF000000000000000000000
FFFFFFF000000000000000000000
FFFFFFF000000000000000000000
FFFFFFF000000000000000000000
FFFFFFF000000000000000000000
FFFFFFF000000000000000000000
FFFFFFF000000000000000000000
FFFFFFF000000000000000000000
FFFFFFF000000000000000000000
FFFFFFF000000000000000000000
FFFFFFF000000000000000000000
FFFFFFF000000000000000000000
FFFFFFF000000000000000000000
FFFFFFF000000000000000000000
FFFFFFF000000000000000000000
FFFFFFF000000000000000000000
FFFFFFF000000000000000000000
FFFFFFF000000000000000000000
FFFFFFF000000000000000000000
FFFFFFF000000000000000000000
FFFFFFF000000000000000000000
FFFFFFF000000000000000000000
FFFFFFF000000000000000000000
FFFFFFF000000000000000000000
FFFFFFF000000000000000000000
FFFFFFF000000000000000000000
FFFFFFF000000000000000000000
FFFFFFF000000000000000000000
FFFFFFF000000000000000000000
FFFFFFF000000000000000000000
FFFFFFF000000000000000000000
FFFFFFF000000000000000000000
FFFFFFF000000000000000000000
FFFFFFF000000000000000000000
FFFFFFF000000000000000000000
FFFFFFF000000000000000000000
FFFFFFF000000000000000000000
FFFFFFF000000000000000000000
FFFFFFF000000000000000000000
FFFFFFF000000000000000000000
FFFFFFF000000000000000000000
FFFFFFF000000000000000000000
FFFFFFFFFFFFFFFFFFFFFFFFFFFE
FFFFFFFFFFFFFFFFFFFFFFFFFFFE
FFFFFFFFFFFFFFFFFFFFFFFFFFFE
FFFFFFFFFFFFFFFFFFFFFFFFFFFE
FFFFFFFFFFFFFFFFFFFFFFFFFFFE
7FFFFFFFFFFFFFFFFFFFFFFFFFFE
7FFFFFFFFFFFFFFFFFFFFFFFFFFE
7FFFFFFFFFFFFFFFFFFFFFFFFFFE
3FFFFFFFFFFFFFFFFFFFFFFFFFFE
3FFFFFFFFFFFFFFFFFFFFFFFFFFE
1FFFFFFFFFFFFFFFFFFFFFFFFFFE
1FFFFFFFFFFFFFFFFFFFFFFFFFFE
0FFFFFFFFFFFFFFFFFFFFFFFFFFE
07FFFFFFFFFFFFFFFFFFFFFFFFFE
07FFFFFFFFFFFFFFFFFFFFFFFFFE
03FFFFFFFFFFFFFFFFFFFFFFFFFE
03FFFFFFFFFFFFFFFFFFFFFFFFFE
01FFFFFFFFFFFFFFFFFFFFFFFFFE
00FFFFFFFFFFFFFFFFFFFFFFFFFE
00FFFFFFFFFFFFFFFFFFFFFFFFFE
007FFFFFFFFFFFFFFFFFFFFFFFFE
001FFFFFFFFFFFFFFFFFFFFFFFFE
000FFFFFFFFFFFFFFFFFFFFFFFFE
0007FFFFFFFFFFFFFFFFFFFFFFFE
0001FFFFFFFFFFFFFFFFFFFFFFFE
00007FFFFFFFFFFFFFFFFFFFFFFE
00000FFFFFFFFFFFFFFFFFFFFFFE
000001FFFFFFFFFFFFFFFFFFFFFE
ENDCHAR
STARTCHAR 006D
ENCODING 109
SWIDTH 1780 0
DWIDTH 162 0
BBX 153 91 0 -13
BITMAP
FFFFFFFFFFFFFFFFFFFFFFFFFFFFFFFFC0000000
FFFFFFFFFFFFFFFFFFFFFFFFFFFFFFFFFC000000
FFFFFFFFFFFFFFFFFFFFFFFFFFFFFFFFFF000000
FFFFFFFFFFFFFFFFFFFFFFFFFFFFFFFFFFC00000
FFFFFFFFFFFFFFFFFFFFFFFFFFFFFFFFFFF00000
FFFFFFFFFFFFFFFFFFFFFFFFFFFFFFFFFFF80000
FFFFFFFFFFFFFFFFFFFFFFFFFFFFFFFFFFFC0000
FFFFFFFFFFFFFFFFFFFFFFFFFFFFFFFFFFFE0000
FFFFFFFFFFFFFFFFFFFFFFFFFFFFFFFFFFFF8000
FFFFFFFFFFFFFFFFFFFFFFFFFFFFFFFFFFFF8000
FFFFFFFFFFFFFFFFFFFFFFFFFFFFFFFFFFFFC000
FFFFFFFFFFFFFFFFFFFFFFFFFFFFFFFFFFFFC000
FFFFFFFFFFFFFFFFFFFFFFFFFFFFFFFFFFFFE000
FFFFFFFFFFFFFFFFFFFFFFFFFFFFFFFFFFFFF000
FFFFFFFFFFFFFFFFFFFFFFFFFFFFFFFFFFFFF000
FFFFFFFFFFFFFFFFFFFFFFFFFFFFFFFFFFFFF800
FFFFFFFFFFFFFFFFFFFFFFFFFFFFFFFFFFFFFC00
FFFFFFFFFFFFFFFFFFFFFFFFFFFFFFFFFFFFFC00
FFFFFFFFFFFFFFFFFFFFFFFFFFFFFFFFFFFFFE00
FFFFFFFFFFFFFFFFFFFFFFFFFFFFFFFFFFFFFE00
FFFFFFFFFFFFFFFFFFFFFFFFFFFFFFFFFFFFFF00
FFFFFFFFFFFFFFFFFFFFFFFFFFFFFFFFFFFFFF00
FFFFFFFFFFFFFFFFFFFFFFFFFFFFFFFFFFFFFF00
FFFFFFFFFFFFFFFFFFFFFFFFFFFFFFFFFFFFFF00
FFFFFFFFFFFFFFFFFFFFFFFFFFFFFFFFFFFFFF00
FFFFFFFFFFFFFFFFFFFFFFFFFFFFFFFFFFFFFF00
FFFFFFFFFFFFFFFFFFFFFFFFFFFFFFFFFFFFFF00
FFFFFFFFFFFFFFFFFFFFFFFFFFFFFFFFFFFFFF80
FFFFFFF000000001FFFFFFC000000007FFFFFF80
FFFFFFF000000001FFFFFFC000000007FFFFFF80
FFFFFFF000000001FFFFFFC000000007FFFFFF80
FFFFFFF000000001FFFFFFC000000007FFFFFF80
FFFFFFF000000001FFFFFFC000000007FFFFFF80
FFFFFFF000000001FFFFFFC000000007FFFFFF80
FFFFFFF000000001FFFFFFC000000007FFFFFF80
FFFFFFF000000001FFFFFFC000000007FFFFFF80
FFFFFFF000000001FFFFFFC000000007FFFFFF80
FFFFFFF000000001FFFFFFC000000007FFFFFF80
FFFFFFF000000001FFFFFFC000000007FFFFFF80
FFFFFFF000000001FFFFFFC000000007FFFFFF80
FFFFFFF000000001FFFFFFC000000007FFFFFF80
FFFFFFF000000001FFFFFFC000000007FFFFFF80
FFFFFFF000000001FFFFFFC000000007FFFFFF80
FFFFFFF000000001FFFFFFC000000007FFFFFF80
FFFFFFF000000001FFFFFFC000000007FFFFFF80
FFFFFFF000000001FFFFFFC000000007FFFFFF80
FFFFFFF000000001FFFFFFC000000007FFFFFF80
FFFFFFF000000001FFFFFFC000000007FFFFFF80
FFFFFFF000000001FFFFFFC000000007FFFFFF80
FFFFFFF000000001FFFFFFC000000007FFFFFF80
FFFFFFF000000001FFFFFFC000000007FFFFFF80
FFFFFFF000000001FFFFFFC000000007FFFFFF80
FFFFFFF000000001FFFFFFC000000007FFFFFF80
FFFFFFF000000001FFFFFFC000000007FFFFFF80
FFFFFFF000000001FFFFFFC000000007FFFFFF80
FFFFFFF000000001FFFFFFC000000007FFFFFF80
FFFFFFF000000001FFFFFFC000000007FFFFFF80
FFFFFFF000000001FFFFFFC000000007FFFFFF80
FFFFFFF000000001FFFFFFC000000007FFFFFF80
FFFFFFF000000001FFFFFFC000000007FFFFFF80
FFFFFFF000000001FFFFFFC000000007FFFFFF80
FFFFFFF000000001FFFFFFC000000007FFFFFF80
FFFFFFF000000001FFFFFFC000000007FFFFFF80
FFFFFFF000000001FFFFFFC000000007FFFFFF80
FFFFFFF000000001FFFFFFC000000007FFFFFF80
FFFFFFF000000001FFFFFFC000000007FFFFFF80
FFFFFFF000000001FFFFFFC000000007FFFFFF80
FFFFFFF000000001FFFFFFC000000007FFFFFF80
FFFFFFF000000001FFFFFFC000000007FFFFFF80
FFFFFFF000000001FFFFFFC000000007FFFFFF80
FFFFFFF000000001FFFFFFC000000007FFFFFF80
FFFFFFF000000001FFFFFFC000000007FFFFFF80
FFFFFFF000000001FFFFFFC000000007FFFFFF80
FFFFFFF000000001FFFFFFC000000007FFFFFF80
FFFFFFF000000001FFFFFFC000000007FFFFFF80
FFFFFFF000000001FFFFFFC000000007FFFFFF80
FFFFFFF000000001FFFFFFC000000007FFFFFF80
FFFFFFF000000001FFFFFFC000000007FFFFFF80
FFFFFFF000000001FFFFFFC000000007FFFFFF80
FFFFFFF000000001FFFFFFC000000007FFFFFF80
FFFFFFF000000001FFFFFFC000000007FFFFFF80
FFFFFFF000000001FFFFFFC000000007FFFFFF80
FFFFFFF000000001FFFFFFC000000007FFFFFF80
FFFFFFF000000001FFFFFFC000000007FFFFFF80
FFFFFFF000000001FFFFFFC000000007FFFFFF80
FFFFFFF000000001FFFFFFC000000007FFFFFF80
FFFFFFF000000001FFFFFFC000000007FFFFFF80
FFFFFFF000000001FFFFFFC000000007FFFFFF80
FFFFFFF000000001FFFFFFC000000007FFFFFF80
FFFFFFF000000001FFFFFFC000000007FFFFFF80
FFFFFFF000000001FFFFFFC000000007FFFFFF80
ENDCHAR
STARTCHAR 006E
ENCODING 110
SWIDTH 1318 0
DWIDTH 120 0
BBX 111 91 -5 -13
BITMAP
FFFFFFFFFFFFFFFFFFFFFF000000
FFFFFFFFFFFFFFFFFFFFFFF00000
FFFFFFFFFFFFFFFFFFFFFFFE0000
FFFFFFFFFFFFFFFFFFFFFFFF0000
FFFFFFFFFFFFFFFFFFFFFFFFC000
FFFFFFFFFFFFFFFFFFFFFFFFE000
FFFFFFFFFFFFFFFFFFFFFFFFF800
FFFFFFFFFFFFFFFFFFFFFFFFFC00
FFFFFFFFFFFFFFFFFFFFFFFFFE00
FFFFFFFFFFFFFFFFFFFFFFFFFF00
FFFFFFFFFFFFFFFFFFFFFFFFFF00
FFFFFFFFFFFFFFFFFFFFFFFFFF80
FFFFFFFFFFFFFFFFFFFFFFFFFFC0
FFFFFFFFFFFFFFFFFFFFFFFFFFC0
FFFFFFFFFFFFFFFFFFFFFFFFFFE0
FFFFFFFFFFFFFFFFFFFFFFFFFFE0
FFFFFFFFFFFFFFFFFFFFFFFFFFF0
FFFFFFFFFFFFFFFFFFFFFFFFFFF8
FFFFFFFFFFFFFFFFFFFFFFFFFFF8
FFFFFFFFFFFFFFFFFFFFFFFFFFFC
FFFFFFFFFFFFFFFFFFFFFFFFFFFC
FFFFFFFFFFFFFFFFFFFFFFFFFFFC
FFFFFFFFFFFFFFFFFFFFFFFFFFFC
FFFFFFFFFFFFFFFFFFFFFFFFFFFE
FFFFFFFFFFFFFFFFFFFFFFFFFFFE
FFFFFFFFFFFFFFFFFFFFFFFFFFFE
FFFFFFFFFFFFFFFFFFFFFFFFFFFE
FFFFFFFFFFFFFFFFFFFFFFFFFFFE
FFFFFFF00000000000001FFFFFFE
FFFFFFF00000000000001FFFFFFE
FFFFFFF00000000000001FFFFFFE
FFFFFFF00000000000001FFFFFFE
FFFFFFF00000000000001FFFFFFE
FFFFFFF00000000000001FFFFFFE
FFFFFFF00000000000001FFFFFFE
FFFFFFF00000000000001FFFFFFE
FFFFFFF00000000000001FFFFFFE
FFFFFFF00000000000001FFFFFFE
FFFFFFF00000000000001FFFFFFE
FFFFFFF00000000000001FFFFFFE
FFFFFFF00000000000001FFFFFFE
FFFFFFF00000000000001FFFFFFE
FFFFFFF00000000000001FFFFFFE
FFFFFFF00000000000001FFFFFFE
FFFFFFF00000000000001FFFFFFE
FFFFFFF00000000000001FFFFFFE
FFFFFFF00000000000001FFFFFFE
FFFFFFF00000000000001FFFFFFE
FFFFFFF00000000000001FFFFFFE
FFFFFFF00000000000001FFFFFFE
FFFFFFF00000000000001FFFFFFE
FFFFFFF00000000000001FFFFFFE
FFFFFFF00000000000001FFFFFFE
FFFFFFF00000000000001FFFFFFE
FFFFFFF00000000000001FFFFFFE
FFFFFFF00000000000001FFFFFFE
FFFFFFF00000000000001FFFFFFE
FFFFFFF00000000000001FFFFFFE
FFFFFFF00000000000001FFFFFFE
FFFFFFF00000000000001FFFFFFE
FFFFFFF00000000000001FFFFFFE
FFFFFFF00000000000001FFFFFFE
FFFFFFF00000000000001FFFFFFE
FFFFFFF00000000000001FFFFFFE
FFFFFFF00000000000001FFFFFFE
FFFFFFF00000000000001FFFFFFE
FFFFFFF00000000000001FFFFFFE
FFFFFFF00000000000001FFFFFFE
FFFFFFF00000000000001FFFFFFE
FFFFFFF00000000000001FFFFFFE
FFFFFFF00000000000001FFFFFFE
FFFFFFF00000000000001FFFFFFE
FFFFFFF00000000000001FFFFFFE
FFFFFFF00000000000001FFFFFFE
FFFFFFF00000000000001FFFFFFE
FFFFFFF00000000000001FFFFFFE
FFFFFFF00000000000001FFFFFFE
FFFFFFF00000000000001FFFFFFE
FFFFFFF00000000000001FFFFFFE
FFFFFFF00000000000001FFFFFFE
FFFFFFF00000000000001FFFFFFE
FFFFFFF00000000000001FFFFFFE
FFFFFFF00000000000001FFFFFFE
FFFFFFF00000000000001FFFFFFE
FFFFFFF00000000000001FFFFFFE
FFFFFFF00000000000001FFFFFFE
FFFFFFF00000000000001FFFFFFE
FFFFFFF00000000000001FFFFFFE
FFFFFFF00000000000001FFFFFFE
FFFFFFF00000000000001FFFFFFE
FFFFFFF00000000000001FFFFFFE
ENDCHAR
STARTCHAR 006F
ENCODING 111
SWIDTH 1318 0
DWIDTH 120 0
BBX 111 91 -5 -13
BITMAP
0000007FFFFFFFFFFFFFFE000000
000007FFFFFFFFFFFFFFFFE00000
00003FFFFFFFFFFFFFFFFFFC0000
0000FFFFFFFFFFFFFFFFFFFF0000
0003FFFFFFFFFFFFFFFFFFFFC000
0007FFFFFFFFFFFFFFFFFFFFE000
001FFFFFFFFFFFFFFFFFFFFFF800
003FFFFFFFFFFFFFFFFFFFFFFC00
00FFFFFFFFFFFFFFFFFFFFFFFE00
00FFFFFFFFFFFFFFFFFFFFFFFF00
01FFFFFFFFFFFFFFFFFFFFFFFF00
03FFFFFFFFFFFFFFFFFFFFFFFF80
07FFFFFFFFFFFFFFFFFFFFFFFF80
07FFFFFFFFFFFFFFFFFFFFFFFFC0
0FFFFFFFFFFFFFFFFFFFFFFFFFE0
1FFFFFFFFFFFFFFFFFFFFFFFFFE0
1FFFFFFFFFFFFFFFFFFFFFFFFFF0
3FFFFFFFFFFFFFFFFFFFFFFFFFF8
3FFFFFFFFFFFFFFFFFFFFFFFFFF8
7FFFFFFFFFFFFFFFFFFFFFFFFFFC
7FFFFFFFFFFFFFFFFFFFFFFFFFFC
7FFFFFFFFFFFFFFFFFFFFFFFFFFC
7FFFFFFFFFFFFFFFFFFFFFFFFFFE
7FFFFFFFFFFFFFFFFFFFFFFFFFFE
FFFFFFFFFFFFFFFFFFFFFFFFFFFE
FFFFFFFFFFFFFFFFFFFFFFFFFFFE
FFFFFFFFFFFFFFFFFFFFFFFFFFFE
FFFFFFFFFFFFFFFFFFFFFFFFFFFE
FFFFFFF00000000000001FFFFFFE
FFFFFFF00000000000001FFFFFFE
FFFFFFF00000000000001FFFFFFE
FFFFFFF00000000000001FFFFFFE
FFFFFFF00000000000001FFFFFFE
FFFFFFF00000000000001FFFFFFE
FFFFFFF00000000000001FFFFFFE
FFFFFFF00000000000001FFFFFFE
FFFFFFF00000000000001FFFFFFE
FFFFFFF00000000000001FFFFFFE
FFFFFFF00000000000001FFFFFFE
FFFFFFF00000000000001FFFFFFE
FFFFFFF00000000000001FFFFFFE
FFFFFFF00000000000001FFFFFFE
FFFFFFF00000000000001FFFFFFE
FFFFFFF00000000000001FFFFFFE
FFFFFFF00000000000001FFFFFFE
FFFFFFF00000000000001FFFFFFE
FFFFFFF00000000000001FFFFFFE
FFFFFFF00000000000001FFFFFFE
FFFFFFF00000000000001FFFFFFE
FFFFFFF00000000000001FFFFFFE
FFFFFFF00000000000001FFFFFFE
FFFFFFF00000000000001FFFFFFE
FFFFFFF00000000000001FFFFFFE
FFFFFFF00000000000001FFFFFFE
FFFFFFF00000000000001FFFFFFE
FFFFFFF00000000000001FFFFFFE
FFFFFFF00000000000001FFFFFFE
FFFFFFF00000000000001FFFFFFE
FFFFFFF00000000000001FFFFFFE
FFFFFFF00000000000001FFFFFFE
FFFFFFF00000000000001FFFFFFE
FFFFFFF00000000000001FFFFFFE
FFFFFFFFFFFFFFFFFFFFFFFFFFFE
FFFFFFFFFFFFFFFFFFFFFFFFFFFE
FFFFFFFFFFFFFFFFFFFFFFFFFFFE
FFFFFFFFFFFFFFFFFFFFFFFFFFFE
FFFFFFFFFFFFFFFFFFFFFFFFFFFE
7FFFFFFFFFFFFFFFFFFFFFFFFFFE
7FFFFFFFFFFFFFFFFFFFFFFFFFFC
7FFFFFFFFFFFFFFFFFFFFFFFFFFC
3FFFFFFFFFFFFFFFFFFFFFFFFFFC
3FFFFFFFFFFFFFFFFFFFFFFFFFF8
3FFFFFFFFFFFFFFFFFFFFFFFFFF8
1FFFFFFFFFFFFFFFFFFFFFFFFFF0
1FFFFFFFFFFFFFFFFFFFFFFFFFF0
0FFFFFFFFFFFFFFFFFFFFFFFFFF0
07FFFFFFFFFFFFFFFFFFFFFFFFE0
07FFFFFFFFFFFFFFFFFFFFFFFFE0
03FFFFFFFFFFFFFFFFFFFFFFFFC0
03FFFFFFFFFFFFFFFFFFFFFFFF80
01FFFFFFFFFFFFFFFFFFFFFFFF00
00FFFFFFFFFFFFFFFFFFFFFFFE00
007FFFFFFFFFFFFFFFFFFFFFFC00
003FFFFFFFFFFFFFFFFFFFFFF800
001FFFFFFFFFFFFFFFFFFFFFE000
000FFFFFFFFFFFFFFFFFFFFFC000
0007FFFFFFFFFFFFFFFFFFFF0000
0001FFFFFFFFFFFFFFFFFFFE0000
00007FFFFFFFFFFFFFFFFFF80000
00000FFFFFFFFFFFFFFFFFC00000
000000FFFFFFFFFFFFFFFE000000
ENDCHAR
STARTCHAR 0070
ENCODING 112
SWIDTH 1318 0
DWIDTH 120 0
BBX 112 91 -5 -13
BITMAP
FFFFFFFFFFFFFFFFFFFFFE000000
FFFFFFFFFFFFFFFFFFFFFFE00000
FFFFFFFFFFFFFFFFFFFFFFFE0000
FFFFFFFFFFFFFFFFFFFFFFFF8000
FFFFFFFFFFFFFFFFFFFFFFFFC000
FFFFFFFFFFFFFFFFFFFFFFFFF000
FFFFFFFFFFFFFFFFFFFFFFFFF800
FFFFFFFFFFFFFFFFFFFFFFFFFC00
FFFFFFFFFFFFFFFFFFFFFFFFFF00
FFFFFFFFFFFFFFFFFFFFFFFFFF00
FFFFFFFFFFFFFFFFFFFFFFFFFF80
FFFFFFFFFFFFFFFFFFFFFFFFFFC0
FFFFFFFFFFFFFFFFFFFFFFFFFFC0
FFFFFFFFFFFFFFFFFFFFFFFFFFE0
FFFFFFFFFFFFFFFFFFFFFFFFFFE0
FFFFFFFFFFFFFFFFFFFFFFFFFFF0
FFFFFFFFFFFFFFFFFFFFFFFFFFF8
FFFFFFFFFFFFFFFFFFFFFFFFFFF8
FFFFFFFFFFFFFFFFFFFFFFFFFFFC
FFFFFFFFFFFFFFFFFFFFFFFFFFFC
FFFFFFFFFFFFFFFFFFFFFFFFFFFC
FFFFFFFFFFFFFFFFFFFFFFFFFFFE
FFFFFFFFFFFFFFFFFFFFFFFFFFFE
FFFFFFFFFFFFFFFFFFFFFFFFFFFE
FFFFFFFFFFFFFFFFFFFFFFFFFFFF
FFFFFFFFFFFFFFFFFFFFFFFFFFFF
FFFFFFFFFFFFFFFFFFFFFFFFFFFF
FFFFFFFFFFFFFFFFFFFFFFFFFFFF
FFFFFFF00000000000000FFFFFFF
FFFFFFF00000000000000FFFFFFF
FFFFFFF00000000000000FFFFFFF
FFFFFFF00000000000000FFFFFFF
FFFFFFF00000000000000FFFFFFF
FFFFFFF00000000000000FFFFFFF
FFFFFFF00000000000000FFFFFFF
FFFFFFF00000000000000FFFFFFF
FFFFFFF00000000000000FFFFFFF
FFFFFFF00000000000000FFFFFFF
FFFFFFF00000000000000FFFFFFF
FFFFFFF00000000000000FFFFFFF
FFFFFFF00000000000000FFFFFFF
FFFFFFF00000000000000FFFFFFF
FFFFFFFFFFFFFFFFFFFFFFFFFFFF
FFFFFFFFFFFFFFFFFFFFFFFFFFFF
FFFFFFFFFFFFFFFFFFFFFFFFFFFF
FFFFFFFFFFFFFFFFFFFFFFFFFFFE
FFFFFFFFFFFFFFFFFFFFFFFFFFFE
FFFFFFFFFFFFFFFFFFFFFFFFFFFE
FFFFFFFFFFFFFFFFFFFFFFFFFFFE
FFFFFFFFFFFFFFFFFFFFFFFFFFFC
FFFFFFFFFFFFFFFFFFFFFFFFFFFC
FFFFFFFFFFFFFFFFFFFFFFFFFFFC
FFFFFFFFFFFFFFFFFFFFFFFFFFF8
FFFFFFFFFFFFFFFFFFFFFFFFFFF8
FFFFFFFFFFFFFFFFFFFFFFFFFFF0
FFFFFFFFFFFFFFFFFFFFFFFFFFF0
FFFFFFFFFFFFFFFFFFFFFFFFFFE0
FFFFFFFFFFFFFFFFFFFFFFFFFFC0
FFFFFFFFFFFFFFFFFFFFFFFFFFC0
FFFFFFFFFFFFFFFFFFFFFFFFFF80
FFFFFFFFFFFFFFFFFFFFFFFFFF00
FFFFFFFFFFFFFFFFFFFFFFFFFE00
FFFFFFFFFFFFFFFFFFFFFFFFF800
FFFFFFFFFFFFFFFFFFFFFFFFF000
FFFFFFFFFFFFFFFFFFFFFFFFC000
FFFFFFFFFFFFFFFFFFFFFFFF8000
FFFFFFFFFFFFFFFFFFFFFFFE0000
FFFFFFFFFFFFFFFFFFFFFFF80000
FFFFFFFFFFFFFFFFFFFFFFC00000
FFFFFFFFFFFFFFFFFFFFF0000000
FFFFFFF000000000000000000000
FFFFFFF000000000000000000000
FFFFFFF000000000000000000000
FFFFFFF000000000000000000000
FFFFFFF000000000000000000000
FFFFFFF000000000000000000000
FFFFFFF000000000000000000000
FFFFFFF000000000000000000000
FFFFFFF000000000000000000000
FFFFFFF000000000000000000000
FFFFFFF000000000000000000000
FFFFFFF000000000000000000000
FFFFFFF000000000000000000000
FFFFFFF000000000000000000000
FFFFFFF000000000000000000000
FFFFFFF000000000000000000000
FFFFFFF000000000000000000000
FFFFFFF000000000000000000000
FFFFFFF000000000000000000000
FFFFFFF000000000000000000000
FFFFFFF000000000000000000000
ENDCHAR
STARTCHAR 0071
ENCODING 113
SWIDTH 1318 0
DWIDTH 120 0
BBX 118 91 0 -13
BITMAP
0000003FFFFFFFFFFFFFFF00000000
00000FFFFFFFFFFFFFFFFFF0000000
00003FFFFFFFFFFFFFFFFFFC000000
0000FFFFFFFFFFFFFFFFFFFF000000
0001FFFFFFFFFFFFFFFFFFFFC00000
0007FFFFFFFFFFFFFFFFFFFFF00000
001FFFFFFFFFFFFFFFFFFFFFF80000
003FFFFFFFFFFFFFFFFFFFFFFC0000
00FFFFFFFFFFFFFFFFFFFFFFFE0000
00FFFFFFFFFFFFFFFFFFFFFFFF0000
01FFFFFFFFFFFFFFFFFFFFFFFF8000
03FFFFFFFFFFFFFFFFFFFFFFFF8000
07FFFFFFFFFFFFFFFFFFFFFFFFC000
0FFFFFFFFFFFFFFFFFFFFFFFFFE000
0FFFFFFFFFFFFFFFFFFFFFFFFFE000
1FFFFFFFFFFFFFFFFFFFFFFFFFF000
1FFFFFFFFFFFFFFFFFFFFFFFFFF800
3FFFFFFFFFFFFFFFFFFFFFFFFFF800
3FFFFFFFFFFFFFFFFFFFFFFFFFFC00
7FFFFFFFFFFFFFFFFFFFFFFFFFFC00
7FFFFFFFFFFFFFFFFFFFFFFFFFFC00
7FFFFFFFFFFFFFFFFFFFFFFFFFFE00
7FFFFFFFFFFFFFFFFFFFFFFFFFFE00
FFFFFFFFFFFFFFFFFFFFFFFFFFFE00
FFFFFFFFFFFFFFFFFFFFFFFFFFFE00
FFFFFFFFFFFFFFFFFFFFFFFFFFFE00
FFFFFFFFFFFFFFFFFFFFFFFFFFFF00
FFFFFFFFFFFFFFFFFFFFFFFFFFFF00
FFFFFFF00000000000001FFFFFFF00
FFFFFFF00000000000001FFFFFFF00
FFFFFFF00000000000001FFFFFFF00
FFFFFFF00000000000001FFFFFFF00
FFFFFFF00000000000001FFFFFFF00
FFFFFFF00000000000001FFFFFFF00
FFFFFFF00000000000001FFFFFFF00
FFFFFFF00000000000001FFFFFFF00
FFFFFFF00000000000001FFFFFFF00
FFFFFFF00000000000001FFFFFFF00
FFFFFFF00000000000001FFFFFFF00
FFFFFFF00000000000001FFFFFFF00
FFFFFFF00000000000001FFFFFFF00
FFFFFFF00000000000001FFFFFFF00
FFFFFFF00000000000001FFFFFFF00
FFFFFFF00000000000001FFFFFFF00
FFFFFFF00000000000001FFFFFFF00
FFFFFFF00000000000001FFFFFFF00
FFFFFFF00000000000001FFFFFFF00
FFFFFFF00000000000001FFFFFFF00
FFFFFFF00000000000001FFFFFFF00
FFFFFFF00000000000001FFFFFFF00
FFFFFFF00000000000001FFFFFFF00
FFFFFFF00000000000001FFFFFFF00
FFFFFFF00000000000001FFFFFFF00
FFFFFFF00000000000001FFFFFFF00
FFFFFFF00000000000001FFFFFFF00
FFFFFFF00000000000001FFFFFFF00
FFFFFFF00000000000001FFFFFFF00
FFFFFFF00000000000001FFFFFFF00
FFFFFFF00000000000001FFFFFFF00
FFFFFFF00000000000001FFFFFFF00
FFFFFFF00000000000001FFFFFFF00
FFFFFFF00000000000001FFFFFFF00
FFFFFFFFFFFFFFFFFFFFFFFFFFFFFC
FFFFFFFFFFFFFFFFFFFFFFFFFFFFFC
FFFFFFFFFFFFFFFFFFFFFFFFFFFFFC
FFFFFFFFFFFFFFFFFFFFFFFFFFFFFC
FFFFFFFFFFFFFFFFFFFFFFFFFFFFFC
7FFFFFFFFFFFFFFFFFFFFFFFFFFFFC
7FFFFFFFFFFFFFFFFFFFFFFFFFFFFC
7FFFFFFFFFFFFFFFFFFFFFFFFFFFFC
7FFFFFFFFFFFFFFFFFFFFFFFFFFFFC
3FFFFFFFFFFFFFFFFFFFFFFFFFFFFC
3FFFFFFFFFFFFFFFFFFFFFFFFFFFFC
1FFFFFFFFFFFFFFFFFFFFFFFFFFFFC
1FFFFFFFFFFFFFFFFFFFFFFFFFFFFC
0FFFFFFFFFFFFFFFFFFFFFFFFFFFFC
07FFFFFFFFFFFFFFFFFFFFFFFFFFFC
07FFFFFFFFFFFFFFFFFFFFFFFFFFFC
03FFFFFFFFFFFFFFFFFFFFFFFFFFFC
03FFFFFFFFFFFFFFFFFFFFFFFFFFFC
01FFFFFFFFFFFFFFFFFFFFFFFFFFFC
00FFFFFFFFFFFFFFFFFFFFFFFFFFFC
007FFFFFFFFFFFFFFFFFFFFFFFFFFC
003FFFFFFFFFFFFFFFFFFFFFFFFFFC
001FFFFFFFFFFFFFFFFFFFFFFFFFFC
000FFFFFFFFFFFFFFFFFFFFFFFFFFC
0003FFFFFFFFFFFFFFFFFFFFFFFFFC
0001FFFFFFFFFFFFFFFFFFFFFFFFFC
00007FFFFFFFFFFFFFFFFFFFFFFFFC
00000FFFFFFFFFFFFFFFFFFFFFFFFC
000000FFFFFFFFFFFFFFFFFFFFFFFC
ENDCHAR
STARTCHAR 0072
ENCODING 114
SWIDTH 1318 0
DWIDTH 120 0
BBX 112 91 -5 -13
BITMAP
FFFFFFFFFFFFFFFFFFFFFE000000
FFFFFFFFFFFFFFFFFFFFFFF00000
FFFFFFFFFFFFFFFFFFFFFFFE0000
FFFFFFFFFFFFFFFFFFFFFFFF8000
FFFFFFFFFFFFFFFFFFFFFFFFE000
FFFFFFFFFFFFFFFFFFFFFFFFF000
FFFFFFFFFFFFFFFFFFFFFFFFF800
FFFFFFFFFFFFFFFFFFFFFFFFFC00
FFFFFFFFFFFFFFFFFFFFFFFFFF00
FFFFFFFFFFFFFFFFFFFFFFFFFF80
FFFFFFFFFFFFFFFFFFFFFFFFFF80
FFFFFFFFFFFFFFFFFFFFFFFFFFC0
FFFFFFFFFFFFFFFFFFFFFFFFFFC0
FFFFFFFFFFFFFFFFFFFFFFFFFFE0
FFFFFFFFFFFFFFFFFFFFFFFFFFF0
FFFFFFFFFFFFFFFFFFFFFFFFFFF0
FFFFFFFFFFFFFFFFFFFFFFFFFFF8
FFFFFFFFFFFFFFFFFFFFFFFFFFFC
FFFFFFFFFFFFFFFFFFFFFFFFFFFC
FFFFFFFFFFFFFFFFFFFFFFFFFFFE
FFFFFFFFFFFFFFFFFFFFFFFFFFFE
FFFFFFF00000000000000FFFFFFE
FFFFFFF00000000000000FFFFFFE
FFFFFFF00000000000000FFFFFFF
FFFFFFF00000000000000FFFFFFF
FFFFFFF00000000000000FFFFFFF
FFFFFFF00000000000000FFFFFFF
FFFFFFF00000000000000FFFFFFF
FFFFFFF00000000000000FFFFFFF
FFFFFFF00000000000000FFFFFFF
FFFFFFF00000000000000FFFFFFF
FFFFFFF00000000000000FFFFFFF
FFFFFFF00000000000000FFFFFFF
FFFFFFF00000000000000FFFFFFF
FFFFFFF00000000000000FFFFFFE
FFFFFFFFFFFFFFFFFFFFFFFFFFFE
FFFFFFFFFFFFFFFFFFFFFFFFFFFE
FFFFFFFFFFFFFFFFFFFFFFFFFFFE
FFFFFFFFFFFFFFFFFFFFFFFFFFFC
FFFFFFFFFFFFFFFFFFFFFFFFFFF8
FFFFFFFFFFFFFFFFFFFFFFFFFFF8
FFFFFFFFFFFFFFFFFFFFFFFFFFF0
FFFFFFFFFFFFFFFFFFFFFFFFFFF0
FFFFFFFFFFFFFFFFFFFFFFFFFFE0
FFFFFFFFFFFFFFFFFFFFFFFFFFE0
FFFFFFFFFFFFFFFFFFFFFFFFFFF0
FFFFFFFFFFFFFFFFFFFFFFFFFFF0
FFFFFFFFFFFFFFFFFFFFFFFFFFF8
FFFFFFFFFFFFFFFFFFFFFFFFFFFC
FFFFFFFFFFFFFFFFFFFFFFFFFFFC
FFFFFFFFFFFFFFFFFFFFFFFFFFFE
FFFFFFFFFFFFFFFFFFFFFFFFFFFE
FFFFFFFFFFFFFFFFFFFFFFFFFFFF
FFFFFFFFFFFFFFFFFFFFFFFFFFFF
FFFFFFFFFFFFFFFFFFFFFFFFFFFF
FFFFFFFFFFFFFFFFFFFFFFFFFFFF
FFFFFFF00000000000000FFFFFFF
FFFFFFF00000000000000FFFFFFF
FFFFFFF00000000000000FFFFFFF
FFFFFFF00000000000000FFFFFFF
FFFFFFF00000000000000FFFFFFF
FFFFFFF00000000000000FFFFFFF
FFFFFFF00000000000000FFFFFFF
FFFFFFF00000000000000FFFFFFF
FFFFFFF00000000000000FFFFFFF
FFFFFFF00000000000000FFFFFFF
FFFFFFF00000000000000FFFFFFF
FFFFFFF00000000000000FFFFFFF
FFFFFFF00000000000000FFFFFFF
FFFFFFF00000000000000FFFFFFF
FFFFFFF00000000000000FFFFFFF
FFFFFFF00000000000000FFFFFFF
FFFFFFF00000000000000FFFFFFF
FFFFFFF00000000000000FFFFFFF
FFFFFFF00000000000000FFFFFFF
FFFFFFF00000000000000FFFFFFF
FFFFFFF00000000000000FFFFFFF
FFFFFFF00000000000000FFFFFFF
FFFFFFF00000000000000FFFFFFF
FFFFFFF00000000000000FFFFFFF
FFFFFFF00000000000000FFFFFFF
FFFFFFF00000000000000FFFFFFF
FFFFFFF00000000000000FFFFFFF
FFFFFFF00000000000000FFFFFFF
FFFFFFF00000000000000FFFFFFF
FFFFFFF00000000000000FFFFFFF
FFFFFFF00000000000000FFFFFFF
FFFFFFF00000000000000FFFFFFF
FFFFFFF00000000000000FFFFFFF
FFFFFFF00000000000000FFFFFFF
FFFFFFF00000000000000FFFFFFF
ENDCHAR
STARTCHAR 0073
ENCODING 115
SWIDTH 1318 0
DWIDTH 120 0
BBX 112 91 -5 -13
BITMAP
000001FFFFFFFFFFFFFFFFFFFFFF
00001FFFFFFFFFFFFFFFFFFFFFFF
0000FFFFFFFFFFFFFFFFFFFFFFFF
0003FFFFFFFFFFFFFFFFFFFFFFFF
000FFFFFFFFFFFFFFFFFFFFFFFFF
003FFFFFFFFFFFFFFFFFFFFFFFFF
007FFFFFFFFFFFFFFFFFFFFFFFFF
01FFFFFFFFFFFFFFFFFFFFFFFFFF
03FFFFFFFFFFFFFFFFFFFFFFFFFF
07FFFFFFFFFFFFFFFFFFFFFFFFFF
0FFFFFFFFFFFFFFFFFFFFFFFFFFF
1FFFFFFFFFFFFFFFFFFFFFFFFFFF
1FFFFFFFFFFFFFFFFFFFFFFFFFFF
3FFFFFFFFFFFFFFFFFFFFFFFFFFF
3FFFFFFFFFFFFFFFFFFFFFFFFFFF
7FFFFFFFFFFFFFFFFFFFFFFFFFFF
7FFFFFFFFFFFFFFFFFFFFFFFFFFF
FFFFFFFFFFFFFFFFFFFFFFFFFFFF
FFFFFFFFFFFFFFFFFFFFFFFFFFFF
FFFFFFFFFFFFFFFFFFFFFFFFFFFF
FFFFFFFFFFFFFFFFFFFFFFFFFFFF
FFFFFFF000000000000000000000
FFFFFFF000000000000000000000
FFFFFFF000000000000000000000
FFFFFFF000000000000000000000
FFFFFFF000000000000000000000
FFFFFFF000000000000000000000
FFFFFFF000000000000000000000
FFFFFFF000000000000000000000
FFFFFFF000000000000000000000
FFFFFFF000000000000000000000
FFFFFFF000000000000000000000
FFFFFFF000000000000000000000
FFFFFFF000000000000000000000
FFFFFFF000000000000000000000
FFFFFFFFFFFFFFFFFFFFFF000000
FFFFFFFFFFFFFFFFFFFFFFF80000
FFFFFFFFFFFFFFFFFFFFFFFF0000
7FFFFFFFFFFFFFFFFFFFFFFFC000
7FFFFFFFFFFFFFFFFFFFFFFFF000
7FFFFFFFFFFFFFFFFFFFFFFFFC00
3FFFFFFFFFFFFFFFFFFFFFFFFE00
3FFFFFFFFFFFFFFFFFFFFFFFFF00
1FFFFFFFFFFFFFFFFFFFFFFFFF80
0FFFFFFFFFFFFFFFFFFFFFFFFFE0
0FFFFFFFFFFFFFFFFFFFFFFFFFE0
07FFFFFFFFFFFFFFFFFFFFFFFFF0
03FFFFFFFFFFFFFFFFFFFFFFFFF8
01FFFFFFFFFFFFFFFFFFFFFFFFF8
00FFFFFFFFFFFFFFFFFFFFFFFFFC
003FFFFFFFFFFFFFFFFFFFFFFFFC
001FFFFFFFFFFFFFFFFFFFFFFFFE
0007FFFFFFFFFFFFFFFFFFFFFFFE
0000FFFFFFFFFFFFFFFFFFFFFFFE
00001FFFFFFFFFFFFFFFFFFFFFFE
000001FFFFFFFFFFFFFFFFFFFFFF
000000000000000000001FFFFFFF
000000000000000000001FFFFFFF
000000000000000000001FFFFFFF
000000000000000000001FFFFFFF
000000000000000000001FFFFFFF
000000000000000000001FFFFFFF
000000000000000000001FFFFFFF
000000000000000000001FFFFFFF
000000000000000000001FFFFFFF
000000000000000000001FFFFFFF
000000000000000000001FFFFFFF
000000000000000000001FFFFFFF
000000000000000000001FFFFFFF
000000000000000000001FFFFFFF
FFFFFFFFFFFFFFFFFFFFFFFFFFFF
FFFFFFFFFFFFFFFFFFFFFFFFFFFF
FFFFFFFFFFFFFFFFFFFFFFFFFFFE
FFFFFFFFFFFFFFFFFFFFFFFFFFFE
FFFFFFFFFFFFFFFFFFFFFFFFFFFE
FFFFFFFFFFFFFFFFFFFFFFFFFFFC
FFFFFFFFFFFFFFFFFFFFFFFFFFFC
FFFFFFFFFFFFFFFFFFFFFFFFFFFC
FFFFFFFFFFFFFFFFFFFFFFFFFFF8
FFFFFFFFFFFFFFFFFFFFFFFFFFF0
FFFFFFFFFFFFFFFFFFFFFFFFFFF0
FFFFFFFFFFFFFFFFFFFFFFFFFFE0
FFFFFFFFFFFFFFFFFFFFFFFFFF80
FFFFFFFFFFFFFFFFFFFFFFFFFF00
FFFFFFFFFFFFFFFFFFFFFFFFFC00
FFFFFFFFFFFFFFFFFFFFFFFFF800
FFFFFFFFFFFFFFFFFFFFFFFFE000
FFFFFFFFFFFFFFFFFFFFFFFF8000
FFFFFFFFFFFFFFFFFFFFFFFE0000
FFFFFFFFFFFFFFFFFFFFFFF80000
FFFFFFFFFFFFFFFFFFFFFF000000
ENDCHAR
STARTCHAR 0074
ENCODING 116
SWIDTH 1318 0
DWIDTH 120 0
BBX 112 91 -5 -13
BITMAP
FFFFFFFFFFFFFFFFFFFFFFFFFFFF
FFFFFFFFFFFFFFFFFFFFFFFFFFFF
FFFFFFFFFFFFFFFFFFFFFFFFFFFF
FFFFFFFFFFFFFFFFFFFFFFFFFFFF
FFFFFFFFFFFFFFFFFFFFFFFFFFFF
FFFFFFFFFFFFFFFFFFFFFFFFFFFF
FFFFFFFFFFFFFFFFFFFFFFFFFFFF
FFFFFFFFFFFFFFFFFFFFFFFFFFFF
FFFFFFFFFFFFFFFFFFFFFFFFFFFF
FFFFFFFFFFFFFFFFFFFFFFFFFFFF
FFFFFFFFFFFFFFFFFFFFFFFFFFFF
FFFFFFFFFFFFFFFFFFFFFFFFFFFF
FFFFFFFFFFFFFFFFFFFFFFFFFFFF
FFFFFFFFFFFFFFFFFFFFFFFFFFFF
FFFFFFFFFFFFFFFFFFFFFFFFFFFF
FFFFFFFFFFFFFFFFFFFFFFFFFFFF
FFFFFFFFFFFFFFFFFFFFFFFFFFFF
FFFFFFFFFFFFFFFFFFFFFFFFFFFF
FFFFFFFFFFFFFFFFFFFFFFFFFFFF
FFFFFFFFFFFFFFFFFFFFFFFFFFFF
FFFFFFFFFFFFFFFFFFFFFFFFFFFF
FFFFFFFFFFFFFFFFFFFFFFFFFFFF
FFFFFFFFFFFFFFFFFFFFFFFFFFFF
FFFFFFFFFFFFFFFFFFFFFFFFFFFF
FFFFFFFFFFFFFFFFFFFFFFFFFFFF
FFFFFFFFFFFFFFFFFFFFFFFFFFFF
FFFFFFFFFFFFFFFFFFFFFFFFFFFF
FFFFFFFFFFFFFFFFFFFFFFFFFFFF
00000000003FFFFFFC0000000000
00000000003FFFFFFC0000000000
00000000003FFFFFFC0000000000
00000000003FFFFFFC0000000000
00000000003FFFFFFC0000000000
00000000003FFFFFFC0000000000
00000000003FFFFFFC0000000000
00000000003FFFFFFC0000000000
00000000003FFFFFFC0000000000
00000000003FFFFFFC0000000000
00000000003FFFFFFC0000000000
00000000003FFFFFFC0000000000
00000000003FFFFFFC0000000000
00000000003FFFFFFC0000000000
00000000003FFFFFFC0000000000
00000000003FFFFFFC0000000000
00000000003FFFFFFC0000000000
00000000003FFFFFFC0000000000
00000000003FFFFFFC0000000000
00000000003FFFFFFC0000000000
00000000003FFFFFFC0000000000
00000000003FFFFFFC0000000000
00000000003FFFFFFC0000000000
00000000003FFFFFFC0000000000
00000000003FFFFFFC0000000000
00000000003FFFFFFC0000000000
00000000003FFFFFFC0000000000
00000000003FFFFFFC0000000000
00000000003FFFFFFC0000000000
00000000003FFFFFFC0000000000
00000000003FFFFFFC0000000000
00000000003FFFFFFC0000000000
00000000003FFFFFFC0000000000
00000000003FFFFFFC0000000000
00000000003FFFFFFC0000000000
00000000003FFFFFFC0000000000
00000000003FFFFFFC0000000000
00000000003FFFFFFC0000000000
00000000003FFFFFFC0000000000
00000000003FFFFFFC0000000000
00000000003FFFFFFC0000000000
00000000003FFFFFFC0000000000
00000000003FFFFFFC0000000000
00000000003FFFFFFC0000000000
00000000003FFFFFFC0000000000
00000000003FFFFFFC0000000000
00000000003FFFFFFC0000000000
00000000003FFFFFFC0000000000
00000000003FFFFFFC0000000000
00000000003FFFFFFC0000000000
00000000003FFFFFFC0000000000
00000000003FFFFFFC0000000000
00000000003FFFFFFC0000000000
00000000003FFFFFFC0000000000
00000000003FFFFFFC0000000000
00000000003FFFFFFC0000000000
00000000003FFFFFFC0000000000
00000000003FFFFFFC0000000000
00000000003FFFFFFC0000000000
00000000003FFFFFFC0000000000
00000000003FFFFFFC0000000000
00000000003FFFFFFC0000000000
00000000003FFFFFFC0000000000
ENDCHAR
STARTCHAR 0075
ENCODING 117
SWIDTH 1318 0
DWIDTH 120 0
BBX 112 91 -5 -13
BITMAP
FFFFFFF00000000000000FFFFFFF
FFFFFFF00000000000000FFFFFFF
FFFFFFF00000000000000FFFFFFF
FFFFFFF00000000000000FFFFFFF
FFFFFFF00000000000000FFFFFFF
FFFFFFF00000000000000FFFFFFF
FFFFFFF00000000000000FFFFFFF
FFFFFFF00000000000000FFFFFFF
FFFFFFF00000000000000FFFFFFF
FFFFFFF00000000000000FFFFFFF
FFFFFFF00000000000000FFFFFFF
FFFFFFF00000000000000FFFFFFF
FFFFFFF00000000000000FFFFFFF
FFFFFFF00000000000000FFFFFFF
FFFFFFF00000000000000FFFFFFF
FFFFFFF00000000000000FFFFFFF
FFFFFFF00000000000000FFFFFFF
FFFFFFF00000000000000FFFFFFF
FFFFFFF00000000000000FFFFFFF
FFFFFFF00000000000000FFFFFFF
FFFFFFF00000000000000FFFFFFF
FFFFFFF00000000000000FFFFFFF
FFFFFFF00000000000000FFFFFFF
FFFFFFF00000000000000FFFFFFF
FFFFFFF00000000000000FFFFFFF
FFFFFFF00000000000000FFFFFFF
FFFFFFF00000000000000FFFFFFF
FFFFFFF00000000000000FFFFFFF
FFFFFFF00000000000000FFFFFFF
FFFFFFF00000000000000FFFFFFF
FFFFFFF00000000000000FFFFFFF
FFFFFFF00000000000000FFFFFFF
FFFFFFF00000000000000FFFFFFF
FFFFFFF00000000000000FFFFFFF
FFFFFFF00000000000000FFFFFFF
FFFFFFF00000000000000FFFFFFF
FFFFFFF00000000000000FFFFFFF
FFFFFFF00000000000000FFFFFFF
FFFFFFF00000000000000FFFFFFF
FFFFFFF00000000000000FFFFFFF
FFFFFFF00000000000000FFFFFFF
FFFFFFF00000000000000FFFFFFF
FFFFFFF00000000000000FFFFFFF
FFFFFFF00000000000000FFFFFFF
FFFFFFF00000000000000FFFFFFF
FFFFFFF00000000000000FFFFFFF
FFFFFFF00000000000000FFFFFFF
FFFFFFF00000000000000FFFFFFF
FFFFFFF00000000000000FFFFFFF
FFFFFFF00000000000000FFFFFFF
FFFFFFF00000000000000FFFFFFF
FFFFFFF00000000000000FFFFFFF
FFFFFFF00000000000000FFFFFFF
FFFFFFF00000000000000FFFFFFF
FFFFFFF00000000000000FFFFFFF
FFFFFFF00000000000000FFFFFFF
FFFFFFF00000000000000FFFFFFF
FFFFFFF00000000000000FFFFFFF
FFFFFFF00000000000000FFFFFFF
FFFFFFF00000000000000FFFFFFF
FFFFFFF00000000000000FFFFFFF
FFFFFFF00000000000000FFFFFFF
FFFFFFF00000000000000FFFFFFF
FFFFFFFFFFFFFFFFFFFFFFFFFFFF
FFFFFFFFFFFFFFFFFFFFFFFFFFFF
FFFFFFFFFFFFFFFFFFFFFFFFFFFF
FFFFFFFFFFFFFFFFFFFFFFFFFFFF
7FFFFFFFFFFFFFFFFFFFFFFFFFFF
7FFFFFFFFFFFFFFFFFFFFFFFFFFF
7FFFFFFFFFFFFFFFFFFFFFFFFFFF
7FFFFFFFFFFFFFFFFFFFFFFFFFFF
3FFFFFFFFFFFFFFFFFFFFFFFFFFF
3FFFFFFFFFFFFFFFFFFFFFFFFFFF
3FFFFFFFFFFFFFFFFFFFFFFFFFFF
1FFFFFFFFFFFFFFFFFFFFFFFFFFF
0FFFFFFFFFFFFFFFFFFFFFFFFFFF
0FFFFFFFFFFFFFFFFFFFFFFFFFFF
07FFFFFFFFFFFFFFFFFFFFFFFFFF
03FFFFFFFFFFFFFFFFFFFFFFFFFF
03FFFFFFFFFFFFFFFFFFFFFFFFFF
01FFFFFFFFFFFFFFFFFFFFFFFFFF
01FFFFFFFFFFFFFFFFFFFFFFFFFF
00FFFFFFFFFFFFFFFFFFFFFFFFFF
007FFFFFFFFFFFFFFFFFFFFFFFFF
003FFFFFFFFFFFFFFFFFFFFFFFFF
000FFFFFFFFFFFFFFFFFFFFFFFFF
0007FFFFFFFFFFFFFFFFFFFFFFFF
0001FFFFFFFFFFFFFFFFFFFFFFFF
00007FFFFFFFFFFFFFFFFFFFFFFF
00000FFFFFFFFFFFFFFFFFFFFFFF
000001FFFFFFFFFFFFFFFFFFFFFF
ENDCHAR
STARTCHAR 0076
ENCODING 118
SWIDTH 1318 0
DWIDTH 120 0
BBX 112 91 -5 -13
BITMAP
FFFFFFF00000000000000FFFFFFE
FFFFFFF00000000000000FFFFFFE
FFFFFFF00000000000000FFFFFFE
FFFFFFF00000000000000FFFFFFE
FFFFFFF00000000000000FFFFFFE
FFFFFFF00000000000000FFFFFFE
FFFFFFF00000000000000FFFFFFE
FFFFFFF00000000000000FFFFFFE
FFFFFFF00000000000000FFFFFFE
FFFFFFF00000000000000FFFFFFE
FFFFFFF00000000000000FFFFFFE
FFFFFFF00000000000000FFFFFFE
FFFFFFF00000000000000FFFFFFE
FFFFFFF00000000000000FFFFFFE
FFFFFFF00000000000000FFFFFFE
FFFFFFF00000000000000FFFFFFE
FFFFFFF00000000000000FFFFFFE
FFFFFFF00000000000000FFFFFFE
FFFFFFF00000000000000FFFFFFF
FFFFFFF00000000000000FFFFFFF
FFFFFFF00000000000000FFFFFFF
FFFFFFF00000000000000FFFFFFF
FFFFFFF00000000000000FFFFFFF
FFFFFFF00000000000000FFFFFFF
FFFFFFF00000000000000FFFFFFF
FFFFFFF00000000000000FFFFFFF
FFFFFFF00000000000000FFFFFFF
FFFFFFF00000000000000FFFFFFF
FFFFFFF00000000000000FFFFFFF
FFFFFFF00000000000000FFFFFFF
FFFFFFF00000000000000FFFFFFF
FFFFFFF00000000000000FFFFFFF
FFFFFFF00000000000000FFFFFFF
FFFFFFF00000000000000FFFFFFF
FFFFFFF00000000000000FFFFFFF
FFFFFFF00000000000000FFFFFFF
FFFFFFF00000000000000FFFFFFF
FFFFFFF00000000000000FFFFFFF
FFFFFFF00000000000000FFFFFFF
FFFFFFF00000000000000FFFFFFF
FFFFFFF00000000000000FFFFFFF
FFFFFFF00000000000000FFFFFFF
FFFFFFF00000000000000FFFFFFF
FFFFFFF00000000000000FFFFFFF
FFFFFFF00000000000000FFFFFFF
FFFFFFF00000000000000FFFFFFF
FFFFFFF00000000000000FFFFFFF
FFFFFFF00000000000000FFFFFFF
FFFFFFF00000000000000FFFFFFF
FFFFFFF00000000000000FFFFFFF
FFFFFFF00000000000000FFFFFFF
FFFFFFF00000000000000FFFFFFF
FFFFFFF00000000000000FFFFFFF
FFFFFFF00000000000000FFFFFFF
FFFFFFF00000000000000FFFFFFF
FFFFFFF00000000000000FFFFFFF
FFFFFFF00000000000000FFFFFFF
FFFFFFF00000000000000FFFFFFF
FFFFFFF00000000000000FFFFFFF
FFFFFFF00000000000000FFFFFFF
FFFFFFF00000000000000FFFFFFF
FFFFFFF00000000000000FFFFFFF
FFFFFFF00000000000000FFFFFFE
FFFFFFFFFFFFFFFFFFFFFFFFFFFE
FFFFFFFFFFFFFFFFFFFFFFFFFFFE
FFFFFFFFFFFFFFFFFFFFFFFFFFFE
FFFFFFFFFFFFFFFFFFFFFFFFFFFE
FFFFFFFFFFFFFFFFFFFFFFFFFFFE
FFFFFFFFFFFFFFFFFFFFFFFFFFFE
FFFFFFFFFFFFFFFFFFFFFFFFFFFE
FFFFFFFFFFFFFFFFFFFFFFFFFFFC
FFFFFFFFFFFFFFFFFFFFFFFFFFFC
FFFFFFFFFFFFFFFFFFFFFFFFFFFC
FFFFFFFFFFFFFFFFFFFFFFFFFFF8
FFFFFFFFFFFFFFFFFFFFFFFFFFF8
FFFFFFFFFFFFFFFFFFFFFFFFFFF8
FFFFFFFFFFFFFFFFFFFFFFFFFFF0
FFFFFFFFFFFFFFFFFFFFFFFFFFF0
FFFFFFFFFFFFFFFFFFFFFFFFFFE0
FFFFFFFFFFFFFFFFFFFFFFFFFFC0
FFFFFFFFFFFFFFFFFFFFFFFFFF80
FFFFFFFFFFFFFFFFFFFFFFFFFF00
FFFFFFFFFFFFFFFFFFFFFFFFFF00
FFFFFFFFFFFFFFFFFFFFFFFFFC00
FFFFFFFFFFFFFFFFFFFFFFFFF800
FFFFFFFFFFFFFFFFFFFFFFFFE000
FFFFFFFFFFFFFFFFFFFFFFFFC000
FFFFFFFFFFFFFFFFFFFFFFFF0000
FFFFFFFFFFFFFFFFFFFFFFFE0000
FFFFFFFFFFFFFFFFFFFFFFF00000
FFFFFFFFFFFFFFFFFFFFFE000000
ENDCHAR
STARTCHAR 0077
ENCODING 119
SWIDTH 1791 0
DWIDTH 163 0
BBX 154 91 0 -13
BITMAP
FFFFFFF000000001FFFFFFE000000003FFFFFFC0
FFFFFFF000000001FFFFFFE000000003FFFFFFC0
FFFFFFF000000001FFFFFFE000000003FFFFFFC0
FFFFFFF000000001FFFFFFE000000003FFFFFFC0
FFFFFFF000000001FFFFFFE000000003FFFFFFC0
FFFFFFF000000001FFFFFFE000000003FFFFFFC0
FFFFFFF000000001FFFFFFE000000003FFFFFFC0
FFFFFFF000000001FFFFFFE000000003FFFFFFC0
FFFFFFF000000001FFFFFFE000000003FFFFFFC0
FFFFFFF000000001FFFFFFE000000003FFFFFFC0
FFFFFFF000000001FFFFFFE000000003FFFFFFC0
FFFFFFF000000001FFFFFFE000000003FFFFFFC0
FFFFFFF000000001FFFFFFE000000003FFFFFFC0
FFFFFFF000000001FFFFFFE000000003FFFFFFC0
FFFFFFF000000001FFFFFFE000000003FFFFFFC0
FFFFFFF000000001FFFFFFE000000003FFFFFFC0
FFFFFFF000000001FFFFFFE000000003FFFFFFC0
FFFFFFF000000001FFFFFFE000000003FFFFFFC0
FFFFFFF000000001FFFFFFE000000003FFFFFFC0
FFFFFFF000000001FFFFFFE000000003FFFFFFC0
FFFFFFF000000001FFFFFFE000000003FFFFFFC0
FFFFFFF000000001FFFFFFE000000003FFFFFFC0
FFFFFFF000000001FFFFFFE000000003FFFFFFC0
FFFFFFF000000001FFFFFFE000000003FFFFFFC0
FFFFFFF000000001FFFFFFE000000003FFFFFFC0
FFFFFFF000000001FFFFFFE000000003FFFFFFC0
FFFFFFF000000001FFFFFFE000000003FFFFFFC0
FFFFFFF000000001FFFFFFE000000003FFFFFFC0
FFFFFFF000000001FFFFFFE000000003FFFFFFC0
FFFFFFF000000001FFFFFFE000000003FFFFFFC0
FFFFFFF000000001FFFFFFE000000003FFFFFFC0
FFFFFFF000000001FFFFFFE000000003FFFFFFC0
FFFFFFF000000001FFFFFFE000000003FFFFFFC0
FFFFFFF000000001FFFFFFE000000003FFFFFFC0
FFFFFFF000000001FFFFFFE000000003FFFFFFC0
FFFFFFF000000001FFFFFFE000000003FFFFFFC0
FFFFFFF000000001FFFFFFE000000003FFFFFFC0
FFFFFFF000000001FFFFFFE000000003FFFFFFC0
FFFFFFF000000001FFFFFFE000000003FFFFFFC0
FFFFFFF000000001FFFFFFE000000003FFFFFFC0
FFFFFFF000000001FFFFFFE000000003FFFFFFC0
FFFFFFF000000001FFFFFFE000000003FFFFFFC0
FFFFFFF000000001FFFFFFE000000003FFFFFFC0
FFFFFFF000000001FFFFFFE000000003FFFFFFC0
FFFFFFF000000001FFFFFFE000000003FFFFFFC0
FFFFFFF000000001FFFFFFE000000003FFFFFFC0
FFFFFFF000000001FFFFFFE000000003FFFFFFC0
FFFFFFF000000001FFFFFFE000000003FFFFFFC0
FFFFFFF000000001FFFFFFE000000003FFFFFFC0
FFFFFFF000000001FFFFFFE000000003FFFFFFC0
FFFFFFF000000001FFFFFFE000000003FFFFFFC0
FFFFFFF000000001FFFFFFE000000003FFFFFFC0
FFFFFFF000000001FFFFFFE000000003FFFFFFC0
FFFFFFF000000001FFFFFFE000000003FFFFFFC0
FFFFFFF000000001FFFFFFE000000003FFFFFFC0
FFFFFFF000000001FFFFFFE000000003FFFFFFC0
FFFFFFF000000001FFFFFFE000000003FFFFFFC0
FFFFFFF000000001FFFFFFE000000003FFFFFFC0
FFFFFFF000000001FFFFFFE000000003FFFFFFC0
FFFFFFF000000001FFFFFFE000000003FFFFFFC0
FFFFFFF000000001FFFFFFE000000003FFFFFFC0
FFFFFFF000000001FFFFFFE000000003FFFFFFC0
FFFFFFF000000001FFFFFFE000000003FFFFFFC0
FFFFFFFFFFFFFFFFFFFFFFFFFFFFFFFFFFFFFFC0
FFFFFFFFFFFFFFFFFFFFFFFFFFFFFFFFFFFFFFC0
FFFFFFFFFFFFFFFFFFFFFFFFFFFFFFFFFFFFFFC0
FFFFFFFFFFFFFFFFFFFFFFFFFFFFFFFFFFFFFF80
FFFFFFFFFFFFFFFFFFFFFFFFFFFFFFFFFFFFFF80
FFFFFFFFFFFFFFFFFFFFFFFFFFFFFFFFFFFFFF80
FFFFFFFFFFFFFFFFFFFFFFFFFFFFFFFFFFFFFF80
FFFFFFFFFFFFFFFFFFFFFFFFFFFFFFFFFFFFFF80
FFFFFFFFFFFFFFFFFFFFFFFFFFFFFFFFFFFFFF00
FFFFFFFFFFFFFFFFFFFFFFFFFFFFFFFFFFFFFF00
FFFFFFFFFFFFFFFFFFFFFFFFFFFFFFFFFFFFFE00
FFFFFFFFFFFFFFFFFFFFFFFFFFFFFFFFFFFFFE00
FFFFFFFFFFFFFFFFFFFFFFFFFFFFFFFFFFFFFC00
FFFFFFFFFFFFFFFFFFFFFFFFFFFFFFFFFFFFFC00
FFFFFFFFFFFFFFFFFFFFFFFFFFFFFFFFFFFFF800
FFFFFFFFFFFFFFFFFFFFFFFFFFFFFFFFFFFFF000
FFFFFFFFFFFFFFFFFFFFFFFFFFFFFFFFFFFFF000
FFFFFFFFFFFFFFFFFFFFFFFFFFFFFFFFFFFFE000
FFFFFFFFFFFFFFFFFFFFFFFFFFFFFFFFFFFFC000
FFFFFFFFFFFFFFFFFFFFFFFFFFFFFFFFFFFF8000
FFFFFFFFFFFFFFFFFFFFFFFFFFFFFFFFFFFF0000
FFFFFFFFFFFFFFFFFFFFFFFFFFFFFFFFFFFC0000
FFFFFFFFFFFFFFFFFFFFFFFFFFFFFFFFFFF80000
FFFFFFFFFFFFFFFFFFFFFFFFFFFFFFFFFFE00000
FFFFFFFFFFFFFFFFFFFFFFFFFFFFFFFFFF800000
FFFFFFFFFFFFFFFFFFFFFFFFFFFFFFFFFF000000
FFFFFFFFFFFFFFFFFFFFFFFFFFFFFFFFFC000000
FFFFFFFFFFFFFFFFFFFFFFFFFFFFFFFF00000000
ENDCHAR
STARTCHAR 0078
ENCODING 120
SWIDTH 1318 0
DWIDTH 120 0
BBX 111 91 -5 -13
BITMAP
FFFFFFFF000000000001FFFFFFFE
FFFFFFFFF0000000001FFFFFFFFE
FFFFFFFFFC000000003FFFFFFFFE
FFFFFFFFFF80000000FFFFFFFFFE
FFFFFFFFFFC0000001FFFFFFFFFE
FFFFFFFFFFF0000007FFFFFFFFFE
FFFFFFFFFFF800001FFFFFFFFFFE
FFFFFFFFFFFC00003FFFFFFFFFFE
FFFFFFFFFFFE0000FFFFFFFFFFFE
FFFFFFFFFFFF0001FFFFFFFFFFFE
FFFFFFFFFFFF8001FFFFFFFFFFFE
FFFFFFFFFFFF8003FFFFFFFFFFFE
FFFFFFFFFFFFC007FFFFFFFFFFFE
FFFFFFFFFFFFE00FFFFFFFFFFFFE
FFFFFFFFFFFFE00FFFFFFFFFFFFE
FFFFFFFFFFFFF01FFFFFFFFFFFFE
FFFFFFFFFFFFF81FFFFFFFFFFFFE
FFFFFFFFFFFFF83FFFFFFFFFFFFE
FFFFFFFFFFFFFC3FFFFFFFFFFFFE
FFFFFFFFFFFFFC7FFFFFFFFFFFFE
FFFFFFFFFFFFFE7FFFFFFFFFFFFE
FFFFFFFFFFFFFE7FFFFFFFFFFFFE
FFFFFFFFFFFFFEFFFFFFFFFFFFFE
FFFFFFFFFFFFFEFFFFFFFFFFFFFE
FFFFFFFFFFFFFEFFFFFFFFFFFFFE
FFFFFFFFFFFFFFFFFFFFFFFFFFFE
FFFFFFFFFFFFFFFFFFFFFFFFFFFE
FFFFFFFFFFFFFFFFFFFFFFFFFFFE
0000000FFFFFFFFFFFFFF0000000
0000000FFFFFFFFFFFFFF0000000
0000000FFFFFFFFFFFFFF0000000
0000000FFFFFFFFFFFFFF0000000
0000000FFFFFFFFFFFFFF0000000
0000000FFFFFFFFFFFFFF0000000
0000000FFFFFFFFFFFFFF0000000
0000000FFFFFFFFFFFFFF0000000
0000000FFFFFFFFFFFFFF0000000
0000000FFFFFFFFFFFFFF0000000
0000000FFFFFFFFFFFFFF0000000
0000000FFFFFFFFFFFFFF0000000
0000000FFFFFFFFFFFFFF0000000
0000000FFFFFFFFFFFFFF0000000
0000000FFFFFFFFFFFFFF0000000
0000000FFFFFFFFFFFFFF0000000
0000000FFFFFFFFFFFFFF0000000
0000000FFFFFFFFFFFFFF0000000
0000000FFFFFFFFFFFFFF0000000
0000000FFFFFFFFFFFFFF0000000
0000000FFFFFFFFFFFFFF0000000
0000000FFFFFFFFFFFFFF0000000
0000000FFFFFFFFFFFFFF0000000
0000000FFFFFFFFFFFFFF0000000
0000000FFFFFFFFFFFFFF0000000
0000000FFFFFFFFFFFFFF0000000
0000000FFFFFFFFFFFFFF0000000
0000000FFFFFFFFFFFFFF0000000
0000000FFFFFFFFFFFFFF0000000
0000000FFFFFFFFFFFFFF0000000
0000000FFFFFFFFFFFFFF0000000
0000000FFFFFFFFFFFFFF0000000
0000000FFFFFFFFFFFFFF0000000
0000000FFFFFFFFFFFFFF0000000
0000000FFFFFFFFFFFFFF0000000
FFFFFFFFFFFFFFFFFFFFFFFFFFFE
FFFFFFFFFFFFFFFFFFFFFFFFFFFE
FFFFFFFFFFFFFFFFFFFFFFFFFFFE
FFFFFFFFFFFFFFFFFFFFFFFFFFFE
FFFFFFFFFFFFFEFFFFFFFFFFFFFE
FFFFFFFFFFFFFEFFFFFFFFFFFFFE
FFFFFFFFFFFFFE7FFFFFFFFFFFFE
FFFFFFFFFFFFFE7FFFFFFFFFFFFE
FFFFFFFFFFFFFC7FFFFFFFFFFFFE
FFFFFFFFFFFFFC3FFFFFFFFFFFFE
FFFFFFFFFFFFFC3FFFFFFFFFFFFE
FFFFFFFFFFFFF81FFFFFFFFFFFFE
FFFFFFFFFFFFF80FFFFFFFFFFFFE
FFFFFFFFFFFFF00FFFFFFFFFFFFE
FFFFFFFFFFFFE007FFFFFFFFFFFE
FFFFFFFFFFFFC003FFFFFFFFFFFE
FFFFFFFFFFFFC003FFFFFFFFFFFE
FFFFFFFFFFFF8001FFFFFFFFFFFE
FFFFFFFFFFFF0000FFFFFFFFFFFE
FFFFFFFFFFFE0000FFFFFFFFFFFE
FFFFFFFFFFFC00003FFFFFFFFFFE
FFFFFFFFFFF000001FFFFFFFFFFE
FFFFFFFFFFE000000FFFFFFFFFFE
FFFFFFFFFFC0000007FFFFFFFFFE
FFFFFFFFFF00000001FFFFFFFFFE
FFFFFFFFFC000000007FFFFFFFFE
FFFFFFFFE0000000000FFFFFFFFE
FFFFFFFE000000000000FFFFFFFE
ENDCHAR
STARTCHAR 0079
ENCODING 121
SWIDTH 1318 0
DWIDTH 120 0
BBX 112 91 -5 -13
BITMAP
FFFFFFF00000000000000FFFFFFF
FFFFFFF00000000000000FFFFFFF
FFFFFFF00000000000000FFFFFFF
FFFFFFF00000000000000FFFFFFF
FFFFFFF00000000000000FFFFFFF
FFFFFFF00000000000000FFFFFFF
FFFFFFF00000000000000FFFFFFF
FFFFFFF00000000000000FFFFFFF
FFFFFFF00000000000000FFFFFFF
FFFFFFF00000000000000FFFFFFF
FFFFFFF00000000000000FFFFFFF
FFFFFFF00000000000000FFFFFFF
FFFFFFF00000000000000FFFFFFF
FFFFFFF00000000000000FFFFFFF
FFFFFFF00000000000000FFFFFFF
FFFFFFF00000000000000FFFFFFF
FFFFFFF00000000000000FFFFFFF
FFFFFFF00000000000000FFFFFFF
FFFFFFF00000000000000FFFFFFF
FFFFFFF00000000000000FFFFFFF
FFFFFFF00000000000000FFFFFFF
FFFFFFF00000000000000FFFFFFF
FFFFFFF00000000000000FFFFFFF
FFFFFFF00000000000000FFFFFFF
FFFFFFF00000000000000FFFFFFF
FFFFFFF00000000000000FFFFFFF
FFFFFFF00000000000000FFFFFFF
FFFFFFF00000000000000FFFFFFF
FFFFFFF00000000000000FFFFFFF
FFFFFFF00000000000000FFFFFFF
FFFFFFF00000000000000FFFFFFF
FFFFFFF00000000000000FFFFFFF
FFFFFFF00000000000000FFFFFFF
FFFFFFF00000000000000FFFFFFF
FFFFFFF00000000000000FFFFFFF
FFFFFFFFFFFFFFFFFFFFFFFFFFFF
FFFFFFFFFFFFFFFFFFFFFFFFFFFE
FFFFFFFFFFFFFFFFFFFFFFFFFFFE
FFFFFFFFFFFFFFFFFFFFFFFFFFFE
FFFFFFFFFFFFFFFFFFFFFFFFFFFE
7FFFFFFFFFFFFFFFFFFFFFFFFFFE
7FFFFFFFFFFFFFFFFFFFFFFFFFFE
7FFFFFFFFFFFFFFFFFFFFFFFFFFE
7FFFFFFFFFFFFFFFFFFFFFFFFFFC
3FFFFFFFFFFFFFFFFFFFFFFFFFFC
1FFFFFFFFFFFFFFFFFFFFFFFFFF8
1FFFFFFFFFFFFFFFFFFFFFFFFFF8
0FFFFFFFFFFFFFFFFFFFFFFFFFF0
07FFFFFFFFFFFFFFFFFFFFFFFFF0
07FFFFFFFFFFFFFFFFFFFFFFFFE0
03FFFFFFFFFFFFFFFFFFFFFFFFE0
03FFFFFFFFFFFFFFFFFFFFFFFFC0
01FFFFFFFFFFFFFFFFFFFFFFFF80
00FFFFFFFFFFFFFFFFFFFFFFFF00
007FFFFFFFFFFFFFFFFFFFFFFE00
003FFFFFFFFFFFFFFFFFFFFFFC00
001FFFFFFFFFFFFFFFFFFFFFF000
000FFFFFFFFFFFFFFFFFFFFFE000
0003FFFFFFFFFFFFFFFFFFFF8000
0001FFFFFFFFFFFFFFFFFFFE0000
00007FFFFFFFFFFFFFFFFFFC0000
00001FFFFFFFFFFFFFFFFFF00000
000001FFFFFFFFFFFFFFFF000000
00000000003FFFFFFC0000000000
00000000003FFFFFFC0000000000
00000000003FFFFFFC0000000000
00000000003FFFFFFC0000000000
00000000003FFFFFFC0000000000
00000000003FFFFFFC0000000000
00000000003FFFFFFC0000000000
00000000003FFFFFFC0000000000
00000000003FFFFFFC0000000000
00000000003FFFFFFC0000000000
00000000003FFFFFFC0000000000
00000000003FFFFFFC0000000000
00000000003FFFFFFC0000000000
00000000003FFFFFFC0000000000
00000000003FFFFFFC0000000000
00000000003FFFFFFC0000000000
00000000003FFFFFFC0000000000
00000000003FFFFFFC0000000000
00000000003FFFFFFC0000000000
00000000003FFFFFFC0000000000
00000000003FFFFFFC0000000000
00000000003FFFFFFC0000000000
00000000003FFFFFFC0000000000
00000000003FFFFFFC0000000000
00000000003FFFFFFC0000000000
00000000003FFFFFFC0000000000
00000000003FFFFFFC0000000000
00000000003FFFFFFC0000000000
ENDCHAR
STARTCHAR 007A
ENCODING 122
SWIDTH 1318 0
DWIDTH 120 0
BBX 112 91 -5 -13
BITMAP
FFFFFFFFFFFFFFFFFFFFFFFFFFFF
FFFFFFFFFFFFFFFFFFFFFFFFFFFF
FFFFFFFFFFFFFFFFFFFFFFFFFFFF
FFFFFFFFFFFFFFFFFFFFFFFFFFFF
FFFFFFFFFFFFFFFFFFFFFFFFFFFF
FFFFFFFFFFFFFFFFFFFFFFFFFFFF
FFFFFFFFFFFFFFFFFFFFFFFFFFFF
FFFFFFFFFFFFFFFFFFFFFFFFFFFF
FFFFFFFFFFFFFFFFFFFFFFFFFFFF
FFFFFFFFFFFFFFFFFFFFFFFFFFFF
FFFFFFFFFFFFFFFFFFFFFFFFFFFF
FFFFFFFFFFFFFFFFFFFFFFFFFFFF
FFFFFFFFFFFFFFFFFFFFFFFFFFFF
FFFFFFFFFFFFFFFFFFFFFFFFFFFF
FFFFFFFFFFFFFFFFFFFFFFFFFFFF
FFFFFFFFFFFFFFFFFFFFFFFFFFFF
FFFFFFFFFFFFFFFFFFFFFFFFFFFF
FFFFFFFFFFFFFFFFFFFFFFFFFFFF
FFFFFFFFFFFFFFFFFFFFFFFFFFFF
FFFFFFFFFFFFFFFFFFFFFFFFFFFF
FFFFFFFFFFFFFFFFFFFFFFFFFFFF
000000000000000000000FFFFFFF
000000000000000000000FFFFFFF
000000000000000000000FFFFFFF
000000000000000000000FFFFFFF
000000000000000000000FFFFFFF
000000000000000000000FFFFFFF
000000000000000000000FFFFFFF
000000000000000000000FFFFFFF
000000000000000000000FFFFFFF
000000000000000000000FFFFFFF
000000000000000000000FFFFFFF
000000000000000000000FFFFFFF
000000000000000000000FFFFFFF
000000000000000000000FFFFFFF
0000007FFFFFFFFFFFFFFFFFFFFF
00001FFFFFFFFFFFFFFFFFFFFFFF
0000FFFFFFFFFFFFFFFFFFFFFFFE
0003FFFFFFFFFFFFFFFFFFFFFFFE
000FFFFFFFFFFFFFFFFFFFFFFFFE
001FFFFFFFFFFFFFFFFFFFFFFFFC
007FFFFFFFFFFFFFFFFFFFFFFFFC
00FFFFFFFFFFFFFFFFFFFFFFFFFC
03FFFFFFFFFFFFFFFFFFFFFFFFF8
07FFFFFFFFFFFFFFFFFFFFFFFFF0
0FFFFFFFFFFFFFFFFFFFFFFFFFF0
1FFFFFFFFFFFFFFFFFFFFFFFFFE0
1FFFFFFFFFFFFFFFFFFFFFFFFFC0
3FFFFFFFFFFFFFFFFFFFFFFFFF00
3FFFFFFFFFFFFFFFFFFFFFFFFC00
7FFFFFFFFFFFFFFFFFFFFFFFF800
7FFFFFFFFFFFFFFFFFFFFFFFE000
FFFFFFFFFFFFFFFFFFFFFFFFC000
FFFFFFFFFFFFFFFFFFFFFFFF0000
FFFFFFFFFFFFFFFFFFFFFFF00000
FFFFFFFFFFFFFFFFFFFFFE000000
FFFFFFF000000000000000000000
FFFFFFF000000000000000000000
FFFFFFF000000000000000000000
FFFFFFF000000000000000000000
FFFFFFF000000000000000000000
FFFFFFF000000000000000000000
FFFFFFF000000000000000000000
FFFFFFF000000000000000000000
FFFFFFF000000000000000000000
FFFFFFF000000000000000000000
FFFFFFF000000000000000000000
FFFFFFF000000000000000000000
FFFFFFF000000000000000000000
FFFFFFF000000000000000000000
FFFFFFFFFFFFFFFFFFFFFFFFFFFF
FFFFFFFFFFFFFFFFFFFFFFFFFFFF
FFFFFFFFFFFFFFFFFFFFFFFFFFFF
FFFFFFFFFFFFFFFFFFFFFFFFFFFF
FFFFFFFFFFFFFFFFFFFFFFFFFFFF
FFFFFFFFFFFFFFFFFFFFFFFFFFFF
FFFFFFFFFFFFFFFFFFFFFFFFFFFF
FFFFFFFFFFFFFFFFFFFFFFFFFFFF
FFFFFFFFFFFFFFFFFFFFFFFFFFFF
FFFFFFFFFFFFFFFFFFFFFFFFFFFF
FFFFFFFFFFFFFFFFFFFFFFFFFFFF
FFFFFFFFFFFFFFFFFFFFFFFFFFFF
FFFFFFFFFFFFFFFFFFFFFFFFFFFF
FFFFFFFFFFFFFFFFFFFFFFFFFFFF
FFFFFFFFFFFFFFFFFFFFFFFFFFFF
FFFFFFFFFFFFFFFFFFFFFFFFFFFF
FFFFFFFFFFFFFFFFFFFFFFFFFFFF
FFFFFFFFFFFFFFFFFFFFFFFFFFFF
FFFFFFFFFFFFFFFFFFFFFFFFFFFF
FFFFFFFFFFFFFFFFFFFFFFFFFFFF
FFFFFFFFFFFFFFFFFFFFFFFFFFFF
ENDCHAR
STARTCHAR 007B
ENCODING 123
SWIDTH 505 0
DWIDTH 46 0
BBX 0 0 0 0
BITMAP
ENDCHAR
STARTCHAR 007C
ENCODING 124
SWIDTH 505 0
DWIDTH 46 0
BBX 0 0 0 0
BITMAP
ENDCHAR
STARTCHAR 007D
ENCODING 125
SWIDTH 505 0
DWIDTH 46 0
BBX 0 0 0 0
BITMAP
ENDCHAR
STARTCHAR 007E
ENCODING 126
SWIDTH 505 0
DWIDTH 46 0
BBX 0 0 0 0
BITMAP
ENDCHAR
STARTCHAR 00A0
ENCODING 160
SWIDTH 505 0
DWIDTH 46 0
BBX 0 0 0 0
BITMAP
ENDCHAR
STARTCHAR 00A1
ENCODING 161
SWIDTH 505 0
DWIDTH 46 0
BBX 0 0 0 0
BITMAP
ENDCHAR
STARTCHAR 00A2
ENCODING 162
SWIDTH 505 0
DWIDTH 46 0
BBX 0 0 0 0
BITMAP
ENDCHAR
STARTCHAR 00A3
ENCODING 163
SWIDTH 505 0
DWIDTH 46 0
BBX 0 0 0 0
BITMAP
ENDCHAR
STARTCHAR 00A4
ENCODING 164
SWIDTH 505 0
DWIDTH 46 0
BBX 0 0 0 0
BITMAP
ENDCHAR
STARTCHAR 00A5
ENCODING 165
SWIDTH 505 0
DWIDTH 46 0
BBX 0 0 0 0
BITMAP
ENDCHAR
STARTCHAR 00A6
ENCODING 166
SWIDTH 505 0
DWIDTH 46 0
BBX 0 0 0 0
BITMAP
ENDCHAR
STARTCHAR 00A7
ENCODING 167
SWIDTH 505 0
DWIDTH 46 0
BBX 0 0 0 0
BITMAP
ENDCHAR
STARTCHAR 00A8
ENCODING 168
SWIDTH 505 0
DWIDTH 46 0
BBX 0 0 0 0
BITMAP
ENDCHAR
STARTCHAR 00A9
ENCODING 169
SWIDTH 505 0
DWIDTH 46 0
BBX 0 0 0 0
BITMAP
ENDCHAR
STARTCHAR 00AA
ENCODING 170
SWIDTH 505 0
DWIDTH 46 0
BBX 0 0 0 0
BITMAP
ENDCHAR
STARTCHAR 00AB
ENCODING 171
SWIDTH 505 0
DWIDTH 46 0
BBX 0 0 0 0
BITMAP
ENDCHAR
STARTCHAR 00AC
ENCODING 172
SWIDTH 505 0
DWIDTH 46 0
BBX 0 0 0 0
BITMAP
ENDCHAR
STARTCHAR 00AD
ENCODING 173
SWIDTH 505 0
DWIDTH 46 0
BBX 0 0 0 0
BITMAP
ENDCHAR
STARTCHAR 00AE
ENCODING 174
SWIDTH 439 0
DWIDTH 40 0
BBX 34 35 1 43
BITMAP
000FF80000
007FFF0000
00FFFF8000
03FFFFC000
07F807F000
0FE003F800
1F8001F800
3F00007C00
3F7FF07E00
7E7FFC3E00
7C7FFE1F00
7C7FFF1F00
FC7E7F0F80
F87E3F0F80
F87E3F0F80
F87E3F07C0
F87FFE07C0
F87FFC07C0
F87FFE07C0
F87EFE0F80
F87E3F0F80
F87E3F0F80
7C7E3F1F00
7C7E3F1F00
3E7E3F3F00
3F7E3F7E00
1F80007C00
1FC000FC00
0FE003F800
07F807F000
03FE1FE000
00FFFF8000
007FFF0000
000FF80000
0003E00000
ENDCHAR
STARTCHAR 00AF
ENCODING 175
SWIDTH 505 0
DWIDTH 46 0
BBX 0 0 0 0
BITMAP
ENDCHAR
STARTCHAR 00B0
ENCODING 176
SWIDTH 505 0
DWIDTH 46 0
BBX 0 0 0 0
BITMAP
ENDCHAR
STARTCHAR 00B1
ENCODING 177
SWIDTH 505 0
DWIDTH 46 0
BBX 0 0 0 0
BITMAP
ENDCHAR
STARTCHAR 00B2
ENCODING 178
SWIDTH 505 0
DWIDTH 46 0
BBX 0 0 0 0
BITMAP
ENDCHAR
STARTCHAR 00B3
ENCODING 179
SWIDTH 505 0
DWIDTH 46 0
BBX 0 0 0 0
BITMAP
ENDCHAR
STARTCHAR 00B4
ENCODING 180
SWIDTH 505 0
DWIDTH 46 0
BBX 0 0 0 0
BITMAP
ENDCHAR
STARTCHAR 00B5
ENCODING 181
SWIDTH 505 0
DWIDTH 46 0
BBX 0 0 0 0
BITMAP
ENDCHAR
STARTCHAR 00B6
ENCODING 182
SWIDTH 505 0
DWIDTH 46 0
BBX 0 0 0 0
BITMAP
ENDCHAR
STARTCHAR 00B7
ENCODING 183
SWIDTH 505 0
DWIDTH 46 0
BBX 0 0 0 0
BITMAP
ENDCHAR
STARTCHAR 00B8
ENCODING 184
SWIDTH 505 0
DWIDTH 46 0
BBX 0 0 0 0
BITMAP
ENDCHAR
STARTCHAR 00B9
ENCODING 185
SWIDTH 505 0
DWIDTH 46 0
BBX 0 0 0 0
BITMAP
ENDCHAR
STARTCHAR 00BA
ENCODING 186
SWIDTH 505 0
DWIDTH 46 0
BBX 0 0 0 0
BITMAP
ENDCHAR
STARTCHAR 00BB
ENCODING 187
SWIDTH 505 0
DWIDTH 46 0
BBX 0 0 0 0
BITMAP
ENDCHAR
STARTCHAR 00BC
ENCODING 188
SWIDTH 505 0
DWIDTH 46 0
BBX 0 0 0 0
BITMAP
ENDCHAR
STARTCHAR 00BD
ENCODING 189
SWIDTH 505 0
DWIDTH 46 0
BBX 0 0 0 0
BITMAP
ENDCHAR
STARTCHAR 00BE
ENCODING 190
SWIDTH 505 0
DWIDTH 46 0
BBX 0 0 0 0
BITMAP
ENDCHAR
STARTCHAR 00BF
ENCODING 191
SWIDTH 505 0
DWIDTH 46 0
BBX 0 0 0 0
BITMAP
ENDCHAR
STARTCHAR 00C0
ENCODING 192
SWIDTH 505 0
DWIDTH 46 0
BBX 0 0 0 0
BITMAP
ENDCHAR
ENDFONT
